<?xml version="1.0" standalone="no"?>
<!DOCTYPE svg PUBLIC "-//W3C//DTD SVG 1.1//EN" "http://www.w3.org/Graphics/SVG/1.1/DTD/svg11.dtd" >
<svg xmlns="http://www.w3.org/2000/svg">
<metadata>
This is a custom SVG webfont generated by Font Squirrel.
Copyright   : Copyright 19901999 as an unpublished work by Bitstream Inc  All rights reserved  Confidential
</metadata>
<defs>
<font id="NewsGothicBoldCondensed" horiz-adv-x="815" >
<font-face units-per-em="2048" ascent="1638" descent="-410" />
<missing-glyph horiz-adv-x="407" />
<glyph unicode=" "  horiz-adv-x="407" />
<glyph unicode="&#x09;" horiz-adv-x="407" />
<glyph unicode="&#xa0;" horiz-adv-x="407" />
<glyph unicode="!" horiz-adv-x="483" d="M115 1481h254l-58 -1063h-141zM129 0v236h223v-236h-223z" />
<glyph unicode="&#x22;" horiz-adv-x="614" d="M90 881v555h139v-555h-139zM385 881v555h139v-555h-139z" />
<glyph unicode="#" horiz-adv-x="1574" d="M88 449l53 145h310l92 264h-330l51 146h332l162 454h166l-162 -454h256l164 454h164l-160 -454h301l-51 -146h-303l-93 -264h322l-51 -145h-322l-162 -453h-165l161 453h-258l-162 -453h-165l159 453h-309zM616 594h261l92 264h-260z" />
<glyph unicode="$" d="M76 174l121 148q84 -129 174 -129v477q-147 104 -220 209.5t-73 238.5q0 150 79 244t214 108v166h106v-163q92 -14 156.5 -51.5t103.5 -94.5l-116 -147q-59 96 -144 110v-430q147 -111 219 -225.5t72 -249.5q0 -152 -75 -249t-216 -128v-219h-106v219q-195 21 -295 166z M274 1122q0 -127 97 -188v348q-97 -33 -97 -160zM477 193q98 43 98 184q0 131 -98 223v-407z" />
<glyph unicode="%" horiz-adv-x="1507" d="M55 1173.5q0 69.5 27 131t72 106.5t106.5 71.5t131 26.5t131 -26.5t106.5 -71.5t71.5 -106.5t26.5 -131t-26.5 -131t-71.5 -106.5t-106.5 -71.5t-131 -26.5t-131 26.5t-106.5 71.5t-72 106.5t-27 131zM236 1174q0 -63 44 -108.5t111.5 -45.5t111.5 45t44 109 q0 66 -45 111.5t-110.5 45.5t-110.5 -45.5t-45 -111.5zM272 -25l818 1518h145l-815 -1518h-148zM782 307.5q0 69.5 27 131t72 106.5t106.5 71.5t131 26.5t131 -26.5t106.5 -71.5t71.5 -106.5t26.5 -131t-26.5 -131t-71.5 -106.5t-106.5 -72t-131 -27t-131 27t-106.5 72 t-72 106.5t-27 131zM963 307q0 -63 44 -109t111.5 -46t111.5 46t44 109q0 66 -45 111t-110.5 45t-110.5 -45t-45 -111z" />
<glyph unicode="&#x26;" horiz-adv-x="905" d="M86 348q0 115 43 209t133 188q-59 117 -87 223.5t-28 196.5q0 156 78 248t209 92q129 0 205 -84t76 -225q0 -102 -59.5 -213t-174.5 -252q29 -66 69 -143.5t97 -165.5q16 63 26.5 128.5t18.5 135.5l191 -39q-16 -129 -45 -225t-68 -162q47 -53 109 -86v-207 q-139 18 -226 133q-41 -59 -103.5 -92t-137.5 -33q-156 0 -241 97.5t-85 275.5zM283 369q0 -88 41 -140.5t100 -52.5t106 60q-117 150 -188 342q-59 -119 -59 -209zM340 1169q0 -59 13.5 -129.5t37.5 -150.5q55 98 90 178t35 158q0 121 -78 121q-98 -1 -98 -177z" />
<glyph unicode="'" horiz-adv-x="317" d="M90 881v555h139v-555h-139z" />
<glyph unicode="(" horiz-adv-x="530" d="M102 682q0 227 53.5 435t157.5 390h172q-90 -166 -143 -371.5t-53 -453.5q0 -455 196 -823h-172q-104 182 -157.5 389t-53.5 434z" />
<glyph unicode=")" horiz-adv-x="530" d="M45 -141q197 371 197 823.5t-197 824.5h172q104 -182 157.5 -391t53.5 -434t-53 -433t-158 -390h-172z" />
<glyph unicode="*" horiz-adv-x="757" d="M49 1178l49 168l246 -140l-37 303h148l-39 -303l246 140l49 -168l-271 -52l195 -217l-129 -106l-127 274l-125 -274l-129 106l194 217z" />
<glyph unicode="+" horiz-adv-x="1705" d="M254 541v139h528v541h142v-541h528v-139h-528v-541h-142v541h-528z" />
<glyph unicode="," horiz-adv-x="407" d="M92 0v236h223v-236l-125 -260h-94l97 260h-101z" />
<glyph unicode="-" horiz-adv-x="473" d="M29 485v177h417v-177h-417z" />
<glyph unicode="." horiz-adv-x="407" d="M92 0v236h223v-236h-223z" />
<glyph unicode="/" horiz-adv-x="569" d="M-104 -190l579 1699h143l-579 -1699h-143z" />
<glyph unicode="0" d="M98 422v637q0 231 72 340.5t237.5 109.5t237.5 -109.5t72 -340.5v-637q0 -231 -72 -341t-237.5 -110t-237.5 110t-72 341zM313 383q0 -113 20.5 -168t74 -55t74 55t20.5 168v715q0 113 -20.5 168t-74 55t-74 -55.5t-20.5 -167.5v-715z" />
<glyph unicode="1" d="M125 1194v131q72 29 137.5 73t128.5 105h133v-1503h-207v1194h-192z" />
<glyph unicode="2" d="M82 0v174l170 311q76 143 129 265t82 225.5t29 193.5q0 72 -25 111t-66 39q-102 0 -102 -209q0 -10 1 -22.5t1 -24.5h-199q0 12 -1 24.5t-1 24.5q0 193 85 297t227 104q131 0 210.5 -93t79.5 -253q0 -195 -105 -431t-284 -546h371v-190h-602z" />
<glyph unicode="3" d="M84 354v34q0 17 2 36h207v-53q0 -109 20.5 -160t71.5 -51q94 0 94 211q0 86 -5 145t-22.5 96t-51 53.5t-91.5 16.5h-22v197h18q98 0 133 50t35 165q0 117 -19.5 172t-72.5 55q-47 0 -66.5 -44t-19.5 -136q0 -12 1 -24.5t1 -24.5h-201q0 14 -1 27.5t-1 25.5q0 365 289 364 q166 0 229.5 -98t63.5 -309q0 -139 -32 -214t-120 -100q51 -16 84 -45.5t51.5 -75.5t24.5 -107.5t6 -143.5q0 -225 -70.5 -335t-226.5 -110q-309 0 -309 383z" />
<glyph unicode="4" d="M68 315v201l352 965h219v-985h135v-181h-135v-315h-199v315h-372zM225 496h215v389q0 80 37 332z" />
<glyph unicode="5" d="M109 362v29q0 14 2 31h215q-2 -18 -2 -34v-32q0 -100 20.5 -147t73.5 -47q90 0 90 147v334q0 102 -22.5 151.5t-79.5 49.5q-41 0 -65 -31t-28 -88h-180l25 756h536v-195h-358l-8 -336q35 43 81 64.5t95 21.5q117 0 167 -90t50 -282v-299q0 -203 -73 -298.5t-234 -95.5 q-305 0 -305 391z" />
<glyph unicode="6" d="M121 360v693q0 119 15.5 204.5t52 142t97 83t152.5 26.5q287 0 287 -387v-24h-213v94q0 59 -23.5 91t-64.5 32q-90 0 -90 -168v-320q100 90 184 91q109 0 158 -79t49 -241v-238q0 -199 -75 -295t-236 -96q-293 0 -293 391zM334 332q0 -84 18.5 -126t67.5 -42q92 0 92 147 v271q0 147 -78 147q-18 0 -45 -13.5t-55 -41.5v-342z" />
<glyph unicode="7" d="M94 1286v195h590l-260 -1481h-219l246 1286h-357z" />
<glyph unicode="8" d="M100 434q0 80 5.5 140.5t19.5 104.5t39.5 72.5t66.5 45.5q-70 29 -95 106.5t-25 218.5q0 100 15 173t50 121t91.5 70.5t140.5 22.5q88 0 145 -24.5t91 -74.5t47.5 -129t13.5 -185q0 -129 -28 -202t-93 -97q43 -16 69.5 -47t40 -79t17.5 -113.5t4 -149.5 q0 -227 -68.5 -332t-238.5 -105q-90 0 -148.5 28t-94.5 84t-50.5 143t-14.5 208zM311 422q0 -135 16.5 -198.5t80.5 -63.5q61 0 79.5 63.5t18.5 198.5t-18.5 198.5t-79.5 63.5q-63 0 -80 -63.5t-17 -198.5zM319 1110q0 -109 18.5 -160t70 -51t70 51t18.5 160t-19.5 160 t-68.5 51q-51 0 -70 -51t-19 -160z" />
<glyph unicode="9" d="M98 356v25h215v-94q0 -59 22.5 -91t63.5 -32q90 0 90 168v319q-96 -88 -184 -88q-109 0 -158 78t-49 240v237q0 199 75 295t237 96q145 0 220 -96t75 -293v-694q0 -119 -15.5 -205t-52.5 -142t-98.5 -83t-153.5 -27q-287 0 -287 387zM313 897q0 -76 17.5 -111.5 t58.5 -35.5t100 55v344q0 84 -19 125t-67 41q-90 0 -90 -148v-270z" />
<glyph unicode=":" horiz-adv-x="407" d="M92 0v236h223v-236h-223zM92 559v236h223v-236h-223z" />
<glyph unicode=";" horiz-adv-x="407" d="M92 0v236h223v-236l-125 -260h-94l97 260h-101zM92 559v236h223v-236h-223z" />
<glyph unicode="&#x37e;" horiz-adv-x="407" d="M92 0v236h223v-236l-125 -260h-94l97 260h-101zM92 559v236h223v-236h-223z" />
<glyph unicode="&#x3c;" horiz-adv-x="1705" d="M264 547v129l1178 483v-153l-969 -396l969 -393v-154z" />
<glyph unicode="=" horiz-adv-x="1705" d="M254 342v139h1198v-139h-1198zM254 739v140h1198v-140h-1198z" />
<glyph unicode="&#x3e;" horiz-adv-x="1705" d="M264 63v154l971 393l-971 396v153l1178 -483v-129z" />
<glyph unicode="?" horiz-adv-x="735" d="M33 1266q43 117 123 177t188 60q61 0 113.5 -20.5t90.5 -55t59.5 -84t21.5 -106.5q0 -47 -14.5 -91t-37 -91t-50 -97.5t-54.5 -105.5q-39 -80 -54.5 -164t-15.5 -182v-40q0 -19 3 -40h-187q0 22 -1 42.5t-1 41.5q0 291 64 430l89 194q36 77 36 128q0 72 -58 71 q-68 0 -119 -141zM201 0v236h223v-236h-223z" />
<glyph unicode="@" horiz-adv-x="2048" d="M106 522q0 166 51.5 312.5t151.5 269.5q145 178 349 270t458 92q172 0 316.5 -47t246.5 -125q129 -100 197 -230t68 -284q0 -176 -62.5 -315t-185.5 -236q-70 -55 -151 -83.5t-165 -28.5q-201 0 -200 157v19q-109 -174 -301 -174q-154 0 -234 85t-80 247q0 119 37 220 t101.5 175t151.5 116t187 42q170 0 242 -150l57 115h132l-146 -576q-8 -33 -8 -59q0 -94 100 -94q47 0 101.5 25.5t107.5 76.5q78 74 124 183.5t46 236.5t-49 234.5t-139 184t-217 119.5t-285 43q-264 0 -456.5 -114.5t-297 -299t-104.5 -409.5q0 -178 61.5 -308t192.5 -230 q98 -74 232 -117t292 -43q170 0 329 49t292 141l55 -82q-297 -223 -664 -223q-383 0 -628 186q-306 236 -306 629zM725 446q0 -106 48 -162.5t138 -56.5q96 0 173 67.5t106 180.5l59 236q-16 90 -68.5 137t-129.5 47q-70 0 -129.5 -35t-103.5 -95t-68.5 -142.5t-24.5 -176.5 z" />
<glyph unicode="A" horiz-adv-x="786" d="M39 0l217 1481h285l227 -1481h-223l-37 299h-219l-35 -299h-215zM309 496h178l-81 860h-11z" />
<glyph unicode="B" horiz-adv-x="909" d="M125 0v1481h274q115 0 195 -18.5t130 -62.5t72.5 -119t22.5 -185q0 -131 -32.5 -209t-114.5 -113q90 -35 129 -120t39 -226q0 -227 -100.5 -327.5t-329.5 -100.5h-285zM344 190h78q113 0 153.5 57.5t40.5 196.5q0 125 -43 174.5t-151 49.5h-78v-478zM344 862h66 q109 0 147.5 50.5t38.5 170.5q0 117 -40 164t-142 47h-70v-432z" />
<glyph unicode="C" horiz-adv-x="878" d="M109 500v481q0 268 79.5 398t276.5 130q174 0 265 -114.5t91 -339.5v-74h-223v117q0 113 -30.5 168t-102.5 55t-102.5 -55.5t-30.5 -167.5v-715q0 -113 30.5 -168t102.5 -55t102.5 55t30.5 168v141h223v-94q0 -227 -90 -343t-266 -116q-197 0 -276.5 130.5t-79.5 398.5z " />
<glyph unicode="D" horiz-adv-x="923" d="M125 0v1481h233q125 0 213 -19.5t142.5 -66.5t79 -127t24.5 -203v-662q0 -211 -87 -307t-284 -96h-321zM344 193h62q106 0 147 61t41 203v616q0 123 -39 171t-147 48h-64v-1099z" />
<glyph unicode="E" horiz-adv-x="757" d="M125 0v1481h586v-199h-367v-410h287v-202h-287v-471h401v-199h-620z" />
<glyph unicode="F" horiz-adv-x="763" d="M125 0v1481h631v-199h-398v-408h291v-206h-291v-668h-233z" />
<glyph unicode="G" horiz-adv-x="923" d="M109 500v481q0 268 79.5 398t276.5 130q174 0 265 -114.5t91 -339.5v-54h-223v97q0 113 -30.5 168t-102.5 55t-102.5 -55.5t-30.5 -167.5v-707q0 -113 30.5 -168t102.5 -55t102.5 55.5t30.5 167.5v172h-117v185h340v-748h-104l-53 109q-90 -125 -242 -125 q-168 0 -240.5 127t-72.5 389z" />
<glyph unicode="H" horiz-adv-x="929" d="M125 0v1481h219v-615h242v615h219v-1481h-219v666h-242v-666h-219z" />
<glyph unicode="I" horiz-adv-x="468" d="M125 0v1481h219v-1481h-219z" />
<glyph unicode="J" horiz-adv-x="567" d="M20 -10v205q41 -14 78 -15q76 0 99.5 55.5t23.5 176.5v1069h217v-1098q0 -209 -64.5 -308.5t-232.5 -99.5q-58 1 -121 15z" />
<glyph unicode="K" d="M125 0v1481h219v-617l234 617h217l-226 -529l252 -952h-221l-186 752l-70 -156v-596h-219z" />
<glyph unicode="L" horiz-adv-x="739" d="M125 0v1481h219v-1276h401v-205h-620z" />
<glyph unicode="M" horiz-adv-x="1169" d="M125 0v1481h283l135 -789q12 -68 21 -159t18 -207q6 111 15 201.5t24 162.5l149 791h272v-1481h-184q-2 96 -2 187v180q0 283 8 527.5t25 455.5l-256 -1350h-109l-235 1350q10 -301 15 -637t5 -713h-184z" />
<glyph unicode="N" horiz-adv-x="933" d="M123 0v1481h211l332 -1143q-29 268 -41.5 525t-12.5 509v109h197v-1481h-184l-363 1260q27 -311 40 -623.5t17 -636.5h-196z" />
<glyph unicode="O" horiz-adv-x="929" d="M109 500v481q0 268 79.5 398t276.5 130q195 0 275.5 -130t80.5 -398v-481q0 -268 -79.5 -398.5t-276.5 -130.5t-276.5 130.5t-79.5 398.5zM332 383q0 -113 30.5 -168t102.5 -55t102.5 55t30.5 168v715q0 113 -30.5 168t-102.5 55t-102.5 -55.5t-30.5 -167.5v-715z" />
<glyph unicode="P" horiz-adv-x="872" d="M125 0v1481h272q125 0 210 -19.5t137.5 -69t76 -131t23.5 -206.5q0 -233 -94.5 -336t-309.5 -103h-96v-616h-219zM344 807h72q61 0 101 13.5t62.5 44t32 79.5t9.5 121q0 121 -43 174t-152 53h-82v-485z" />
<glyph unicode="Q" horiz-adv-x="929" d="M109 500v481q0 268 79.5 398t276.5 130q195 0 275.5 -130t80.5 -398v-481q0 -123 -10 -209t-39 -137q16 -27 43 -41.5t62 -22.5v-194q-150 10 -213 135q-90 -59 -199 -60q-197 0 -276.5 130.5t-79.5 398.5zM332 383q0 -113 30.5 -168t102.5 -55q51 0 92 45 q-18 76 -102 108v199q82 -18 143 -119v705q0 113 -30.5 168t-102.5 55t-102.5 -55.5t-30.5 -167.5v-715z" />
<glyph unicode="R" horiz-adv-x="886" d="M125 0v1481h242q125 0 212 -20.5t139 -70t75.5 -133t23.5 -208.5q0 -147 -40 -239.5t-132 -139.5l195 -670h-226l-174 623h-96v-623h-219zM344 813h53q113 0 155 54.5t42 193.5q0 125 -38 178t-140 53h-72v-479z" />
<glyph unicode="S" horiz-adv-x="739" d="M45 385l209 31v-13q0 -241 124 -241h1q53 0 84 42t31 122q0 57 -21.5 109t-62.5 110q-80 109 -155 192.5t-118 161.5q-76 139 -76 258q0 166 84 260t226 94q145 0 229 -95t90 -275l-198 -25q-4 104 -33 153.5t-88 49.5q-41 0 -70 -37t-29 -100q0 -51 26 -114.5t79 -129.5 l133 -164q61 -76 106 -145q88 -137 89 -303q0 -80 -25 -144.5t-68 -111.5t-102 -73t-131 -26q-147 0 -234.5 105.5t-99.5 308.5z" />
<glyph unicode="T" horiz-adv-x="659" d="M16 1292v189h625v-189h-203v-1292h-219v1292h-203z" />
<glyph unicode="U" horiz-adv-x="931" d="M125 463v1018h219v-1078q0 -117 26.5 -172t96.5 -55t96.5 55.5t26.5 171.5v1078h217v-1018q0 -127 -16.5 -219t-56.5 -151.5t-105.5 -89.5t-161.5 -30t-161.5 30t-105.5 89.5t-57.5 151.5t-17.5 219z" />
<glyph unicode="V" horiz-adv-x="772" d="M29 1481h211l100 -764q20 -147 34.5 -281.5t22.5 -259.5q10 170 22.5 304t24.5 239l97 762h215l-250 -1481h-219z" />
<glyph unicode="W" horiz-adv-x="1095" d="M16 1481h199l84 -776q4 -29 9 -153t20 -349q6 135 18 261l25 245l86 772h184l100 -764q6 -43 18.5 -170t28.5 -344q6 178 14.5 306t16.5 208l78 764h195l-203 -1481h-193l-100 752q-16 127 -26.5 262t-16.5 282q-16 -233 -28.5 -369t-16.5 -177l-90 -750h-187z" />
<glyph unicode="X" horiz-adv-x="735" d="M8 0l238 776l-217 705h211l131 -549l129 549h215l-219 -707l235 -774h-207l-151 629l-152 -629h-213z" />
<glyph unicode="Y" horiz-adv-x="720" d="M-6 1481h229l139 -670l144 670h219l-258 -877v-604h-219v606z" />
<glyph unicode="Z" horiz-adv-x="753" d="M35 0v190l430 1092h-397v199h626v-193l-428 -1089h428v-199h-659z" />
<glyph unicode="[" horiz-adv-x="530" d="M137 -104v1585h383v-164h-192v-1258h192v-163h-383z" />
<glyph unicode="\" horiz-adv-x="569" d="M-49 1509h143l580 -1699h-144z" />
<glyph unicode="]" horiz-adv-x="530" d="M10 59h193v1258h-193v164h383v-1585h-383v163z" />
<glyph unicode="^" horiz-adv-x="2048" d="M420 901l510 557h186l510 -557h-180l-422 420l-424 -420h-180z" />
<glyph unicode="_" horiz-adv-x="1024" d="M0 -340h1024v-143h-1024v143z" />
<glyph unicode="`" horiz-adv-x="1024" d="M274 1577h179l163 -348h-104z" />
<glyph unicode="a" horiz-adv-x="784" d="M57 246q0 164 104.5 280.5t319.5 212.5v60q0 74 -23.5 109.5t-76.5 35.5t-83 -40t-32 -105h-194q10 154 96 235.5t233 81.5q158 0 221.5 -89t63.5 -282v-505q0 -150 21 -240h-201l-21 111q-90 -123 -211 -123q-98 0 -157.5 68.5t-59.5 189.5zM260 299q0 -59 25.5 -92 t66.5 -33q66 0 129 88v305q-113 -55 -167 -119.5t-54 -148.5z" />
<glyph unicode="b" horiz-adv-x="802" d="M109 0v1481h204v-480q90 115 191 115q205 0 205 -336v-448q0 -176 -46.5 -263t-150.5 -87q-106 0 -199 116v-98h-204zM313 231q59 -59 109 -59q51 0 65.5 50t14.5 167v356q0 92 -18.5 136.5t-67.5 44.5q-45 0 -103 -52v-643z" />
<glyph unicode="c" horiz-adv-x="782" d="M96 371v354q0 391 299 391q147 0 229.5 -89t82.5 -261v-49h-197v76q0 78 -24.5 113.5t-80 35.5t-80 -36t-24.5 -113v-488q0 -78 24.5 -114.5t80 -36.5t80 36.5t24.5 114.5v78h197v-64q0 -164 -82 -251.5t-230 -87.5q-299 0 -299 391z" />
<glyph unicode="d" horiz-adv-x="802" d="M94 332v448q0 336 207 336q98 0 188 -115v480h205v-1481h-205v98q-91 -116 -196 -116h-2q-104 0 -150.5 87t-46.5 263zM301 389q0 -115 14.5 -166t65.5 -51q27 0 52.5 15.5t55.5 43.5v643q-57 51 -102 52q-49 0 -67.5 -44t-18.5 -137v-356z" />
<glyph unicode="e" horiz-adv-x="788" d="M96 371v354q0 199 75 295t237 96q311 0 311 -438v-166h-418v-207q0 -78 24.5 -114.5t80 -36.5t80 36.5t24.5 114.5v78h197v-64q0 -164 -82 -251.5t-230 -87.5q-299 0 -299 391zM301 684h209v109q0 78 -24.5 113.5t-80 35.5t-80 -36t-24.5 -113v-109z" />
<glyph unicode="f" horiz-adv-x="530" d="M45 930v170h121v139q0 70 11 119t38 78.5t71 43t109 13.5h107v-166h-45q-55 0 -71.5 -25.5t-16.5 -89.5v-112h127v-170h-127v-930h-203v930h-121z" />
<glyph unicode="g" horiz-adv-x="753" d="M39 -160q0 117 178 178q-115 31 -115 125q0 92 117 170q-84 45 -113.5 135.5t-29.5 239.5q0 221 71.5 324.5t235.5 103.5q145 0 213 -98q51 96 158 96h14v-178q-12 2 -24.5 3t-22.5 1q-49 0 -82 -25q10 -39 15 -91t5 -119q0 -418 -286 -418h-21q-10 0 -20 2 q-47 -29 -47 -68q0 -16 15 -29.5t44 -17.5l142 -17q60 -7 98 -24q90 -35 133 -86t43 -127q0 -121 -102.5 -198.5t-282.5 -77.5q-166 0 -251 52t-85 144zM236 -117q0 -100 167 -100q80 0 126 31.5t46 74.5q0 49 -54 73t-169 32q-57 -16 -86.5 -46t-29.5 -65zM274 702.5 q0 -131.5 15.5 -190.5t75 -59t75 59t15.5 190.5t-15.5 190.5t-75 59t-75 -59t-15.5 -190.5z" />
<glyph unicode="h" horiz-adv-x="811" d="M109 0v1481h204v-504q49 66 106.5 102.5t108.5 36.5q113 0 150 -84t37 -254v-778h-205v786q0 72 -17.5 106t-64.5 34q-25 0 -55.5 -19.5t-59.5 -58.5v-848h-204z" />
<glyph unicode="i" horiz-adv-x="432" d="M115 0v1100h202v-1100h-202zM115 1274v207h202v-207h-202z" />
<glyph unicode="j" horiz-adv-x="432" d="M0 -164h25q63 0 76.5 37t13.5 127v1100h202v-1100q0 -92 -9 -157.5t-34.5 -107.5t-73.5 -61.5t-126 -19.5h-36q-19 0 -38 2v180zM115 1274v207h202v-207h-202z" />
<glyph unicode="k" horiz-adv-x="782" d="M109 0v1481h204v-789l238 408h219l-242 -369l256 -731h-202l-195 596l-74 -123v-473h-204z" />
<glyph unicode="l" horiz-adv-x="432" d="M115 0v1481h202v-1481h-202z" />
<glyph unicode="m" horiz-adv-x="1159" d="M109 0v1100h192v-135q55 72 109.5 111.5t103.5 39.5q66 0 104.5 -40t55.5 -111q55 72 110.5 111.5t104.5 39.5q104 0 138 -86t34 -252v-778h-203v786q0 72 -16.5 104t-57.5 32q-47 0 -96 -74v-848h-205v786q0 72 -16 104t-57 32q-47 0 -97 -74v-848h-204z" />
<glyph unicode="n" horiz-adv-x="811" d="M109 0v1100h192v-135q59 72 116.5 111.5t110.5 39.5q113 0 150 -84t37 -254v-778h-205v786q0 72 -17.5 106t-64.5 34q-25 0 -55.5 -19.5t-59.5 -58.5v-848h-204z" />
<glyph unicode="o" horiz-adv-x="811" d="M96 371v354q0 199 75 295t234.5 96t234.5 -96t75 -295v-354q0 -199 -75 -295t-234.5 -96t-234.5 96t-75 295zM301 305q0 -78 24.5 -114.5t80 -36.5t80 36.5t24.5 114.5v488q0 78 -24.5 113.5t-80 35.5t-80 -36t-24.5 -113v-488z" />
<glyph unicode="p" horiz-adv-x="802" d="M109 -344v1446h196v-111q94 125 207 125q104 0 150.5 -85t46.5 -261v-451q0 -335 -204 -335h-1q-98 0 -191 116v-444h-204zM313 227q57 -51 103 -51q49 0 67.5 44t18.5 136v355q0 115 -14.5 166t-65.5 51q-49 0 -109 -58v-643z" />
<glyph unicode="q" horiz-adv-x="802" d="M94 319v451q0 176 46 261t151 85q115 0 207 -125v111h196v-1446h-205v444q-91 -116 -186 -116h-2h-1q-206 0 -206 335zM301 356q0 -92 18.5 -136t67.5 -44q45 0 102 51v643q-59 57 -108 58q-51 0 -65.5 -51.5t-14.5 -165.5v-355z" />
<glyph unicode="r" horiz-adv-x="544" d="M109 0v1100h190v-146q41 80 96.5 119t141.5 43v-221q-23 6 -45.5 8t-47.5 2q-41 0 -66.5 -11t-39.5 -35.5t-19.5 -61.5t-5.5 -88v-709h-204z" />
<glyph unicode="s" horiz-adv-x="649" d="M49 303l180 16v-10q0 -159 97 -159q39 0 64.5 29.5t25.5 80.5q0 59 -44 116.5t-120 131.5l-73 75q-34 36 -58.5 75.5t-37.5 86t-13 105.5q0 129 69.5 197.5t198.5 68.5q117 0 187.5 -73.5t78.5 -215.5l-178 -14q-4 74 -23.5 108.5t-64.5 34.5q-84 0 -84 -90 q0 -66 37 -111.5t96 -103.5q49 -47 90 -91t69.5 -89t44 -95t15.5 -108q0 -66 -20.5 -118t-56 -89.5t-86 -58t-111.5 -20.5h-2q-275 0 -281 321z" />
<glyph unicode="t" horiz-adv-x="532" d="M23 928v172h118v295h205v-295h146v-172h-146v-606q0 -82 13.5 -120t70.5 -38q16 0 31.5 1t34.5 3v-166q-55 -18 -113 -18q-74 0 -121 18t-73.5 60t-37 109t-10.5 163v594h-118z" />
<glyph unicode="u" horiz-adv-x="811" d="M96 322v778h205v-787q0 -72 17.5 -105.5t64.5 -33.5q27 0 56.5 19.5t58.5 58.5v848h202v-1100h-190v135q-117 -145 -227 -145q-57 0 -93 20.5t-56.5 61.5t-29 103.5t-8.5 146.5z" />
<glyph unicode="v" horiz-adv-x="679" d="M31 1100h196l90 -637q6 -41 14.5 -128t18.5 -222q14 223 31 348l78 639h194l-207 -1100h-196z" />
<glyph unicode="w" horiz-adv-x="985" d="M25 1100h182l72 -604q6 -51 13 -142.5t15 -226.5q12 154 21.5 247t13.5 122l82 604h145l86 -608q4 -25 14.5 -115t26.5 -250q4 106 10.5 196.5t16.5 165.5l70 611h174l-187 -1100h-159l-86 539q-6 41 -16.5 143t-22.5 268q-29 -354 -37 -409l-80 -541h-164z" />
<glyph unicode="x" horiz-adv-x="661" d="M12 0l207 590l-186 510h192l86 -264q23 -72 25 -156q2 78 22 156l70 264h203l-182 -514l202 -586h-194l-103 348q-6 20 -11 58t-9 98q-4 -57 -9.5 -96t-11.5 -60l-102 -348h-199z" />
<glyph unicode="y" horiz-adv-x="663" d="M27 1100h198l129 -922l101 922h194l-211 -1123q-16 -88 -40.5 -151.5t-61.5 -104t-90 -60t-127 -19.5q-14 0 -29.5 1t-36.5 3v184q27 -6 53 -6q133 0 134 180q0 47 -13 113l-28 151z" />
<glyph unicode="z" horiz-adv-x="634" d="M39 0v154l334 774h-303v172h516v-172l-328 -758h336v-170h-555z" />
<glyph unicode="{" horiz-adv-x="1024" d="M168 457v149q12 0 23.5 -1t21.5 -1q131 0 184.5 61.5t53.5 206.5v246q0 117 16 191.5t84 115.5q51 31 118.5 41.5t159.5 10.5h37v-150h-41q-63 0 -103 -11t-61.5 -38t-29.5 -71t-8 -109v-242q0 -72 -8.5 -125t-30 -93t-61.5 -65.5t-101 -42.5q63 -16 102 -41.5 t60.5 -65.5t30 -93.5t8.5 -124.5v-242q0 -66 7 -109.5t29.5 -70.5t62.5 -38t105 -11h39v-148h-43q-90 0 -156.5 9.5t-115.5 39.5q-68 41 -84 116t-16 192v245q0 145 -53.5 208t-186.5 63q-10 0 -21.5 -1t-21.5 -1z" />
<glyph unicode="|" horiz-adv-x="1024" d="M438 -483v2048h150v-2048h-150z" />
<glyph unicode="}" horiz-adv-x="1024" d="M160 -266h39q63 0 104 11t62.5 38t29.5 72t8 110v240q0 72 8.5 125t30 93t61.5 65.5t101 41.5q-61 16 -101 42t-61.5 66t-30 93t-8.5 125v242q0 66 -8 109.5t-29.5 70.5t-62.5 38t-104 11h-39v150h37q92 0 160.5 -10.5t117.5 -41.5q68 -41 84 -115.5t16 -191.5v-246 q0 -74 12.5 -124t40 -82.5t74 -47t111.5 -14.5q10 0 21.5 1t23.5 1v-149q-10 0 -21.5 1t-21.5 1q-135 0 -187.5 -62.5t-52.5 -208.5v-245q0 -117 -16 -192t-84 -116q-49 -31 -115.5 -40t-156.5 -9h-43v148z" />
<glyph unicode="~" horiz-adv-x="1705" d="M178 451v155q211 143 387 144q80 0 150.5 -18.5t140.5 -43.5l145 -49q70 -23 142 -23q96 0 188 39t199 115v-156q-102 -72 -196.5 -106.5t-192.5 -34.5q-78 0 -148 23l-141 47q-72 25 -141.5 45t-147.5 20q-92 0 -183 -39.5t-202 -117.5z" />
<glyph unicode="&#xa1;" horiz-adv-x="483" d="M115 0l55 1063h141l58 -1063h-254zM129 1247v234h223v-234h-223z" />
<glyph unicode="&#xa2;" d="M109 602v316q0 184 61 280t195 115v157h104v-159q246 -41 246 -363v-30h-170q-2 111 -18.5 167t-57.5 60v-789q41 10 55.5 65.5t16.5 164.5h176q0 -10 1 -22.5t1 -22.5q0 -164 -63.5 -254t-186.5 -103v-235h-104v229q-141 16 -198.5 117.5t-57.5 306.5zM281 788 q0 -211 12 -316t72 -114v787q-59 -8 -71.5 -95.5t-12.5 -261.5z" />
<glyph unicode="&#xa3;" d="M94 -20v225q78 37 112 123t34 229q0 25 -1 50.5t-3 54.5h-138v169h115l-32 188q-13 79 -13 132q0 174 80 267t219 93q145 0 224 -94t79 -274q0 -10 -1 -21.5t-1 -23.5h-188v24q0 197 -103 197q-49 0 -77.5 -34t-28.5 -97q0 -53 16 -141.5t31 -215.5h190v-169h-174 q4 -29 4 -55v-50q0 -182 -61 -313q35 -29 63.5 -45.5t57.5 -16.5q57 0 79.5 55.5t24.5 172.5h184q2 -18 2 -36v-34q0 -182 -65.5 -273.5t-187.5 -91.5q-119 0 -240 113q-76 -90 -201 -108z" />
<glyph unicode="&#xa4;" d="M20 545l13 102h90v172h-98l12 105h86v135q0 231 71.5 340.5t237.5 109.5t235.5 -109.5t73.5 -340.5v-25h-215v64q0 113 -20.5 168t-73.5 55t-73.5 -55.5t-20.5 -167.5v-174h217l-12 -105h-205v-172h182l-12 -102h-170v-162q0 -113 20.5 -168t73.5 -55t73.5 55t20.5 168 v72h215v-33q-2 -115 -19 -200t-54 -140t-95.5 -83t-140.5 -28q-166 0 -237.5 109.5t-71.5 341.5v123h-103z" />
<glyph unicode="&#xa5;" d="M8 606v105h266l-51 170h-215v104h187l-146 496h223l144 -699l137 699h213l-148 -496h191v-104h-221l-51 -170h272v-105h-301v-606h-205v606h-295z" />
<glyph unicode="&#xa6;" horiz-adv-x="1024" d="M438 -350v758h150v-758h-150zM438 674v758h150v-758h-150z" />
<glyph unicode="&#xa7;" horiz-adv-x="757" d="M41 801q0 94 50 157.5t140 79.5q-43 59 -65.5 110.5t-22.5 111.5q0 113 66.5 181t177.5 68q162 0 270 -163l-118 -105q-41 53 -73 79t-75 26q-35 0 -56.5 -26t-21.5 -67q0 -45 30 -87t79 -101l158 -182q76 -88 113.5 -165t37.5 -161q0 -197 -186 -235q92 -121 92 -248 q0 -121 -70.5 -195t-181.5 -74q-84 0 -156.5 46.5t-126.5 136.5l121 108q41 -59 76 -90t74 -31q41 0 67.5 29t26.5 78q0 53 -29.5 96t-72.5 96l-175 213q-70 84 -109.5 156t-39.5 158zM209 825.5q0 -34.5 28.5 -86t81.5 -123.5q57 -78 95.5 -118.5t79.5 -40.5q29 0 49 20.5 t20 54.5q0 45 -30.5 95.5t-79.5 117.5q-55 78 -94.5 119t-73.5 41q-31 0 -53.5 -22.5t-22.5 -57z" />
<glyph unicode="&#xa8;" horiz-adv-x="1024" d="M295 1278v229h164v-229h-164zM565 1278v229h164v-229h-164z" />
<glyph unicode="&#xa9;" horiz-adv-x="1705" d="M117 727q0 147 55 280.5t164 243.5q104 104 235 158.5t281 54.5q152 0 285 -54t239 -161q104 -104 159.5 -238t55.5 -284q0 -152 -54 -283t-159 -233q-111 -106 -245 -163.5t-281.5 -57.5t-279.5 56t-238.5 162.5t-161.5 239t-55 279.5zM213 727q0 -127 49 -242.5 t141.5 -208t207 -140.5t243.5 -48q127 0 242.5 49t212.5 142q90 88 137 201.5t47 246.5q0 131 -47 247t-137 206q-188 188 -455 188q-131 0 -244.5 -47t-204.5 -137q-94 -94 -143 -212t-49 -245zM463 733q0 100 28.5 183t81 140.5t125 89.5t160.5 32q72 0 132.5 -19.5 t105.5 -55.5t71.5 -86t32.5 -110h-147q-12 78 -65.5 119t-139.5 41q-102 0 -163.5 -87t-61.5 -253q0 -160 62.5 -246t172.5 -86q82 0 136.5 46t68.5 130h145q-10 -131 -107 -211.5t-249 -80.5q-180 0 -284.5 118.5t-104.5 335.5z" />
<glyph unicode="&#xaa;" horiz-adv-x="587" d="M43 883q0 117 78 197.5t239 148.5v41q0 53 -16 77.5t-57 24.5t-63.5 -27.5t-22.5 -74.5h-148q8 106 72.5 163.5t175.5 57.5q119 0 166 -61.5t47 -196.5v-354q0 -96 16 -168h-151l-14 77q-68 -86 -158 -86q-74 0 -119 47.5t-45 133.5zM195 920q0 -41 19 -65t50 -24 q49 0 96 64v213q-84 -39 -124.5 -84t-40.5 -104z" />
<glyph unicode="&#xab;" horiz-adv-x="782" d="M70 543l170 309h161l-168 -309l168 -312h-161zM387 543l170 309h162l-168 -309l168 -312h-162z" />
<glyph unicode="&#xac;" horiz-adv-x="1705" d="M254 721v139h1198v-502h-137v363h-1061z" />
<glyph unicode="&#xad;" horiz-adv-x="473" d="M29 485v177h417v-177h-417z" />
<glyph unicode="&#xae;" horiz-adv-x="1705" d="M117 727q0 147 57 282.5t166 245.5q102 104 232 156.5t280 52.5q152 0 286 -55t240 -164q102 -104 157.5 -237.5t55.5 -280.5q0 -154 -55 -285t-160 -233q-111 -106 -245 -162.5t-279 -56.5q-147 0 -280.5 56t-239.5 165q-104 106 -159.5 237.5t-55.5 278.5zM213 727 q0 -127 48 -241.5t140.5 -207t208 -141.5t238.5 -49q131 0 246.5 48t212.5 140q92 88 139 202t47 243q0 135 -46 250.5t-136 206.5q-92 94 -208 142t-249 48q-129 0 -243.5 -46t-202.5 -136q-94 -96 -144.5 -214t-50.5 -245zM557 324v835h315q348 0 349 -229 q0 -90 -49.5 -148.5t-141.5 -76.5l187 -381h-177l-170 356h-155v-356h-158zM715 780h133q109 0 160 30t51 103q0 78 -52.5 111t-162.5 33h-129v-277z" />
<glyph unicode="&#xaf;" horiz-adv-x="1024" d="M291 1319v147h442v-147h-442z" />
<glyph unicode="&#x2c9;" horiz-adv-x="1024" d="M291 1319v147h442v-147h-442z" />
<glyph unicode="&#xb0;" horiz-adv-x="673" d="M49 1167q0 61 22.5 113.5t62.5 91.5t92.5 61.5t111.5 22.5t111.5 -22.5t91.5 -61.5t61.5 -92t22.5 -112.5t-22.5 -110.5t-60.5 -91t-91.5 -62.5t-115 -22.5t-113.5 22.5t-90 61.5t-60.5 91t-22.5 111zM143 1169q0 -82 56.5 -139t138.5 -57q41 0 77 15.5t61.5 43t39.5 62 t14 75.5q0 80 -55 136.5t-137 56.5q-41 0 -76 -14.5t-61.5 -41t-42 -61.5t-15.5 -76z" />
<glyph unicode="&#xb1;" horiz-adv-x="1705" d="M254 29v141h1198v-141h-1198zM254 713v139h528v340h142v-340h528v-139h-528v-340h-142v340h-528z" />
<glyph unicode="&#xb2;" horiz-adv-x="538" d="M53 592v104q125 203 198 345.5t73 252.5q0 88 -60 88q-68 0 -67 -125q0 -6 1 -13t1 -15h-131q0 8 -1 15t-1 16q0 117 56 178t150 61q86 0 138.5 -55t52.5 -152q0 -117 -68.5 -258t-187.5 -327h244v-115h-398z" />
<glyph unicode="&#xb3;" horiz-adv-x="538" d="M55 805v20q0 10 2 21h136v-31q0 -66 13 -96.5t48 -30.5q61 0 61 127q0 51 -3 86t-14 57.5t-33.5 32.5t-59.5 10h-17v117h13q66 0 88 31t22 98q0 70 -12 103.5t-47 33.5q-57 0 -57 -108q0 -8 1 -14.5t1 -14.5h-134q0 8 -1 16.5t-1 14.5q0 219 191 219q111 0 152.5 -57.5 t41.5 -186.5q0 -84 -20 -128t-80 -60q68 -20 88.5 -72.5t20.5 -150.5q0 -135 -46.5 -201t-148.5 -66q-205 1 -205 230z" />
<glyph unicode="&#xb4;" horiz-adv-x="1024" d="M408 1229l163 348h179l-238 -348h-104z" />
<glyph unicode="&#xb5;" horiz-adv-x="1150" d="M-113 -428l318 1499h180l-129 -600q-14 -63 -14 -133q0 -100 52 -153.5t148 -53.5q137 0 212 98.5t120 305.5l115 536h178l-156 -731q-10 -45 -16 -78t-6 -55q0 -37 16.5 -52.5t55.5 -15.5h15q7 0 17 2l-30 -143q-29 -6 -55.5 -8t-53.5 -2q-66 0 -98.5 29.5t-50.5 99.5 q-88 -131 -271 -131q-82 0 -142.5 27.5t-113.5 88.5l-110 -530h-181z" />
<glyph unicode="&#x3bc;" horiz-adv-x="1150" d="M-113 -428l318 1499h180l-129 -600q-14 -63 -14 -133q0 -100 52 -153.5t148 -53.5q137 0 212 98.5t120 305.5l115 536h178l-156 -731q-10 -45 -16 -78t-6 -55q0 -37 16.5 -52.5t55.5 -15.5h15q7 0 17 2l-30 -143q-29 -6 -55.5 -8t-53.5 -2q-66 0 -98.5 29.5t-50.5 99.5 q-88 -131 -271 -131q-82 0 -142.5 27.5t-113.5 88.5l-110 -530h-181z" />
<glyph unicode="&#xb6;" horiz-adv-x="1024" d="M66 1130q0 76 27.5 140.5t78.5 110.5t124 72t163 26h499v-86h-120v-1393h-111v1393h-178v-1393h-111v782q-174 8 -273 103t-99 245z" />
<glyph unicode="&#xb7;" horiz-adv-x="407" d="M88 741q0 49 35 82t82 33q49 0 81.5 -32.5t32.5 -82.5q0 -47 -33.5 -81.5t-80.5 -34.5t-82 35.5t-35 80.5z" />
<glyph unicode="&#x2219;" horiz-adv-x="407" d="M88 741q0 49 35 82t82 33q49 0 81.5 -32.5t32.5 -82.5q0 -47 -33.5 -81.5t-80.5 -34.5t-82 35.5t-35 80.5z" />
<glyph unicode="&#xb8;" horiz-adv-x="1024" d="M295 -315q129 -43 205 -43q49 0 75.5 21.5t26.5 57.5q0 76 -121 76q-8 0 -16 -1t-19 -1v205h76v-94h13q201 0 200 -193q0 -88 -57 -138t-166 -50t-217 41v119z" />
<glyph unicode="&#xb9;" horiz-adv-x="538" d="M82 1309v77q94 33 176 107h88v-901h-137v717h-127z" />
<glyph unicode="&#xba;" horiz-adv-x="608" d="M72 971v248q0 139 56 205.5t177 66.5q231 0 232 -272v-248q0 -141 -55.5 -208t-176.5 -67t-177 67t-56 208zM225 924q0 -106 80 -107q78 0 78 107v342q0 104 -78 104q-80 0 -80 -104v-342z" />
<glyph unicode="&#xbb;" horiz-adv-x="782" d="M63 231l166 312l-166 309h162l170 -309l-172 -312h-160zM379 231l168 312l-168 309h162l172 -309l-172 -312h-162z" />
<glyph unicode="&#xbc;" horiz-adv-x="1370" d="M78 1319v74q45 16 86 40.5t82 59.5h84v-842h-131v668h-121zM203 -25l817 1518h145l-815 -1518h-147zM899 176v113l221 540h140v-550h83v-103h-83v-176h-127v176h-234zM997 279h136v217q0 45 24 186z" />
<glyph unicode="&#xbd;" horiz-adv-x="1370" d="M78 1319v74q45 16 86 40.5t82 59.5h84v-842h-131v668h-121zM203 -25l817 1518h145l-815 -1518h-147zM907 0v98q119 188 188.5 321.5t69.5 235.5q0 84 -57 84q-63 0 -64 -116q0 -6 1.5 -13.5t1.5 -13.5h-127v27q0 109 53 167t143 58q82 0 132 -52.5t50 -142.5 q0 -111 -66.5 -241.5t-178.5 -305.5h233v-106h-379z" />
<glyph unicode="&#xbe;" horiz-adv-x="1368" d="M53 850v39h131v-31q0 -117 58 -117q59 0 59 117q0 96 -17.5 135t-88.5 39h-15v111h13q61 0 83.5 28.5t22.5 92.5q0 66 -12.5 96.5t-46.5 30.5q-53 0 -54 -101v-28h-125q0 10 -1 17t-1 13q0 205 183 205q104 0 144 -54t40 -175q0 -78 -20.5 -119t-75.5 -55 q66 -20 85 -68.5t19 -140.5q0 -127 -44 -188.5t-142 -61.5q-195 0 -195 215zM203 -25l817 1518h145l-815 -1518h-147zM899 176v113l221 540h140v-550h83v-103h-83v-176h-127v176h-234zM997 279h136v217q0 45 24 186z" />
<glyph unicode="&#xbf;" horiz-adv-x="735" d="M96 244q0 45 14.5 91t37 93t50 97t54.5 106q39 82 54.5 165t15.5 179v40q0 19 -3 40h187q0 -23 1 -43.5t1 -40.5q0 -291 -64 -430l-89 -193q-36 -76 -36 -127q0 -72 58 -71q72 0 121 139l194 -72q-43 -117 -121.5 -178.5t-189.5 -61.5q-61 0 -113.5 20.5t-90.5 55.5 t-59.5 84.5t-21.5 106.5zM301 1247v234h223v-234h-223z" />
<glyph unicode="&#xc0;" horiz-adv-x="786" d="M39 0l217 1481h285l227 -1481h-223l-37 299h-219l-35 -299h-215zM158 1968h178l164 -348h-105zM309 496h178l-81 860h-11z" />
<glyph unicode="&#xc1;" horiz-adv-x="786" d="M39 0l217 1481h285l227 -1481h-223l-37 299h-219l-35 -299h-215zM291 1620l164 348h178l-238 -348h-104zM309 496h178l-81 860h-11z" />
<glyph unicode="&#xc2;" horiz-adv-x="786" d="M39 0l217 1481h285l227 -1481h-223l-37 299h-219l-35 -299h-215zM158 1620l151 348h172l152 -348h-105l-133 209l-133 -209h-104zM309 496h178l-81 860h-11z" />
<glyph unicode="&#xc3;" horiz-adv-x="786" d="M39 0l217 1481h285l227 -1481h-223l-37 299h-219l-35 -299h-215zM156 1657q31 219 153 219q31 0 68 -14l69 -25q10 -4 18.5 -6t18.5 -2q55 0 72 76h80q-18 -115 -56 -170.5t-104 -55.5q-23 0 -53 11l-68 22q-35 12 -49 12q-51 0 -69 -67h-80zM309 496h178l-81 860h-11z " />
<glyph unicode="&#xc4;" horiz-adv-x="786" d="M39 0l217 1481h285l227 -1481h-223l-37 299h-219l-35 -299h-215zM178 1669v229h164v-229h-164zM309 496h178l-81 860h-11zM449 1669v229h163v-229h-163z" />
<glyph unicode="&#xc5;" horiz-adv-x="786" d="M39 0l215 1466q-55 35 -85 91.5t-30 123.5q0 53 20.5 100.5t55.5 82t82 55t100 20.5q55 0 102.5 -20.5t82 -55t54 -81.5t19.5 -101q0 -139 -114 -213l227 -1468h-223l-37 299h-219l-35 -299h-215zM270 1679.5q0 -53.5 37 -90.5t90.5 -37t91 37t37.5 90.5t-37.5 91 t-91 37.5t-90.5 -37.5t-37 -91zM309 496h178l-81 860h-11z" />
<glyph unicode="&#xc6;" horiz-adv-x="1214" d="M-49 0l487 1481h729v-199h-368v-410h286v-202h-286v-471h401v-199h-620v354h-301l-107 -354h-221zM338 555h242v727h-33z" />
<glyph unicode="&#xc7;" horiz-adv-x="878" d="M109 500v481q0 268 79.5 398t276.5 130q174 0 265 -114.5t91 -339.5v-74h-223v117q0 113 -30.5 168t-102.5 55t-102.5 -55.5t-30.5 -167.5v-715q0 -113 30.5 -168t102.5 -55t102.5 55t30.5 168v141h223v-94q0 -227 -90 -343t-266 -116q-197 0 -276.5 130.5t-79.5 398.5z M242 -315q129 -43 204 -43q49 0 76 21.5t27 57.5q0 76 -121 76q-8 0 -16.5 -1t-18.5 -1v205h76v-94h12q201 0 201 -193q0 -88 -57.5 -138t-166 -50t-216.5 41v119z" />
<glyph unicode="&#xc8;" horiz-adv-x="757" d="M125 0v1481h586v-199h-367v-410h287v-202h-287v-471h401v-199h-620zM182 1968h178l164 -348h-104z" />
<glyph unicode="&#xc9;" horiz-adv-x="757" d="M125 0v1481h586v-199h-367v-410h287v-202h-287v-471h401v-199h-620zM315 1620l164 348h178l-237 -348h-105z" />
<glyph unicode="&#xca;" horiz-adv-x="757" d="M125 0v1481h586v-199h-367v-410h287v-202h-287v-471h401v-199h-620zM182 1620l152 348h172l151 -348h-104l-133 209l-133 -209h-105z" />
<glyph unicode="&#xcb;" horiz-adv-x="757" d="M125 0v1481h586v-199h-367v-410h287v-202h-287v-471h401v-199h-620zM203 1669v229h164v-229h-164zM473 1669v229h164v-229h-164z" />
<glyph unicode="&#xcc;" horiz-adv-x="468" d="M0 1968h178l164 -348h-104zM125 0v1481h219v-1481h-219z" />
<glyph unicode="&#xcd;" horiz-adv-x="468" d="M125 0v1481h219v-1481h-219zM133 1620l164 348h178l-237 -348h-105z" />
<glyph unicode="&#xce;" horiz-adv-x="468" d="M0 1620l152 348h172l151 -348h-104l-133 209l-134 -209h-104zM125 0v1481h219v-1481h-219z" />
<glyph unicode="&#xcf;" horiz-adv-x="468" d="M20 1669v229h164v-229h-164zM125 0v1481h219v-1481h-219zM291 1669v229h164v-229h-164z" />
<glyph unicode="&#xd0;" horiz-adv-x="944" d="M18 690v160h125v631h234q125 0 213 -19.5t142 -66.5t79 -127t25 -203v-662q0 -211 -86 -307t-283 -96h-324v690h-125zM362 193h64q106 0 146 61t40 203v616q0 123 -38.5 171t-147.5 48h-64v-442h121v-160h-121v-497z" />
<glyph unicode="&#xd1;" horiz-adv-x="933" d="M123 0v1481h211l332 -1143q-29 268 -41.5 525t-12.5 509v109h197v-1481h-184l-363 1260q27 -311 40 -623.5t17 -636.5h-196zM229 1657q31 219 154 219q31 0 68 -14l69 -25q10 -4 18.5 -6t18.5 -2q55 0 72 76h80q-18 -115 -56.5 -170.5t-103.5 -55.5q-23 0 -53 11l-68 22 q-35 12 -49 12q-51 0 -70 -67h-80z" />
<glyph unicode="&#xd2;" horiz-adv-x="929" d="M109 500v481q0 268 79.5 398t276.5 130q195 0 275.5 -130t80.5 -398v-481q0 -268 -79.5 -398.5t-276.5 -130.5t-276.5 130.5t-79.5 398.5zM229 1968h179l163 -348h-104zM332 383q0 -113 30.5 -168t102.5 -55t102.5 55t30.5 168v715q0 113 -30.5 168t-102.5 55 t-102.5 -55.5t-30.5 -167.5v-715z" />
<glyph unicode="&#xd3;" horiz-adv-x="929" d="M109 500v481q0 268 79.5 398t276.5 130q195 0 275.5 -130t80.5 -398v-481q0 -268 -79.5 -398.5t-276.5 -130.5t-276.5 130.5t-79.5 398.5zM332 383q0 -113 30.5 -168t102.5 -55t102.5 55t30.5 168v715q0 113 -30.5 168t-102.5 55t-102.5 -55.5t-30.5 -167.5v-715z M362 1620l164 348h179l-238 -348h-105z" />
<glyph unicode="&#xd4;" horiz-adv-x="929" d="M109 500v481q0 268 79.5 398t276.5 130q195 0 275.5 -130t80.5 -398v-481q0 -268 -79.5 -398.5t-276.5 -130.5t-276.5 130.5t-79.5 398.5zM229 1620l152 348h172l152 -348h-105l-133 209l-133 -209h-105zM332 383q0 -113 30.5 -168t102.5 -55t102.5 55t30.5 168v715 q0 113 -30.5 168t-102.5 55t-102.5 -55.5t-30.5 -167.5v-715z" />
<glyph unicode="&#xd5;" horiz-adv-x="929" d="M109 500v481q0 268 79.5 398t276.5 130q195 0 275.5 -130t80.5 -398v-481q0 -268 -79.5 -398.5t-276.5 -130.5t-276.5 130.5t-79.5 398.5zM227 1657q31 219 154 219q31 0 68 -14l69 -25q10 -4 18.5 -6t18.5 -2q55 0 72 76h80q-18 -115 -56.5 -170.5t-103.5 -55.5 q-23 0 -53 11l-68 22q-35 12 -49 12q-51 0 -70 -67h-80zM332 383q0 -113 30.5 -168t102.5 -55t102.5 55t30.5 168v715q0 113 -30.5 168t-102.5 55t-102.5 -55.5t-30.5 -167.5v-715z" />
<glyph unicode="&#xd6;" horiz-adv-x="929" d="M109 500v481q0 268 79.5 398t276.5 130q195 0 275.5 -130t80.5 -398v-481q0 -268 -79.5 -398.5t-276.5 -130.5t-276.5 130.5t-79.5 398.5zM250 1669v229h164v-229h-164zM332 383q0 -113 30.5 -168t102.5 -55t102.5 55t30.5 168v715q0 113 -30.5 168t-102.5 55 t-102.5 -55.5t-30.5 -167.5v-715zM520 1669v229h164v-229h-164z" />
<glyph unicode="&#xd7;" horiz-adv-x="1705" d="M293 141l469 469l-469 469l98 99l469 -469l469 469l98 -99l-469 -469l469 -469l-98 -96l-469 467l-469 -467z" />
<glyph unicode="&#xd8;" horiz-adv-x="929" d="M43 -41l102 227q-20 41 -28 119t-8 195v481q0 268 79.5 398t276.5 130q156 0 231 -84l74 152l115 -57l-101 -222q25 -63 31 -141t6 -176v-481q0 -268 -79.5 -398.5t-276.5 -130.5q-150 0 -236 86l-69 -157zM332 383q0 -113 30.5 -168t102.5 -55t102.5 55t30.5 168v715 q0 113 -30.5 168t-102.5 55t-102.5 -55.5t-30.5 -167.5v-715z" />
<glyph unicode="&#xd9;" horiz-adv-x="931" d="M125 463v1018h219v-1078q0 -117 26.5 -172t96.5 -55t96.5 55.5t26.5 171.5v1078h217v-1018q0 -127 -16.5 -219t-56.5 -151.5t-105.5 -89.5t-161.5 -30t-161.5 30t-105.5 89.5t-57.5 151.5t-17.5 219zM231 1968h179l163 -348h-104z" />
<glyph unicode="&#xda;" horiz-adv-x="931" d="M125 463v1018h219v-1078q0 -117 26.5 -172t96.5 -55t96.5 55.5t26.5 171.5v1078h217v-1018q0 -127 -16.5 -219t-56.5 -151.5t-105.5 -89.5t-161.5 -30t-161.5 30t-105.5 89.5t-57.5 151.5t-17.5 219zM365 1620l163 348h179l-238 -348h-104z" />
<glyph unicode="&#xdb;" horiz-adv-x="931" d="M125 463v1018h219v-1078q0 -117 26.5 -172t96.5 -55t96.5 55.5t26.5 171.5v1078h217v-1018q0 -127 -16.5 -219t-56.5 -151.5t-105.5 -89.5t-161.5 -30t-161.5 30t-105.5 89.5t-57.5 151.5t-17.5 219zM231 1620l152 348h172l152 -348h-105l-133 209l-133 -209h-105z" />
<glyph unicode="&#xdc;" horiz-adv-x="931" d="M125 463v1018h219v-1078q0 -117 26.5 -172t96.5 -55t96.5 55.5t26.5 171.5v1078h217v-1018q0 -127 -16.5 -219t-56.5 -151.5t-105.5 -89.5t-161.5 -30t-161.5 30t-105.5 89.5t-57.5 151.5t-17.5 219zM252 1669v229h164v-229h-164zM522 1669v229h164v-229h-164z" />
<glyph unicode="&#xdd;" horiz-adv-x="720" d="M-6 1481h229l139 -670l144 670h219l-258 -877v-604h-219v606zM258 1620l164 348h178l-238 -348h-104z" />
<glyph unicode="&#xde;" horiz-adv-x="872" d="M125 0v1481h219v-189h53q125 0 210 -19.5t137.5 -68.5t76 -131t23.5 -207q0 -233 -94.5 -335.5t-309.5 -102.5h-96v-428h-219zM344 616h72q61 0 101 14.5t62.5 45.5t32 80t9.5 121q0 121 -43 173t-152 52h-82v-486z" />
<glyph unicode="&#xdf;" horiz-adv-x="868" d="M109 0v1098q0 209 73.5 310t245.5 101q164 0 247 -92t83 -272q0 -217 -154 -305q113 -35 155 -131.5t42 -274.5q0 -223 -74 -337.5t-215 -114.5q-51 0 -115 20v191q51 -29 82 -29q113 0 113 256q0 162 -38 238.5t-132 78.5v178q70 4 100.5 55.5t30.5 155.5 q0 213 -121 213q-61 0 -89 -59t-28 -182v-1098h-206z" />
<glyph unicode="&#xe0;" horiz-adv-x="784" d="M57 246q0 164 104.5 280.5t319.5 212.5v60q0 74 -23.5 109.5t-76.5 35.5t-83 -40t-32 -105h-194q10 154 96 235.5t233 81.5q158 0 221.5 -89t63.5 -282v-505q0 -150 21 -240h-201l-21 111q-90 -123 -211 -123q-98 0 -157.5 68.5t-59.5 189.5zM158 1577h178l164 -348h-105 zM260 299q0 -59 25.5 -92t66.5 -33q66 0 129 88v305q-113 -55 -167 -119.5t-54 -148.5z" />
<glyph unicode="&#xe1;" horiz-adv-x="784" d="M57 246q0 164 104.5 280.5t319.5 212.5v60q0 74 -23.5 109.5t-76.5 35.5t-83 -40t-32 -105h-194q10 154 96 235.5t233 81.5q158 0 221.5 -89t63.5 -282v-505q0 -150 21 -240h-201l-21 111q-90 -123 -211 -123q-98 0 -157.5 68.5t-59.5 189.5zM260 299q0 -59 25.5 -92 t66.5 -33q66 0 129 88v305q-113 -55 -167 -119.5t-54 -148.5zM291 1229l164 348h178l-238 -348h-104z" />
<glyph unicode="&#xe2;" horiz-adv-x="784" d="M57 246q0 164 104.5 280.5t319.5 212.5v60q0 74 -23.5 109.5t-76.5 35.5t-83 -40t-32 -105h-194q10 154 96 235.5t233 81.5q158 0 221.5 -89t63.5 -282v-505q0 -150 21 -240h-201l-21 111q-90 -123 -211 -123q-98 0 -157.5 68.5t-59.5 189.5zM158 1229l151 348h172 l152 -348h-105l-133 209l-133 -209h-104zM260 299q0 -59 25.5 -92t66.5 -33q66 0 129 88v305q-113 -55 -167 -119.5t-54 -148.5z" />
<glyph unicode="&#xe3;" horiz-adv-x="784" d="M57 246q0 164 104.5 280.5t319.5 212.5v60q0 74 -23.5 109.5t-76.5 35.5t-83 -40t-32 -105h-194q10 154 96 235.5t233 81.5q158 0 221.5 -89t63.5 -282v-505q0 -150 21 -240h-201l-21 111q-90 -123 -211 -123q-98 0 -157.5 68.5t-59.5 189.5zM156 1266q31 219 153 219 q31 0 68 -15l69 -24q10 -4 18.5 -6t18.5 -2q55 0 72 75h80q-18 -115 -56 -170t-104 -55q-23 0 -53 10l-68 23q-35 12 -49 12q-51 0 -69 -67h-80zM260 299q0 -59 25.5 -92t66.5 -33q66 0 129 88v305q-113 -55 -167 -119.5t-54 -148.5z" />
<glyph unicode="&#xe4;" horiz-adv-x="784" d="M57 246q0 164 104.5 280.5t319.5 212.5v60q0 74 -23.5 109.5t-76.5 35.5t-83 -40t-32 -105h-194q10 154 96 235.5t233 81.5q158 0 221.5 -89t63.5 -282v-505q0 -150 21 -240h-201l-21 111q-90 -123 -211 -123q-98 0 -157.5 68.5t-59.5 189.5zM178 1278v229h164v-229h-164 zM260 299q0 -59 25.5 -92t66.5 -33q66 0 129 88v305q-113 -55 -167 -119.5t-54 -148.5zM449 1278v229h163v-229h-163z" />
<glyph unicode="&#xe5;" horiz-adv-x="784" d="M57 246q0 164 104.5 280.5t319.5 212.5v60q0 74 -23.5 109.5t-76.5 35.5t-83 -40t-32 -105h-194q10 154 96 237.5t233 83.5q158 0 221.5 -91t63.5 -284v-505q0 -150 21 -240h-201l-21 111q-90 -123 -211 -123q-98 0 -157.5 68.5t-59.5 189.5zM145 1444q0 53 20.5 100 t55.5 82t82 55.5t100.5 20.5t100.5 -20.5t82 -55.5t55.5 -82t20.5 -100q0 -55 -19.5 -102.5t-54.5 -82t-82 -54t-102.5 -19.5t-102.5 19.5t-82 54t-54.5 82t-19.5 102.5zM260 299q0 -59 25.5 -92t66.5 -33q66 0 129 88v305q-113 -55 -167 -119.5t-54 -148.5zM276 1444 q0 -53 37 -90t90.5 -37t90 37t36.5 90t-36.5 90t-90 37t-90.5 -37t-37 -90z" />
<glyph unicode="&#xe6;" horiz-adv-x="1175" d="M57 246q0 164 104.5 280.5t319.5 212.5v60q0 74 -23.5 109.5t-76.5 35.5t-83 -39t-32 -106h-194q8 147 94 233t217 86q74 0 128 -26.5t83 -79.5q66 106 199 106q313 0 313 -440v-166h-418v-207q0 -78 24.5 -114.5t80 -36.5t80 36.5t24.5 114.5v78h195v-64 q0 -164 -81 -251.5t-229 -87.5q-92 0 -160.5 40.5t-103.5 118.5q-53 -76 -115.5 -113.5t-128.5 -37.5q-98 0 -157.5 68.5t-59.5 189.5zM260 299q0 -59 25.5 -92t66.5 -33q66 0 129 88v305q-113 -55 -167 -119.5t-54 -148.5zM688 684h209v109q0 78 -24.5 113.5t-80 35.5 t-80 -36t-24.5 -113v-109z" />
<glyph unicode="&#xe7;" horiz-adv-x="782" d="M96 371v354q0 391 299 391q147 0 229.5 -89t82.5 -261v-49h-197v76q0 78 -24.5 113.5t-80 35.5t-80 -36t-24.5 -113v-488q0 -78 24.5 -114.5t80 -36.5t80 36.5t24.5 114.5v78h197v-64q0 -164 -82 -251.5t-230 -87.5q-299 0 -299 391zM176 -315q129 -43 205 -43 q49 0 75.5 21.5t26.5 57.5q0 76 -121 76q-8 0 -16 -1t-18 -1v205h75v-94h13q201 0 200 -193q0 -88 -57 -138t-165.5 -50t-217.5 41v119z" />
<glyph unicode="&#xe8;" horiz-adv-x="788" d="M96 371v354q0 199 75 295t237 96q311 0 311 -438v-166h-418v-207q0 -78 24.5 -114.5t80 -36.5t80 36.5t24.5 114.5v78h197v-64q0 -164 -82 -251.5t-230 -87.5q-299 0 -299 391zM168 1577h178l164 -348h-104zM301 684h209v109q0 78 -24.5 113.5t-80 35.5t-80 -36 t-24.5 -113v-109z" />
<glyph unicode="&#xe9;" horiz-adv-x="788" d="M96 371v354q0 199 75 295t237 96q311 0 311 -438v-166h-418v-207q0 -78 24.5 -114.5t80 -36.5t80 36.5t24.5 114.5v78h197v-64q0 -164 -82 -251.5t-230 -87.5q-299 0 -299 391zM301 684h209v109q0 78 -24.5 113.5t-80 35.5t-80 -36t-24.5 -113v-109zM301 1229l164 348 h178l-237 -348h-105z" />
<glyph unicode="&#xea;" horiz-adv-x="788" d="M96 371v354q0 199 75 295t237 96q311 0 311 -438v-166h-418v-207q0 -78 24.5 -114.5t80 -36.5t80 36.5t24.5 114.5v78h197v-64q0 -164 -82 -251.5t-230 -87.5q-299 0 -299 391zM168 1229l151 348h173l151 -348h-104l-133 209l-134 -209h-104zM301 684h209v109 q0 78 -24.5 113.5t-80 35.5t-80 -36t-24.5 -113v-109z" />
<glyph unicode="&#xeb;" horiz-adv-x="788" d="M96 371v354q0 199 75 295t237 96q311 0 311 -438v-166h-418v-207q0 -78 24.5 -114.5t80 -36.5t80 36.5t24.5 114.5v78h197v-64q0 -164 -82 -251.5t-230 -87.5q-299 0 -299 391zM188 1278v229h164v-229h-164zM301 684h209v109q0 78 -24.5 113.5t-80 35.5t-80 -36 t-24.5 -113v-109zM459 1278v229h164v-229h-164z" />
<glyph unicode="&#xec;" horiz-adv-x="432" d="M-18 1577h178l164 -348h-105zM115 0v1100h202v-1100h-202z" />
<glyph unicode="&#xed;" horiz-adv-x="432" d="M115 0v1100h202v-1100h-202zM115 1229l164 348h178l-238 -348h-104z" />
<glyph unicode="&#xee;" horiz-adv-x="432" d="M-18 1229l151 348h172l152 -348h-105l-133 209l-133 -209h-104zM115 0v1100h202v-1100h-202z" />
<glyph unicode="&#xef;" horiz-adv-x="432" d="M2 1278v229h164v-229h-164zM115 0v1100h202v-1100h-202zM272 1278v229h164v-229h-164z" />
<glyph unicode="&#xf0;" horiz-adv-x="811" d="M96 352v336q0 373 297 373q27 0 74 -6q-23 76 -70 147l-155 -82l-52 103l140 80q-23 33 -48.5 63.5t-56.5 60.5l101 84q80 -74 135 -141l166 86l59 -102l-151 -80q53 -66 87.5 -137.5t55 -150.5t29 -167t8.5 -188v-279q0 -190 -75 -281t-234.5 -91t-234.5 91t-75 281z M301 289q0 -74 24.5 -109t80 -35t80 35t24.5 109v463q0 72 -24.5 107.5t-80 35.5t-80 -36t-24.5 -107v-463z" />
<glyph unicode="&#xf1;" horiz-adv-x="811" d="M109 0v1100h192v-135q59 72 116.5 111.5t110.5 39.5q113 0 150 -84t37 -254v-778h-205v786q0 72 -17.5 106t-64.5 34q-25 0 -55.5 -19.5t-59.5 -58.5v-848h-204zM186 1266q31 219 154 219q31 0 68 -15l69 -24q10 -4 18.5 -6t18.5 -2q55 0 72 75h80q-18 -115 -56.5 -170 t-103.5 -55q-23 0 -53 10l-68 23q-35 12 -49 12q-51 0 -70 -67h-80z" />
<glyph unicode="&#xf2;" horiz-adv-x="811" d="M96 371v354q0 199 75 295t234.5 96t234.5 -96t75 -295v-354q0 -199 -75 -295t-234.5 -96t-234.5 96t-75 295zM170 1577h178l164 -348h-104zM301 305q0 -78 24.5 -114.5t80 -36.5t80 36.5t24.5 114.5v488q0 78 -24.5 113.5t-80 35.5t-80 -36t-24.5 -113v-488z" />
<glyph unicode="&#xf3;" horiz-adv-x="811" d="M96 371v354q0 199 75 295t234.5 96t234.5 -96t75 -295v-354q0 -199 -75 -295t-234.5 -96t-234.5 96t-75 295zM301 305q0 -78 24.5 -114.5t80 -36.5t80 36.5t24.5 114.5v488q0 78 -24.5 113.5t-80 35.5t-80 -36t-24.5 -113v-488zM303 1229l164 348h178l-237 -348h-105z " />
<glyph unicode="&#xf4;" horiz-adv-x="811" d="M96 371v354q0 199 75 295t234.5 96t234.5 -96t75 -295v-354q0 -199 -75 -295t-234.5 -96t-234.5 96t-75 295zM170 1229l152 348h172l151 -348h-104l-133 209l-134 -209h-104zM301 305q0 -78 24.5 -114.5t80 -36.5t80 36.5t24.5 114.5v488q0 78 -24.5 113.5t-80 35.5 t-80 -36t-24.5 -113v-488z" />
<glyph unicode="&#xf5;" horiz-adv-x="811" d="M96 371v354q0 199 75 295t234.5 96t234.5 -96t75 -295v-354q0 -199 -75 -295t-234.5 -96t-234.5 96t-75 295zM168 1266q31 219 154 219q31 0 67 -15l70 -24q10 -4 18 -6t19 -2q55 0 71 75h80q-18 -115 -56 -170t-104 -55q-23 0 -53 10l-67 23q-35 12 -50 12 q-51 0 -69 -67h-80zM301 305q0 -78 24.5 -114.5t80 -36.5t80 36.5t24.5 114.5v488q0 78 -24.5 113.5t-80 35.5t-80 -36t-24.5 -113v-488z" />
<glyph unicode="&#xf6;" horiz-adv-x="811" d="M96 371v354q0 199 75 295t234.5 96t234.5 -96t75 -295v-354q0 -199 -75 -295t-234.5 -96t-234.5 96t-75 295zM190 1278v229h164v-229h-164zM301 305q0 -78 24.5 -114.5t80 -36.5t80 36.5t24.5 114.5v488q0 78 -24.5 113.5t-80 35.5t-80 -36t-24.5 -113v-488zM461 1278 v229h164v-229h-164z" />
<glyph unicode="&#xf7;" horiz-adv-x="1705" d="M254 541v139h1198v-139h-1198zM729 241.5q0 53.5 37 89.5t88 36t88 -36t37 -89q0 -51 -36 -88t-89 -37t-89 35.5t-36 89zM729 979q0 53 37 90t88 37t88 -37t37 -90q0 -51 -36 -88t-89 -37t-89 36t-36 89z" />
<glyph unicode="&#xf8;" horiz-adv-x="811" d="M63 -31l80 148q-27 35 -37 98.5t-10 155.5v354q0 199 75 296t235 97q53 0 100 -14t82 -39l59 113l103 -43l-82 -152q27 -41 37 -105.5t10 -152.5v-354q0 -199 -75 -295t-234 -96q-115 0 -187 53l-59 -109zM301 305q0 -78 24.5 -114.5t80 -36.5t80 36.5t24.5 114.5v488 q0 78 -24.5 113.5t-80 35.5t-80 -36t-24.5 -113v-488z" />
<glyph unicode="&#xf9;" horiz-adv-x="811" d="M96 322v778h205v-787q0 -72 17.5 -105.5t64.5 -33.5q27 0 56.5 19.5t58.5 58.5v848h202v-1100h-190v135q-117 -145 -227 -145q-57 0 -93 20.5t-56.5 61.5t-29 103.5t-8.5 146.5zM170 1577h178l164 -348h-104z" />
<glyph unicode="&#xfa;" horiz-adv-x="811" d="M96 322v778h205v-787q0 -72 17.5 -105.5t64.5 -33.5q27 0 56.5 19.5t58.5 58.5v848h202v-1100h-190v135q-117 -145 -227 -145q-57 0 -93 20.5t-56.5 61.5t-29 103.5t-8.5 146.5zM303 1229l164 348h178l-237 -348h-105z" />
<glyph unicode="&#xfb;" horiz-adv-x="811" d="M96 322v778h205v-787q0 -72 17.5 -105.5t64.5 -33.5q27 0 56.5 19.5t58.5 58.5v848h202v-1100h-190v135q-117 -145 -227 -145q-57 0 -93 20.5t-56.5 61.5t-29 103.5t-8.5 146.5zM170 1229l152 348h172l151 -348h-104l-133 209l-134 -209h-104z" />
<glyph unicode="&#xfc;" horiz-adv-x="811" d="M96 322v778h205v-787q0 -72 17.5 -105.5t64.5 -33.5q27 0 56.5 19.5t58.5 58.5v848h202v-1100h-190v135q-117 -145 -227 -145q-57 0 -93 20.5t-56.5 61.5t-29 103.5t-8.5 146.5zM190 1278v229h164v-229h-164zM461 1278v229h164v-229h-164z" />
<glyph unicode="&#xfd;" horiz-adv-x="663" d="M27 1100h198l129 -922l101 922h194l-211 -1123q-16 -88 -40.5 -151.5t-61.5 -104t-90 -60t-127 -19.5q-14 0 -29.5 1t-36.5 3v184q27 -6 53 -6q133 0 134 180q0 47 -13 113l-28 151zM229 1229l164 348h178l-237 -348h-105z" />
<glyph unicode="&#xfe;" horiz-adv-x="802" d="M109 -344v1825h204v-482q41 59 93.5 89t105.5 30q104 0 150.5 -86t46.5 -262v-451q0 -336 -205 -335q-98 0 -191 116v-444h-204zM313 227q57 -51 103 -51q49 0 67.5 44t18.5 136v355q0 115 -14.5 166t-65.5 51q-49 0 -109 -58v-643z" />
<glyph unicode="&#xff;" horiz-adv-x="663" d="M27 1100h198l129 -922l101 922h194l-211 -1123q-16 -88 -40.5 -151.5t-61.5 -104t-90 -60t-127 -19.5q-14 0 -29.5 1t-36.5 3v184q27 -6 53 -6q133 0 134 180q0 47 -13 113l-28 151zM117 1278v229h164v-229h-164zM387 1278v229h164v-229h-164z" />
<glyph unicode="&#x152;" horiz-adv-x="1232" d="M109 500v481q0 135 18 233.5t60 164t111 97t167 31.5q66 0 143 -26h576v-199h-369v-410h289v-202h-289v-471h404v-199h-611q-80 -27 -143 -27q-98 0 -167 32t-111 97.5t-60 164t-18 233.5zM332 383q0 -113 30.5 -168t102.5 -55t102.5 55t30.5 168v715q0 113 -30.5 168 t-102.5 55t-102.5 -55.5t-30.5 -167.5v-715z" />
<glyph unicode="&#x153;" horiz-adv-x="1204" d="M96 371v354q0 199 75 296t235 97q139 0 206 -104q66 104 209 104q313 0 314 -440v-166h-418v-207q0 -78 24.5 -114.5t80 -36.5t80 36.5t24.5 114.5v78h194v-64q0 -164 -81 -251.5t-228 -87.5q-131 0 -197 108q-72 -109 -208 -108q-160 0 -235 96t-75 295zM301 305 q0 -78 24.5 -114.5t80 -36.5t80 36.5t24.5 114.5v488q0 78 -24.5 113.5t-80 35.5t-80 -36t-24.5 -113v-488zM717 684h209v109q0 78 -24.5 113.5t-80 35.5t-80 -36t-24.5 -113v-109z" />
<glyph unicode="&#x178;" horiz-adv-x="720" d="M-6 1481h229l139 -670l144 670h219l-258 -877v-604h-219v606zM145 1669v229h164v-229h-164zM416 1669v229h164v-229h-164z" />
<glyph unicode="&#x2c6;" horiz-adv-x="1024" d="M274 1229l152 348h172l152 -348h-105l-133 209l-133 -209h-105z" />
<glyph unicode="&#x2dc;" horiz-adv-x="1024" d="M272 1266q31 219 154 219q31 0 68 -15l69 -24q10 -4 18.5 -6t18.5 -2q55 0 72 75h80q-18 -115 -56.5 -170t-103.5 -55q-23 0 -53 10l-68 23q-35 12 -49 12q-51 0 -70 -67h-80z" />
<glyph unicode="&#x2000;" horiz-adv-x="984" />
<glyph unicode="&#x2001;" horiz-adv-x="1968" />
<glyph unicode="&#x2002;" horiz-adv-x="984" />
<glyph unicode="&#x2003;" horiz-adv-x="1968" />
<glyph unicode="&#x2004;" horiz-adv-x="656" />
<glyph unicode="&#x2005;" horiz-adv-x="492" />
<glyph unicode="&#x2006;" horiz-adv-x="328" />
<glyph unicode="&#x2007;" horiz-adv-x="328" />
<glyph unicode="&#x2008;" horiz-adv-x="246" />
<glyph unicode="&#x2009;" horiz-adv-x="393" />
<glyph unicode="&#x200a;" horiz-adv-x="109" />
<glyph unicode="&#x2010;" horiz-adv-x="473" d="M29 485v177h417v-177h-417z" />
<glyph unicode="&#x2011;" horiz-adv-x="473" d="M29 485v177h417v-177h-417z" />
<glyph unicode="&#x2012;" horiz-adv-x="473" d="M29 485v177h417v-177h-417z" />
<glyph unicode="&#x2013;" horiz-adv-x="1024" d="M0 508v133h1024v-133h-1024z" />
<glyph unicode="&#x2014;" horiz-adv-x="2048" d="M0 508v133h2048v-133h-2048z" />
<glyph unicode="&#x2018;" horiz-adv-x="407" d="M92 1016v233l125 260h94l-96 -260h100v-233h-223z" />
<glyph unicode="&#x2019;" horiz-adv-x="407" d="M92 1247v234h223v-234l-125 -260h-94l97 260h-101z" />
<glyph unicode="&#x201a;" horiz-adv-x="407" d="M92 0v236h223v-236l-125 -260h-94l97 260h-101z" />
<glyph unicode="&#x201c;" horiz-adv-x="735" d="M92 1016v233l125 260h94l-96 -260h100v-233h-223zM420 1016v233l125 260h94l-96 -260h100v-233h-223z" />
<glyph unicode="&#x201d;" horiz-adv-x="735" d="M92 1247v234h223v-234l-125 -260h-94l97 260h-101zM420 1247v234h223v-234l-125 -260h-94l96 260h-100z" />
<glyph unicode="&#x201e;" horiz-adv-x="735" d="M92 0v236h223v-236l-125 -260h-94l97 260h-101zM420 0v236h223v-236l-125 -260h-94l96 260h-100z" />
<glyph unicode="&#x2022;" horiz-adv-x="1208" d="M307 761.5q0 61.5 23.5 115t63.5 93.5t94.5 63.5t116 23.5t114.5 -23.5t93 -63.5t63.5 -93.5t23.5 -115t-23.5 -114.5t-63.5 -94t-94 -64.5t-115.5 -23.5t-116 23.5t-94.5 63.5t-62.5 94t-22.5 115.5z" />
<glyph unicode="&#x2026;" horiz-adv-x="2048" d="M229 0v236h224v-236h-224zM911 0v236h224v-236h-224zM1595 0v236h224v-236h-224z" />
<glyph unicode="&#x202f;" horiz-adv-x="393" />
<glyph unicode="&#x2039;" horiz-adv-x="464" d="M70 543l170 309h161l-168 -309l168 -312h-161z" />
<glyph unicode="&#x203a;" horiz-adv-x="464" d="M63 231l166 312l-166 309h162l170 -309l-172 -312h-160z" />
<glyph unicode="&#x205f;" horiz-adv-x="492" />
<glyph unicode="&#x20ac;" d="M20 545l13 102h90v172h-98l12 105h86v135q0 231 71.5 340.5t237.5 109.5t235.5 -109.5t73.5 -340.5v-25h-215v64q0 113 -20.5 168t-73.5 55t-73.5 -55.5t-20.5 -167.5v-174h217l-12 -105h-205v-172h182l-12 -102h-170v-162q0 -113 20.5 -168t73.5 -55t73.5 55t20.5 168 v72h215v-33q-2 -115 -19 -200t-54 -140t-95.5 -83t-140.5 -28q-166 0 -237.5 109.5t-71.5 341.5v123h-103z" />
<glyph unicode="&#x2122;" horiz-adv-x="1705" d="M242 1378v80h452v-80h-172v-458h-108v458h-172zM813 920v538h150l151 -385l141 385h150v-538h-98v444l-166 -444h-56l-174 444v-444h-98z" />
<glyph unicode="&#xe000;" horiz-adv-x="1100" d="M0 1100h1100v-1100h-1100v1100z" />
<glyph unicode="&#xfb01;" horiz-adv-x="958" d="M45 930v170h121v139q0 70 11 119t38 78.5t71 43t109 13.5h107v-166h-45q-55 0 -71.5 -25.5t-16.5 -89.5v-112h127v-170h-127v-930h-203v930h-121zM639 0v1100h205v-1100h-205zM639 1274v207h205v-207h-205z" />
<glyph unicode="&#xfb02;" horiz-adv-x="958" d="M45 930v170h121v139q0 70 11 119t38 78.5t71 43t109 13.5h107v-166h-45q-55 0 -71.5 -25.5t-16.5 -89.5v-112h127v-170h-127v-930h-203v930h-121zM639 0v1481h205v-1481h-205z" />
<glyph unicode="&#xfb03;" horiz-adv-x="1492" d="M45 930v170h121v139q0 70 11 119t38 78.5t71 43t109 13.5h107v-166h-45q-55 0 -71.5 -25.5t-16.5 -89.5v-112h127v-170h-127v-930h-203v930h-121zM575 930v170h121v139q0 70 11.5 119t38 78.5t70.5 43t110 13.5h106v-166h-45q-55 0 -71.5 -25.5t-16.5 -89.5v-112h127 v-170h-127v-930h-203v930h-121zM1176 0v1100h202v-1100h-202zM1176 1274v207h202v-207h-202z" />
<glyph unicode="&#xfb04;" horiz-adv-x="1492" d="M45 930v170h121v139q0 70 11 119t38 78.5t71 43t109 13.5h107v-166h-45q-55 0 -71.5 -25.5t-16.5 -89.5v-112h127v-170h-127v-930h-203v930h-121zM575 930v170h121v139q0 70 11.5 119t38 78.5t70.5 43t110 13.5h106v-166h-45q-55 0 -71.5 -25.5t-16.5 -89.5v-112h127 v-170h-127v-930h-203v930h-121zM1176 0v1481h202v-1481h-202z" />
</font>
</defs>
</svg>
