<?xml version="1.0" standalone="no"?>
<!DOCTYPE svg PUBLIC "-//W3C//DTD SVG 1.1//EN" "http://www.w3.org/Graphics/SVG/1.1/DTD/svg11.dtd" >
<svg xmlns="http://www.w3.org/2000/svg">
<metadata>Generated by IcoMoon</metadata>
<defs>
<font id="takepart" horiz-adv-x="1024">
<font-face units-per-em="1024" ascent="960" descent="-64" />
<missing-glyph horiz-adv-x="1024" />
<glyph unicode="&#x20;" d="" horiz-adv-x="512" />
<glyph unicode="&#xe100;" d="M1012.861 561.737c0 320.046-195.553 248.924-195.553 248.924l-803.913-219.24v-169.463l477.932-114.982c320.044-82.954 426.706-94.829 426.706-94.829 106.662 35.5 94.829 349.59 94.829 349.59zM882.492 271.394c-47.413 5.859-59.288 108.732-59.288 242.93 0 134.217 5.937 243.048 59.288 243.007 53.311-0.019 59.208-108.791 59.208-243.007 0-134.2-11.793-248.789-59.208-242.93zM476.131 165.043c-31.343-20.074-74.421-10.194-74.89-10.076-37.688 9.023-61.689 24.216-71.356 45.112-12.537 27.184 0 63.232 5.859 74.791l-33.314 17.224 33.217-17.379-66.415 34.797c-3.925-7.419-37.436-74.868-7.791-140.131 19.645-43.197 60.771-72.607 121.914-87.291 3.516-0.896 20.466-4.765 43.45-4.765 25.562 0 58.641 4.844 89.047 24.1 35.308 22.378 58.117 58.035 67.743 106.231l-73.602 14.723c-5.466-27.496-16.56-46.283-33.862-57.337z" />
<glyph unicode="&#xe101;" d="M314.752 154.414c-16.188 28.727-62.647 30.793-81.435 69.955-15.665 31.838-16.188 217.699-17.234 282.436-1.046 76.218 1.046 112.765 16.71 152.438 12.005 30.805 29.237 38.639 51.154 38.639 6.275 0 12.539-0.522 19.326-1.568 3.647 86.13-7.832 158.179 40.718 204.126 34.978 0 65.783-64.737 69.956-95.544 1.568 52.212 2.092 116.949 23.497 142.003 9.912 4.693 19.837 7.31 28.715 7.31 49.073 0 84.574-73.603 77.252-144.094 20.359 50.642 14.645 109.64 61.076 109.64 80.415 0 53.782-208.819 54.292-269.909 17.246 18.802 53.78 33.932 87.2 33.932 24.008 0 45.923-7.82 58.477-28.192 14.594-28.191-16.712-48.027-23.499-75.696-10.97-46.981-2.628-104.41-11.505-157.133-2.603-16.174-13.037-28.727-17.196-46.993-16.2-64.727-16.2-122.153-52.76-163.408-33.396-9.388-58.45-26.609-87.149-40.718-5.767-60.566-1.072-120.062-12.044-186.368-30.766-32.375-90.301-43.856-151.9-43.856-44.902 0-91.36 6.277-127.906 14.618-2.084 50.104 3.656 137.817-5.746 198.385zM612.343 218.629c13.037 8.852 35.487 7.322 52.198 17.222 28.701 17.244 44.365 71.537 52.709 110.674 6.787 32.374 4.695 69.953 11.481 111.208-10.409 6.786-21.378 9.912-40.716 11.481 2.092 22.973 49.597 0.524 52.224 23.497-3.137 25.576-23.497 18.266-52.224 34.978 15.664 17.22 42.3-12.017 58.474 5.741 13.063 44.378 22.453 77.788 38.627 105.457-7.296 8.878-17.195 12.527-27.655 12.527-18.268 0-38.115-10.435-49.597-16.188-81.435-37.057-43.855-163.919-78.324-247.446-128.927-14.619-138.851-77.788-169.136-134.17-3.127-0.512-10.959 8.342-17.222 10.433 37.581 102.842 45.937 116.413 158.701 139.375-93.44 16.201-201.511-11.991-281.39-27.655-12.527 23.497-3.649 36.023-11.481 58.474-7.31 9.926-34.978 0-34.978 17.222-3.663 20.895 34.978 0.524 29.237 23.497 2.601 18.28-10.448 20.359-5.741 40.718-15.665 0-34.468-3.125-34.978 12.017 0.51 20.359 35.487 6.787 34.978 28.715-3.139 20.359-3.661 79.867-9.402 97.625-2.615 9.912-9.4 15.142-16.71 15.142-5.741 0-11.481-4.185-14.619-13.585-27.668-136.772-3.649-311.661 22.973-431.213 20.881-16.712 45.949-27.655 64.215-46.995 16.712-47.503 11.481-147.207 11.481-192.108 28.192-3.649 58.476-5.741 87.712-5.741 46.459 0 91.361 5.741 122.168 23.499 6.787 120.591-14.618 174.855 46.995 215.6zM406.636 552.218c-8.878 10.97-50.12-8.356-45.411 16.188-0.524 12.527 34.454 4.693 42.796 8.356 0 34.978-6.263 74.127-6.263 109.104-4.693 13.049-40.195-5.217-36.533 16.188-0.524 13.049 31.84 5.74 40.195 8.878-10.97 86.13-17.756 148.267-44.378 148.267-9.402 0-19.837-7.31-25.576-31.329-3.139-14.095-1.046-157.667-1.046-200.477 4.171-89.269 15.665-181.675 18.79-210.913 21.405-3.647 57.428 7.31 63.691 24.020-4.173 57.429-4.695 73.093-6.265 111.72zM507.397 515.669c-10.447 3.663-34.454-6.786-34.978 5.753 5.217 12.527 17.22 17.744 34.978 17.744 2.603 30.283-6.263 72.047 5.741 92.93-9.402 12.527-46.471-3.137-40.718 23.484 5.217 21.405 17.22 3.663 34.978 5.753 2.603 40.195-10.447 63.693-6.263 104.933-10.97 8.356-35.5 3.125-28.715 29.237h34.978c0.524 42.286 1.556 73.603-4.707 97.101-4.171 15.665-20.359 29.237-34.978 29.237-10.435 0-20.359-7.31-24.532-25.59-9.924-38.103-5.74-109.626-8.878-152.436-8.356-118.506-2.615-191.599 3.139-303.841 23.484 1.568 56.905 13.049 80.391 14.618-4.173 28.194-7.31 34.458-10.436 61.078zM583.108 597.12c17.731 6.787 33.394-32.898 34.951-5.74 0.536 58.462 4.185 61.076 5.767 110.674-6.787 14.618-35.514 7.31-29.237 34.978 10.97 10.957 14.594 1.046 29.237 0-3.673 44.889 15.13 147.22-10.97 147.22-30.283 0-71.002-177.504-70.467-432.795 18.266-8.864 41.74-12.003 57.914-22.961 5.257 39.673 8.88 80.913 12.044 122.155-11.51 14.094-35.005 15.662-29.239 46.469z" />
<glyph unicode="&#xe102;" d="M611.611 952.23c108.708-36.576 215.385-118.868 309.871-206.751-100.581-227.069-276.854-430.769-447.536-656.316-132.584-83.816-176.778-97.533-352.541-145.283-7.62-2.033-17.778 23.875-18.796 39.115 17.271 215.893 31.495 350.001 50.799 387.591 33.019 64.007 112.265 141.728 168.143 216.402 108.708 144.778 174.239 266.694 290.060 365.242zM154.933 128.278c25.399-11.175 64.514 14.732 89.914 3.555 23.366-32.51-8.129-70.61 31.495-102.103 49.275 29.971 100.072 50.29 148.838 88.388-30.479 23.875-56.893 7.62-87.373 33.529 6.605 28.954 13.208 57.402 22.859 86.357-45.718 22.351-82.801-48.259-128.521-28.447-4.572 24.383-36.067 96.517-51.306 102.103-4.064-51.308-16.256-111.247-25.907-183.383zM196.079 363.983c21.844-29.464 23.875-60.959 60.959-88.897 84.833 127.503 175.763 235.197 269.74 363.208-36.067 34.034-46.735 46.227-75.182 71.627-82.802-126.488-165.096-223.514-255.517-345.938zM270.752 245.115c38.1 20.318 76.198 45.211 118.361 27.431-1.015-29.972-6.096-60.45-7.112-90.421 105.153 141.22 171.191 248.912 267.708 384.036-9.143 1.524-48.766 27.94-89.405 54.863-75.689-100.581-207.766-239.261-289.551-375.909zM410.957 158.756c15.239-4.57 28.447-14.73 43.687-16.763 100.581 120.9 166.618 236.721 284.472 370.321-16.763 7.62-41.146 21.844-58.419 32.003-60.959-68.069-222.498-316.474-269.74-385.562zM474.962 738.877c53.338-65.022 123.44-97.026 186.94-134.617 42.67-25.399 69.593-49.782 107.184-62.99 9.143 16.765 19.811 27.431 28.447 42.163-97.024 55.878-206.24 138.68-295.646 200.146-13.208-24.893-9.144-17.273-26.924-44.703zM791.946 623.565c23.366-13.208 34.543-2.54 42.163 18.796-84.326 72.134-195.067 151.38-281.933 202.685-4.57-6.096-21.335-29.462-25.907-35.052 72.132-67.562 205.227-151.888 265.677-186.429z" />
<glyph unicode="&#xe103;" d="M1016.545 277.96c-19.78-14.479-46.044-12.239-81.273-11.269-1.444-43.416 17.625-141.389 9.416-191.57-92.65-7.716-140.677 149.748-267.607 149.748-56.451 0-381.945-27.515-441.295-27.515-61.298 0-129.623 20.533-154.23 55.31-35.703 50.183-64.167 226.326-70.953 308.364-6.733 72.375 0 109.35 0 179.796 76.264 78.182 456.569 80.109 649.153 80.109 50.161 0 217.318 6.755 269.935-48.253 95.063-99.9 79.635-326.796 86.854-494.72zM143.124 307.652c43.921-1.896 339.982-3.362 390.659-3.362 100.849 0 291.879 5.299 381.619 19.306-10.6 143.812 5.323 270.72-39.084 403.436-77.696 22.678-250.866 17.862-340.618 9.168-63.701-6.281-374.241-14.964-432.147-17.377-5.311-155.392 14.479-286.159 39.571-411.17z" />
<glyph unicode="&#xe104;" d="M744.323 126.595c5.553-13.382 10.827-25.235 15.464-37.395 3.415-9.076 6.774-18.239 8.745-27.677 2.748-13.104 0.778-25.318-10.438-34.616-36.977-30.817-78.674-44.501-126.867-35.98-20.376 3.582-34.48 15.38-44.614 32.647-10.911 18.85-25.677 34.231-42.999 47.193-5.859 4.415-12.090 8.8-18.823 11.383-54.979 21.263-86.808 62.74-103.7 117.511-6.663 21.654-12.964 43.501-20.127 65.072-1.166 3.47-5.482 7.383-9.064 8.383-28.607 7.716-55.438 19.321-80.688 34.84-5.108 3.137-12.506 4.47-18.517 3.804-35.978-4.193-71.789-5.386-105.491 10.327-11.909 5.581-23.375 6.939-36.103 7.883-20.5 1.473-41.793 3.5-60.894 10.383-44.389 15.935-66.613 51.19-72.83 96.413-2.65 19.434-0.597 39.421-1.736 59.090-0.847 13.629-3.524 27.122-5.231 40.682-6.579 52.898 6.636 98.162 50.261 132.115 3.859 3.026 5.941 8.578 8.453 13.215 12.742 23.431 23.153 48.485 38.477 70.026 23.54 33.036 59.353 50.096 96.594 63.766 4.289 1.541 8.842 3.707 11.868 6.844 23.444 24.235 50.47 39.574 85.518 36.422 2.54-0.249 5.705 1.609 7.912 3.304 23.431 17.545 49.289 26.539 78.828 23.999 3.123-0.263 6.636 0.473 9.591 1.736 33.133 14.159 66.946 14.797 101.216 5.192 7.328-2.055 13.728-1.763 21.113 0.93 73.455 26.692 140.303 11.855 201.211-34.299 14.351-10.882 28.010-19.045 46.749-21.487 40.641-5.303 68.349-31.217 91.25-63.42 3.359-4.762 8.8-9.008 14.242-11.119 39.975-15.602 66.403-43.848 80.591-84.116 1.444-4.081 4.024-8.716 7.467-11.035 43.947-29.51 59.658-70.472 46.583-121.066-4.886-18.918 0.471-35.535 3.22-53.050 4.163-26.416 5.053-52.579-2.666-78.563-5.441-18.087-14.63-33.801-28.593-46.403-3.942-3.637-4.999-6.439-3.721-11.853 9.383-39.282 4.884-77.619-21.849-108.018-47.111-53.412-103.187-95.191-172.506-116.512-6.079-1.777-12.297-3.053-18.599-4.193-5.832-0.997-11.8-1.469-19.297-2.357zM545.862 694.485c-6.122-14.824-10.146-29.732-17.934-42.349-13.256-21.543-34.188-32.258-59.547-33.41-11.465-0.527-19.975 7.274-20.251 17.517-0.263 9.759 6.774 17.004 17.545 18.115 3.374 0.36 6.815 0.708 10.189 1.417 18.753 3.956 33.743 27.373 29.024 46.013-9.286 36.284-17.198 72.747-17.642 110.377-23.112 10.592-44.778 7.247-66.446-4.137-6.746-3.512-16.102-6.455-22.833-4.594-20.099 5.608-34.452-1.971-47.5-15.379 6.982-13.991 14.464-27.317 20.39-41.281 8.675-20.543 8.218-20.765 30.662-20.905 11.534-0.070 19.446-6.55 20.238-16.476 0.778-9.938-7.052-18.309-18.656-19.294-16.725-1.43-33.229-1-46.152 9.8-10.703-5.982-20.405-12.174-30.773-16.949-10.465-4.789-20.806-0.263-24.873 9.508-3.707 8.98 0.236 18.058 10.092 23.209 4.663 2.442 9.551 4.622 13.95 7.496 10.592 6.927 11.868 11.66 6.135 22.639-4.762 9.105-10.535 17.725-14.865 27.039-3.304 7.009-8.731 8.661-14.394 5.941-8.856-4.275-18.447-8.716-24.97-15.657-10.924-11.633-23.596-18.406-38.545-23.182-27.539-8.87-52.482-22.723-67.792-48.442-10.284-17.268-18.336-35.937-27.441-54.093 22.403-19.71 46.846-27.317 75.302-22.125 9.981 1.79 13.602 7.566 13.769 16.725 0.14 9.050-0.195 18.128 0.084 27.165 0.278 11.063 7.815 18.905 17.823 19.016 10.105 0.111 17.615-7.62 17.934-18.767 0.152-9.008 0.029-18.031 0.029-27.554 6.523 0.944 12.006 1.958 17.531 2.512 34.854 3.594 63.974-7.496 86.419-34.548 9.397-11.312 3.47-26.998-10.757-29.399-7.897-1.319-13.602 2.748-18.669 8.383-15.213 16.934-34.27 23.68-56.494 19.197-12.131-2.456-24.069-6.287-35.727-10.535-45.305-16.422-87.475-12.756-125.716 18.545-1.374 1.152-2.985 2.082-4.289 2.999-20.808-12.201-30.676-49.831-21.833-75.191 22.042 5.455 41.808-0.901 60.268-12.588 8.953-5.635 11.271-15.811 6.205-24.416-4.762-8.037-14.602-10.854-23.736-6.538-3.637 1.736-6.898 4.692-10.687 5.635-6.801 1.666-13.797 2.625-20.806 3.193-4.54 0.333-7.344-1.999-7.398-7.287-0.154-13.699-1.985-27.539-0.64-41.073 2.707-27.192 13.534-50.384 42.822-56.938 15.823-3.524 32.744-3.442 49.096-2.997 9.578 0.276 17.531-1.109 25.609-6.108 6.746-4.192 14.242-9.050 21.806-9.827 19.113-1.831 38.42-1.415 57.576-2.222 5.844-0.276 7.718 2.749 8.161 7.663 2.874 30.147 20.279 47.693 48.387 56.243 10.673 3.26 20.625-0.278 24.305-9.383 3.845-9.523-0.208-18.864-10.549-23.875-5.081-2.415-10.452-4.192-15.351-6.828-13.686-7.385-14.575-25.68-2.055-34.203 28.261-19.236 59.421-29.979 93.471-32.036 11.368-0.695 22.764-0.138 34.826-0.138-0.541 5.914-0.695 9.911-1.208 13.964-4.871 36.977 6.371 66.932 38.185 88.154 6.885 4.608 13.658 5.955 21.001 1.818 12.244-6.927 12.744-22.096-0.539-31.619-17.891-12.769-24.762-28.954-22.723-50.637 3.026-31.756-2.678-22.931 26.416-33.867 31.176-11.66 56.496-1.084 79.701 20.265-1.777 3.582-3.22 6.996-5.053 10.214-9.271 16.573-9.383 33.896-4.219 51.637 3.442 11.645 12.769 17.142 23.596 14.046 9.549-2.693 14.851-12.104 11.382-23.096-4.386-13.66-0.638-24.987 8.274-37.56 7.55 3.47 16.128 5.883 22.931 10.743 8.774 6.328 16.381 14.38 24.096 22.096 11.882 11.965 22.874 13.437 37.868 5.663 9.327-4.859 19.098-9.44 29.203-11.936 17.101-4.277 24.040 2.746 20.794 19.487-4.082 20.96-4.637 40.878 12.187 57.605 8.716 8.689 19.267 10.784 27.261 3.997 8.497-7.163 8.523-16.879 0.362-27.346-2.359-3.081-5.608-6.813-5.552-10.201 0.193-9.813 1.944-19.642 3.082-29.747 23.902-0.944 46.389 0.193 68.014 8.774 17.821 7.107 27.733 20.070 31.148 38.892 3.553 19.959-0.193 39.129-4.608 58.312-0.416 1.86-4.832 3.97-7.412 3.997-7.801 0.070-15.797-2.347-23.236-1.068-16.766 2.831-33.48 6.496-49.691 11.493-7.828 2.401-11.882 10.23-10.354 18.988 1.584 8.508 7.136 14.157 15.852 14.838 4.332 0.348 9.050-1.555 13.326-3.178 17.99-6.774 36.284-8.87 54.91-3.401 3 0.916 6.721 2.971 7.939 5.524 7.774 15.657 3.277 40.822-9.492 52.98-5.163 4.913-10.772 9.716-16.934 13.158-12.744 7.093-19.157 17.239-21.711 31.689-4.608 26.554-20.987 42.931-47.251 49.678-5.774 1.487-8.327 0.111-10.66-5.219-4.941-11.216-5.719-22.376-0.527-33.452 3.304-7.023 7.497-13.645 11.411-20.39 5.606-9.73 3.721-19.864-4.943-25.513-8.438-5.552-18.934-3.331-25.151 6.093-5.606 8.55-10.436 17.628-15.881 26.914-2.775-1.539-5.69-3.234-8.66-4.844-16.046-8.453-39.253-6.219-53.023 5.052-8.161 6.719-9.967 15.824-4.663 24.096 5.052 7.926 14.88 10.397 23.902 5.997 13.131-6.427 18.017-6.76 26.511 4.581 9.883 13.076 17.323 27.955 25.566 42.182 0.64 1.125 0.084 3.637-0.86 4.886-13.408 18.794-29.761 33.548-53.69 37.42-5.663 0.903-8.854-0.179-11.411-6.093-11.187-26.027-28.815-46.513-54.356-59.561-11.936-6.065-22.485-3.651-27.511 6.176-4.913 9.591-1.22 19.337 10.274 25.346 14.601 7.634 25.317 19.058 33.645 32.966 7.801 13.007 7.774 13.047-3.304 22.75-3.304 2.874-6.692 5.608-10.161 8.356-43.39 34.575-90.527 43.766-142.537 21.195-6.221-2.707-8.716-6.328-7.982-12.785 1.306-11.16 1.708-22.485 3.929-33.452 6.439-31.758-0.14-31.119 36.437-39.962 10.353-2.485 15.406-11.201 13.353-21.292-1.971-9.3-10.993-14.935-21.489-13.242-4.255 0.707-8.475 1.512-10.085 1.818zM462.148 276.504c9.813-25.984 18.531-51.246 28.928-75.761 8.508-20.127 24.875-32.869 44.708-41.752 12.674-5.775 25.153-12.436 36.7-20.181 22.211-15.157 39.255-35.396 53.885-57.798 2.082-3.139 5.246-7.161 8.438-7.636 19.574-3.026 38.449-1 55.716 10.051 4.524 2.86 5.774 5.386 3.581 10.522-10.576 24.595-20.792 49.331-31.314 73.844-1.084 2.526-3.36 4.499-5.301 6.385-14.215 13.826-24.875 30.037-29.148 49.277-3.831 17.434-5.361 35.449-7.939 53.772-1.833-0.666-4.581-1.888-7.439-2.831-12.382-4.053-24.569-9.105-37.257-11.853-22.902-4.97-44.653 1.86-65.319 10.771-15.118 6.468-29.971 6.661-48.237 3.191zM894.15 344.656c-24.125-1.138-46.776-2.137-69.431-3.36-2.388-0.084-4.997-0.72-7.052-1.886-27.288-15.324-54.967-16.13-83.449-3.386-2.722 1.193-7.497 0.055-10.3-1.667-12.993-7.883-25.764-16.101-38.366-24.707-3.024-2-6.745-5.386-7.134-8.496-1.749-14.408-4.746-29.288-2.999-43.445 4.332-35.063 23.68-68.431 72.846-53.106 57.909 18.183 104.158 54.106 142.273 100.659 9.801 11.938 9.551 26.486 3.611 39.395zM315.544 457.31c25.568 6.939 45.389 22.944 62.879 41.933 6.579 7.093 5.108 16.893-1.901 23.501-7.731 7.274-16.893 5.914-26.774-1.514-13.575-10.257-27.469-20.279-42.336-28.455-9.952-5.468-16.92-1.999-22.39 8.134-3.193 5.941-5.219 12.576-7.537 18.988-3.151 8.829-10.8 14.478-18.905 13.687-9.286-0.903-15.824-8.107-16.657-18.266-0.375-4.040-1.068-8.037-1.43-12.063-0.998-12.812-7.718-20.765-19.613-25.817-17.615-7.496-34.133-17.073-44.348-34.27-5.316-8.899-2.818-19.323 5.441-24.639 7.815-5.067 17.268-2.485 24.402 4.359 7.704 7.357 16.517 13.629 25.373 19.668 11.382 7.745 23.277 14.769 36.311 22.944 12.95-10.481 29.676-13.034 47.485-8.19zM619.343 504.878c10.494-2.666 19.907 3.318 22.211 13.256 2.277 9.646-3.082 18.405-13.326 21.417-8.885 2.637-18.099 4.54-26.819 7.731-13.602 4.97-22.207 14.824-24.484 29.315-1.056 6.719-1.224 13.631-1.333 20.432-0.276 12.769-6.746 20.849-17.517 21.263-10.938 0.444-19.21-7.745-18.28-20.932 0.944-14.145 2.886-28.469 6.564-42.114 5.746-21.139-9.965-42.974-29.759-39.489-11.59 2.039-20.516-3.263-22.861-13.645-2.068-9.008 3.637-17.558 14.227-20.917 17.891-5.649 34.215-1.471 48.137 10.119 8.605 7.258 15.602 16.587 23.182 24.818 12.689-3.579 26.291-7.77 40.059-11.255zM727.945 575.404c-7.052 5.608-14.826 10.411-22.598 14.935-11.491 6.663-22.153 4.233-27.484-5.663-4.968-9.245-1.027-18.683 9.829-25.692 8.356-5.386 16.768-10.965 23.985-17.739 12.104-11.395 12.882-21.292 1.667-33.326-9.523-10.161-20.82-18.726-31.677-27.539-9.050-7.369-11.658-16.768-6.134-25.305 5.663-8.731 16.379-10.895 26.317-4.343 9.327 6.163 17.877 13.548 27.261 19.738 2.639 1.777 7.054 2.304 10.3 1.638 10.3-2.179 20.238-6.009 30.619-7.704 12.16-1.985 20.294 4.289 21.82 14.976 1.5 10.23-5.081 17.92-17.241 20.335-6.69 1.318-13.24 2.901-21.125 4.635 9.19 31.148-3.219 53.134-25.539 71.054z" />
<glyph unicode="&#xe105;" d="M516.036 950.246c250.26 0 482.256-190.534 482.256-496.572 0-289.736-214.226-508.406-515.823-508.406-343.060 0-456.59 214.719-456.59 529.137 0.002 311.468 172.764 475.841 490.156 475.841zM120.16 459.599c0-203.354 136.731-434.365 368.234-434.365 269.017 0 421.543 213.733 421.048 430.909-0.492 217.189-140.184 410.191-403.279 406.735-253.715-3.454-386.004-130.313-386.004-403.279zM453.347 685.179c0 23.692-0.493 39.982 1.481 82.925 27.148-0.493 50.842 3.949 77.003 3.949 5.429-12.339 3.454-63.676 3.454-78.484 129.819-8.392 153.513-71.574 163.879-169.308-4.937-14.316-51.337-8.885-78.484-13.327-13.822 58.245-9.871 92.305-82.434 96.254-2.961-53.803 0.493-103.165 0-154.006 113.036 1.481 140.186-52.309 140.186-127.338s-67.13-89.344-124.39-96.748c0-37.516 0-53.309-5.431-87.369-17.77 0-72.066-11.353-83.418-1.48 0 29.617 0.493 50.84-1.975 86.873-163.879-5.924-159.93 129.819-155.488 147.096 36.526 3.456 51.335 2.961 73.547 1.48 3.456-40.969-0.986-92.797 77.003-85.393 5.431 37.513-3.454 89.344-8.392 126.857-83.42 7.405-135.743 58.726-135.743 133.757 0.003 96.748 55.781 122.909 139.201 134.263zM389.178 557.827c-4.442-74.042 57.752-81.446 57.752-81.446l2.961 134.262c0.002-0.002-58.245-6.417-60.713-52.816zM547.133 392.974l6.417-104.149c0 0 65.65 18.263 56.272 62.193-9.38 43.931-62.689 41.957-62.689 41.957z" />
<glyph unicode="&#xe106;" d="M995.593 726.161c15.341-43.057 19.811-87.103 19.152-132.89-2.4-147.526-2.4-295.050-3.294-442.576-0.188-25.412-5.27-32.893-29.647-39.668-62.633-17.79-125.879-16.377-188.937-2.683-43.575 9.458-86.866 20.657-130.396 30.257-31.812 7.153-63.811 8.987-95.997 1.27-10.117-2.4-16.519-6.071-18.729-17.599-3.342-17.27-14.024-24.752-31.365-24.987-13.764-0.142-27.505-0.142-41.269 0.186-16.705 0.377-26.47 6.729-30.070 22.682-3.012 13.554-11.365 18.026-23.105 21.176-41.411 11.199-81.104 1.271-120.726-9.175-50.046-13.223-100.163-25.554-152.537-25.882-43.646-0.283-84.61 10.868-124.561 26.633-13.6 5.366-18.070 16.848-18.070 31.012 0.142 93.974-0.046 187.853-0.046 281.733-0.024 62.14-0.447 124.279 0.305 186.371 0.611 51.505 11.976 101.762 20.304 152.255 4.471 27.153 32.775 35.082 53.787 17.2 0.707-0.589 1.294-1.341 2-2 38.422-34.681 60.423-37.105 106.633-11.976 20 10.846 39.905 21.999 60.916 30.964 63.222 26.988 120.702 15.2 174.159-25.057 24.823-18.635 46.988-40.165 66.188-64.352 8.68-10.87 13.175-9.977 21.67 0.305 27.836 33.27 59.129 62.775 97.903 83.48 49.691 26.423 99.526 24.822 149.315 1.341 21.456-10.117 42.303-21.859 63.527-32.609 38.917-19.695 60.8-16.777 93.222 12.351 7.434 6.707 14.682 13.483 25.504 14.471 17.647 1.623 29.128-5.553 34.729-22.494 6.494-19.905 12.942-39.834 19.434-59.74zM465.937 257.939c0.964 1.976 1.553 2.778 1.553 3.529 0.377 128.466 0.637 257.005 1.034 385.495 0.024 4.33-0.377 8.023-3.342 11.812-24.305 31.741-50.306 61.858-82.703 85.881-36.47 27.011-74.633 33.316-115.855 10.774-19.953-10.916-40.376-21.175-60.892-31.104-32.94-15.882-67.27-24.117-103.363-11.788-10.776 3.669-13.012 1.976-13.036-9.387-0.024-132.797-0.447-265.452-0.87-398.295-0.046-5.883 0.659-10.776 5.859-15.012 21.011-17.225 43.668-21.647 69.199-11.529 23.035 9.223 44.163 22.069 66.116 33.408 62.327 32.142 122.772 31.904 181.854-8.187 19.623-13.365 36.751-29.457 54.446-45.599zM912.113 714.351c-33.457-13.247-65.504-12.283-97.174 0.213-23.574 9.245-45.408 21.646-67.48 33.975-39.764 22.376-79.387 27.317-119.526 0.8-37.033-24.47-65.41-57.387-92.397-91.95-3.246-4.284-2.753-8.989-2.729-13.53-0.283-77.268-0.213-154.513-0.425-231.805-0.118-50.963-0.328-101.973-0.495-155.102 13.884 11.952 25.6 22.682 38.072 32.517 51.384 40.516 107.431 57.74 171.477 33.457 21.881-8.233 42.068-19.763 62.587-30.822 22.071-11.907 44.187-24.893 71.199-19.905 23.482 4.424 35.575 18.258 35.669 41.786 0.142 16.611 0.423 33.174 0.519 49.789z" />
<glyph unicode="&#xe107;" d="M86.968 162.662c90.537 29.93 170.786 134.671 232.067 302.913l0.116 0.3c-17.126 6.39-27.32 19.988-27.32 42.694 0 39.692 33.318 51.654 52.279 51.654 24.776 0 54.449-18.251 54.449-51.654 0-17.167-10.703-33.867-22.95-40.858-0.8-0.451-1.785-0.8-2.669-1.201l58.745-125.797 97.451 329.561c-8.508 7.675-13.38 18.918-13.38 34.502 0 39.709 33.318 51.654 52.289 51.654 24.777 0 54.456-18.253 54.456-51.654 0-15.631-9.009-30.513-19.854-38.39 36.27-43.679 63.232-77.346 82.92-103.373 16.748 66.686 51.871 181.055 122.16 378.627-171.646-2.002-628.972-9.325-687.515-9.325-68.345 0-103.658-36.405-107.078-145.034-3.42-113.266 3.42-391.207 0-502.721 0.558-0.085 1.050-0.135 1.618-0.218-1.826-49.884-4.113-92.996-5.879-129.468 22.714-2.743 49.292-1.741 78.095 7.788zM1014.625 308.862c2.755 165.572-3.82 437.789-9.926 511.348-6.69 74.228-62.732 120.008-135.24 121.76-69.139-194.586-131.669-387.285-140.314-444.196 3.139-6.39 4.89-11.428 5.804-15.683 16.418-7.793 30.032-23.241 30.032-45.814 0-17.169-10.709-33.853-22.955-40.858-7.291-4.157-17.985-6.292-29.215-6.292-33.384 0-54.574 14.165-54.574 47.15 0 16.433 5.856 27.911 13.899 35.953-0.502 2.569-0.886 5.806-0.817 10.494-16.218 24.892-56.76 77.063-99.137 129.034l-113.469-383.732c21.129-5.055 41.626-22.156 41.626-49.901 0-17.169-10.711-33.871-22.95-40.858-7.289-4.157-18.002-6.292-29.222-6.292-33.377 0-54.566 14.148-54.566 47.15 0 25.409 13.665 39.357 28.464 46.182l-73.752 157.947c-65.3-151.525-147.429-244.169-244.654-275.753-25.859-8.393-50.427-11.645-72.934-11.645-8.383 0-16.442 0.5-24.216 1.3-0.476-18.15-0.492-33.468 0.358-44.962 2.845-46.234 19.939-86.675 87.141-91.882 22.782-1.734 119.608-2.301 239.783-2.301 235.788 0 561.56 2.884 596.296 8.658 58.093 9.829 87.723 36.405 87.723 95.348-0.5 50.185 2.304 162.703-3.186 247.842z" />
<glyph unicode="&#xe108;" d="M768.102 926.954c25.861-0.331 55.922-0.090 90.184 0.741 34.261 0.817 64.833 1.239 91.703 1.239 15.126-17.475 27.126-52.898 36.035-106.293 8.897-53.383 14.271-106.703 16.123-159.918 1.836-53.229 3.19-105.056 4.033-155.489 0.829-50.422 1.76-78.594 2.77-84.528 4.033-26.042 5.028-93.606 3.012-202.696-31.235-3.625-63.314-6.919-96.236-9.88-32.92-2.973-59.79-5.195-80.609-6.676-20.832-1.48-51.072-3.637-90.706-6.434-39.636-2.796-69.366-4.864-89.177-6.176-1.009-20.105-0.676-46.3 1.009-78.607 10.749 0.664 21.919-1.481 33.509-6.422 11.578-4.941 18.56-12.689 20.91-23.231 5.028-36.917 6.547-70.207 4.529-99.86-42.329-5.936-106.74-9.395-193.236-10.39-86.496-0.983-144.855-2.797-175.095-5.439-4.035 13.519-6.217 27.764-6.548 42.762-0.333 15 0.331 35.514 2.017 61.553-0.331 9.561 2.348 15.981 8.054 19.275 5.719 3.294 13.111 5.693 22.173 7.173 9.076 1.481 15.445 4.035 19.147 7.66 0 5.272-0.932 16.237-2.77 32.882-1.85 16.633-2.437 30.406-1.761 41.281-2.348 4.277-26.627 7.735-72.812 10.378-46.184 2.63-95.737 5.757-148.635 9.395-52.91 3.625-86.419 8.566-100.523 14.831-19.147 115.345-33.763 233.663-43.834 354.956-10.085 121.279-12.1 227.726-6.050 319.351 31.567 13.174 138.486 23.31 320.719 30.406 182.217 7.084 326.245 9.805 432.067 8.158zM920.259 875.535c-542.839 0-830.037-9.88-861.606-29.653 5.705-53.728 11.245-151.214 16.62-292.419 5.373-141.232 14.283-242.993 26.703-305.273 29.232-0.664 86.675-3.715 172.327-9.151 85.664-5.439 145.621-7.494 179.883-6.178 24.189 0.995 66.263 2.222 126.22 3.715 59.957 1.48 108.080 3.036 144.357 4.697 36.279 1.647 78.020 5.016 125.211 10.134 47.191 5.106 86.419 11.935 117.654 20.514 0.331 22.735-6.052 149.796-19.149 381.148-2.69 51.086-12.085 125.249-28.22 222.466zM111.551 812.261c327.19 18.79 589.024 25.875 785.539 21.255 2.017-26.027 5.286-61.718 9.817-107.022 4.543-45.329 8.067-81.9 10.581-109.754 2.528-27.853 5.374-64.768 8.566-110.735 3.191-45.979 4.622-82.563 4.291-109.754-0.331-27.189-1.34-62.867-3.024-107.034-66.505-2.961-116.825-5.016-150.907-6.178-34.096-1.162-78.785-2.386-134.031-3.702-55.26-1.328-106.561-1.736-153.933-1.239-47.358 0.498-95.061 1.737-143.094 3.702-17.475 0.995-41.32 0.422-71.549-1.724-30.24-2.157-54.009-3.381-71.305-3.715-17.309-0.331-40.235 2.299-68.777 7.916 11.412 16.812 74.394 27.853 188.959 33.125 52.719 2.297 147.128 2.386 283.165 0.244 136.049-2.145 229.769-0.244 281.16 5.693l-0.498 32.626c0 21.75-0.089 45.225-0.254 70.436-0.179 25.223-0.932 55.948-2.273 92.199-1.34 36.253-3.099 70.526-5.284 102.835-2.196 32.295-5.374 64.756-9.573 97.384-4.214 32.626-9.153 59.496-14.86 80.585-53.42-2.644-127.481-4.622-222.21-5.937-94.73-1.314-182.985-3.381-264.783-6.178s-153.6-8.158-215.407-16.058c1.341-40.873 3.855-88.245 7.557-142.138 3.702-53.879 6.306-103.32 7.813-148.303 1.519-44.996 1.582-96.655 0.254-154.991-10.761 7.914-18.891 17.22-24.431 27.928-5.553 10.709-8.745 19.454-9.586 26.206-0.829 6.753-1.596 18.203-2.26 34.364-0.331 3.625-0.51 6.255-0.51 7.902-0.676 16.147-4.531 72.352-11.592 168.586-7.052 96.227-9.58 170.059-7.562 221.476zM670.346 46.978c-22.849 1.978-85.997 4.123-189.455 6.434-5.374 0-12.433 0.742-21.164 2.222-8.745 1.48-16.3 2.553-22.671 3.217-6.383 0.664-12.931 0.906-19.657 0.741-6.716-0.177-12.419-1.812-17.132-4.941-4.71-3.14-8.233-7.837-10.583-14.092 1.684-8.899 5.209-15.573 10.583-20.028 5.374-4.444 12.1-6.842 20.156-7.161 8.067-0.331 16.044 0 23.934 0.983 7.89 0.995 16.964 2.299 27.215 3.956 10.238 1.647 18.394 2.476 24.433 2.476 10.085 0 24.265-0.741 42.585-2.222 18.306-1.493 33.749-2.4 46.348-2.731 12.6-0.321 25.62 0 39.049 0.995 13.428 0.981 24.113 3.956 32.002 8.897s12.677 12.025 14.36 21.253zM607.863 179.478c-24.866-0.995-45.687-3.715-62.471-8.156-16.812-4.454-30.075-10.889-39.813-19.289-9.754-8.399-17.055-16.478-21.917-24.226-4.864-7.736-9.829-18.217-14.858-31.391 9.062-0.331 31.913-0.077 68.521 0.741 36.61 0.817 59.628 1.073 69.033 0.742-0.343 8.233 0.077 20.845 1.263 37.821 1.174 16.978 1.251 31.555 0.242 43.757zM793.465 477.935l-77.648 77.611-36.379-76.269-97.244 226.731 226.717-97.051-76.167-36.647 77.507-77.457-16.785-16.916z" />
<glyph unicode="&#xe109;" d="M881.263 610.782c-13.805 1.488-30.969 0.927-51.482-1.678-20.519-2.615-38.429-2.797-53.719-0.56-1.495 13.797-3.453 26.58-5.874 38.33-2.432 11.75-6.716 25.74-12.872 41.969-6.154 16.227-13.621 30.863-22.383 43.926-8.769 13.054-20.895 26.301-36.372 39.729-15.483 13.43-33.207 24.709-53.159 33.853-19.959 9.137-44.582 16.596-73.861 22.383-29.292 5.78-61.648 8.675-97.085 8.675-102.595 0-184.571-28.259-245.934-84.775-61.368-56.516-97.461-131.596-108.276-225.227-4.11-34.326-6.154-65.847-6.154-94.568 0-54.47 7.554-103.337 22.661-146.608 15.109-43.279 34.973-78.534 59.595-105.759 24.62-27.238 53.719-49.804 87.294-67.712 33.574-17.903 67.516-30.493 101.842-37.769 34.318-7.276 70.13-10.912 107.438-10.912 84.678 0 155.561 21.91 212.637 65.749 57.076 43.829 85.615 100.248 85.615 169.272 0 21.26-2.615 41.774-7.834 61.549-6.716-6.345-14.087-13.988-22.103-22.939-8.028-8.953-14.744-16.701-20.145-23.221-5.414-6.531-13.428-16.324-24.064-29.379-10.631-13.065-18.379-22.385-23.219-27.979-8.585 2.98-20.617 8.574-36.093 16.785-15.485 8.204-28.259 13.614-38.33 16.229 15.669 24.987 33.103 50.924 52.32 77.783 19.209 26.856 41.687 54.924 67.43 84.214 25.737 29.281 46.442 47.092 62.109 53.439 88.417-61.553 160.224-119.566 215.438-174.027-4.11-13.063-9.793-24.624-17.068-34.69-7.276-10.074-14.643-15.304-22.101-15.672-14.549 5.596-33.488 16.13-56.796 31.614-23.318 15.479-38.33 24.528-45.046 27.143 0.742-17.908 1.118-30.78 1.118-38.612 0-62.305-7.748-114.993-23.221-158.080-15.485-43.087-39.269-77.693-71.345-103.801-32.089-26.115-70.605-44.959-115.553-56.516-44.957-11.566-98.956-17.345-161.995-17.345-34.326 0-71.067 1.678-110.235 5.033-32.831 2.606-64.543 8.76-95.128 18.466-30.592 9.697-56.892 20.985-78.899 33.855-22.014 12.872-42.999 27.699-62.952 44.484-19.961 16.787-36.093 32.080-48.403 45.884-12.312 13.798-23.695 28.167-34.135 43.092-10.448 14.911-17.442 25.639-20.983 32.172-3.55 6.526-6.252 11.841-8.112 15.949-17.164 34.318-27.979 84.401-32.456 150.245-4.478 65.838-4.854 128.79-1.121 188.856 2.606 37.675 10.631 74.703 24.062 111.075 13.43 36.374 33.103 71.347 59.035 104.921 25.924 33.574 56.796 63.041 92.609 88.412 35.813 25.364 79.179 45.693 130.101 60.993 50.92 15.292 106.039 22.943 165.354 22.943 58.561 0 111.259-6.996 158.080-20.983 46.812-13.99 84.678-31.896 113.594-53.721 28.904-21.823 53.064-47.283 72.463-76.38 19.393-29.099 33.015-57.636 40.851-85.615 7.828-27.977 12.112-56.149 12.865-84.495z" />
<glyph unicode="&#xe10a;" d="M803.36 343.241c17.266-110.841 75.754-182.142 90.238-295.216-116.973-43.447-235.056 54.589-325.849 94.136-113.632-54.589-180.473-159.307-308.029-199.41-57.931 108.059 40.661 207.21 20.052 300.783-11.139 47.903-60.715 54.033-97.478 85.782-55.699 46.788-109.174 118.647-130.896 169.332 45.674 92.465 171.559 99.151 278.508 127 22.835 117.53 36.204 244.528 93.577 325.297 121.431-60.715 159.307-198.854 245.644-292.434 71.849-32.305 208.876-4.456 262.347-54.586-0.556-94.693-90.233-173.228-128.113-260.685zM139.962 166.668c-3.898 8.356-7.798 15.041-17.266 26.179 28.409 32.311 32.865 51.246 74.639 54.033 26.179-42.89-13.37-33.423-57.373-80.212zM231.869 701.961c-50.13 14.483-98.033 31.751-96.922 94.693 40.107-24.509 111.961-19.495 96.922-94.693zM598.941 232.4c42.89-39.554 107.498-58.489 160.971-88.569-11.138 65.727-46.788 99.705-49.574 148.163-5.014 103.049 117.526 157.64 146.493 259.574-64.056 16.71-138.694-6.127-227.813 17.266-17.823 33.976-47.903 54.031-70.182 84.666-43.445 61.269-62.945 139.81-120.871 187.156-5.572-98.034-34.534-171.005-45.679-263.467-56.257-56.26-149.835-72.967-232.272-100.82 65.169-74.639 159.307-122.54 230.605-191.053-46.235-38.436-63.502-159.311-62.385-216.68 88.566 58.482 165.99 149.277 270.706 163.763zM583.902 68.637c2.784-32.865 22.286-50.132 15.039-91.911-43.448 3.9-38.991 51.804-42.89 92.471 9.472-0.002 18.384-0.56 27.851-0.56zM775.509 828.404c1.671-49.017-27.293-71.299-55.704-91.909-14.479 18.941-8.352 32.865 1.671 55.702 12.814 28.966 27.298 56.259 54.033 36.207zM930.362 340.461c17.823-9.475 41.776-10.588 36.207-39.555-27.853-10.022-94.694 8.919-89.122 58.491 24.506-1.109 33.973-6.124 52.915-18.935z" />
<glyph unicode="&#xe10c;" d="M514.693 951.54c-146.268 0-269.629-115.538-269.629-251.653 0-170.547 116.151-299.426 269.629-299.426s269.631 128.879 269.631 299.426c0 136.115-123.363 251.653-269.631 251.653zM1014.859-44.010l-8.434 91.674c-21.043 181.685-194.388 281.699-491.73 281.699s-470.687-100.014-491.73-282.235l-8.436-91.136c0 0-0.524-6.135-0.524-9.808h1002.033l-1.179 9.807z" />
<glyph unicode="&#xe10d;" d="M250.812 774.683c5.84 9.598 9.013 21.516 9.53 35.756 0.503 14.227-0.258 28.032-2.328 41.407-2.055 13.377-3.77 26.663-5.132 39.868-1.376 13.199-0.258 25.119 3.335 35.751 3.608 10.626 10.714 18.693 21.347 24.178 78.88-59.67 143.696-109.751 194.463-150.211 15.084 5.478 30.604 14.484 46.546 27.010 15.957 12.512 30.264 24.946 42.953 37.296 12.689 12.341 25.812 24.083 39.359 35.234 13.546 11.143 28.112 19.031 43.727 23.668 15.602 4.628 31.64 4.71 48.099 0.251 2.737-4.806 5.052-9.856 6.943-15.174 1.879-5.323 3.171-11.409 3.854-18.263 0.695-6.863 1.376-12.947 2.055-18.263 0.695-5.316 0.777-12.341 0.259-21.088-0.505-8.747-0.94-15.432-1.28-20.060-0.34-4.635-1.212-12.013-2.574-22.122-1.376-10.122-2.314-16.976-2.831-20.577-0.519-3.601-1.635-10.892-3.335-21.864-1.731-10.981-2.749-17.488-3.092-19.55 14.404-6.168 31.804-8.917 52.21-8.23 20.408 0.688 39.521 2.913 57.354 6.692 17.835 3.77 37.127 4.71 57.873 2.825 20.748-1.886 38.665-8.148 53.763-18.773-1.377-14.751-5.583-28.29-12.607-40.637-7.026-12.348-14.664-22.299-22.886-29.834-8.236-7.549-16.717-16.894-25.472-28.039-8.74-11.15-15.002-22.552-18.773-34.212 10.974-7.542 27.786-14.063 50.413-19.543 22.641-5.494 43.129-11.837 61.479-19.040 18.338-7.202 31.121-17.835 38.323-31.891-8.576-16.807-20.842-31.556-36.785-44.239-15.942-12.694-34.729-25.383-56.334-38.072s-37.724-23.499-48.358-32.401c6.182-11.327 16.119-23.579 29.841-36.785 13.71-13.204 26.656-24.614 38.842-34.212 12.17-9.598 22.967-20.83 32.401-33.695 9.433-12.851 14.159-25.132 14.159-36.785-8.236-7.897-20.326-14.129-36.268-18.773-15.956-4.628-31.38-7.719-46.3-9.257-14.921-1.539-30.606-4.291-47.078-8.236-16.459-3.948-29.312-9.503-38.581-16.719 0.693-14.746 4.547-30.442 11.585-47.065 7.025-16.635 13.969-30.536 20.83-41.672 6.863-11.134 12.17-24.94 15.942-41.414 3.772-16.445 2.396-32.061-4.111-46.805-18.174-1.034-35.41 0.94-51.692 5.908-16.297 4.983-29.761 10.631-40.393 16.99-10.633 6.345-24.26 11.817-40.897 16.445-16.637 4.63-34.198 6.263-52.727 4.902-12.689-11.327-23.062-34.988-31.121-70.997s-15.357-59.506-21.866-70.48c-15.776-1.022-28.983 1.362-39.601 7.216-10.633 5.827-18.775 13.792-24.438 23.907s-10.808 20.586-15.437 31.394c-4.63 10.796-10.539 21.156-17.741 31.123-7.202 9.936-15.956 16.961-26.235 21.074-20.584-10.619-47.512-29.747-80.771-57.342-33.273-27.61-59.506-46.737-78.703-57.37-9.612 2.070-17.671 4.983-24.178 8.74-6.521 3.785-11.489 8.658-14.921 14.677-3.43 5.99-6.004 12.088-7.718 18.256-1.715 6.166-2.492 13.969-2.314 23.402s0.519 18.012 1.034 25.73c0.517 7.707 1.28 17.481 2.314 29.326 1.021 11.817 1.715 21.866 2.055 30.087-9.257 3.432-26.071 2.478-50.413-2.831-24.356-5.308-46.3-9.856-65.85-13.626-19.55-3.772-39.781-1.212-60.692 7.718 2.383 18.516 7.446 36.432 15.167 53.748 7.718 17.316 15.778 31.556 24.178 42.694 8.4 11.15 18.516 24.45 30.36 39.876 11.831 15.423 20.992 28.807 27.515 40.12-8.917 12.006-22.98 21.429-42.177 28.29-19.209 6.861-39.359 13.382-60.445 19.55-21.088 6.18-36.963 13.885-47.58 23.156 2.737 15.425 9.421 28.807 20.053 40.12 10.633 11.327 21.864 19.55 33.695 24.697s25.636 11.489 41.414 19.031c15.764 7.542 28.114 14.921 37.043 22.115-3.43 10.293-10.291 19.98-20.584 29.066-10.293 9.088-21.347 16.976-33.178 23.668-11.831 6.685-23.32 13.628-34.47 20.83s-20.149 15.771-27.010 25.725c-6.863 9.945-9.598 21.088-8.223 33.435 1.021 9.259 4.792 17.495 11.313 24.697 6.508 7.202 13.546 12.6 21.088 16.2s18.174 8.311 31.896 14.145c13.71 5.827 24.697 10.974 32.934 15.439-0.355 4.111-3.526 10.544-9.53 19.292-6.004 8.74-12.43 18.079-19.292 28.030-6.863 9.945-13.029 20.659-18.516 32.148s-7.46 23.492-5.908 36.016c1.538 12.512 7.46 24.083 17.739 34.722 11.327-0.346 31.816-4.207 61.481-11.578 29.655-7.38 56.323-9.347 79.985-5.915zM383.536 147.092c5.487-6.182 5.405-15.956-0.258-29.326-5.651-13.368-11.232-26.67-16.719-39.861-5.487-13.204-5.651-22.559-0.503-28.046 6.847 5.147 15.165 12.348 24.94 21.62 9.776 9.257 18.434 17.125 25.975 23.66 7.542 6.508 16.541 12.933 27.011 19.277 10.455 6.345 22.463 10.81 36.009 13.384 13.548 2.574 28.549 3.171 45.022 1.797 2.383-5.84 5.731-16.2 10.020-31.119 4.289-14.908 8.917-26.996 13.901-36.268 4.954-9.259 11.735-16.297 20.311-21.088 3.091 7.202 6.427 17.154 10.033 29.841 3.594 12.675 6.863 23.485 9.776 32.401s6.767 18.080 11.571 27.527c4.806 9.423 11.232 16.963 19.292 22.627 8.059 5.663 17.575 9.341 28.549 11.056 17.493-9.598 30.781-16.8 39.875-21.591 9.081-4.82 21.605-10.373 37.548-16.719 15.942-6.359 31.462-11.245 46.56-14.676-2.749 15.097-8.931 30.616-18.529 46.56-9.597 15.956-17.997 32.073-25.199 48.357-7.202 16.282-10.291 34.729-9.259 55.299 15.085-1.717 29.066-0.858 41.919 2.574 12.865 3.417 23.238 7.718 31.121 12.865 7.895 5.146 17.915 9.854 30.1 14.145 12.17 4.289 24.94 6.248 38.323 5.922-2.749 10.972-7.897 20.992-15.439 30.087-7.542 9.079-15.425 16.882-23.661 23.417-8.221 6.506-16.295 13.45-24.178 20.828-7.895 7.366-14.227 16.719-19.031 28.032-4.806 11.313-6.863 24.356-6.166 39.091 6.847 10.974 18.434 20.069 34.715 27.271s32.239 14.662 47.84 22.374c15.602 7.718 26.315 17.744 32.155 30.094-9.95 4.451-31.38 10.544-64.299 18.263-32.932 7.718-55.735 16.37-68.424 25.975-0.341 15.092 2.394 28.629 8.236 40.644 5.827 12 12.512 21.347 20.053 28.030 7.542 6.69 15.602 15.003 24.178 24.955 8.576 9.938 14.744 19.883 18.528 29.834-12.348 0.681-33.613-1.205-63.795-5.663-30.184-4.458-56.675-6.255-79.478-5.398-22.803 0.852-39.861 7.462-51.188 19.808 0.693 10.965 3.688 27.684 9.011 50.154 5.309 22.456 7.718 41.576 7.202 57.354-0.517 15.773-5.922 30.176-16.213 43.211-51.094-44.239-106.993-85.572-167.699-123.977-7.895 7.202-19.55 19.461-34.973 36.785-15.439 17.311-28.645 31.544-39.617 42.694-10.974 11.143-24.356 21.429-40.12 30.868-15.78 9.428-30.7 13.969-44.762 13.628 1.376-8.23 5.485-26.67 12.348-55.299 6.861-28.638 11.653-51.529 14.403-68.676-6.861-5.485-14.484-9.434-22.885-11.831-8.414-2.403-18.27-3.26-29.583-2.574-11.312 0.688-20.666 1.545-28.030 2.574-7.38 1.029-18.188 3.002-32.415 5.915s-23.743 4.888-28.549 5.915c1.715-9.952 6.248-18.603 13.626-25.975 7.38-7.378 15.003-13.036 22.898-16.976 7.883-3.948 15.261-9.863 22.122-17.746 6.849-7.895 10.796-17.154 11.831-27.779-1.034-11.667-5.241-20.837-12.605-27.52-7.38-6.69-16.555-11.32-27.515-13.892-10.986-2.574-22.217-4.628-33.695-6.175-11.505-1.538-22.736-4.111-33.695-7.712-10.988-3.601-19.224-8.665-24.697-15.181 6.849-4.458 19.197-12.008 37.030-22.634 17.835-10.633 31.299-19.12 40.393-25.465 9.079-6.344 19.197-15.609 30.345-27.779 11.136-12.17 19.292-25.295 24.438-39.351-4.466-11.313-12.088-21.347-22.898-30.102-10.795-8.74-21.782-15.423-32.918-20.053-11.15-4.628-22.463-11.066-33.954-19.29s-19.808-17.493-24.94-27.773c7.528-3.784 18.937-8.236 34.198-13.382s27.691-9.516 37.301-13.112c9.598-3.606 18.773-9.965 27.515-19.031 8.753-9.093 13.967-20.325 15.696-33.708-7.895-15.084-22.463-36.608-43.728-64.556-21.265-27.95-36.186-50.671-44.751-68.152 5.827 1.021 18.338 3.852 37.547 8.482 19.197 4.628 35.41 8.141 48.616 10.551 13.191 2.396 28.629 4.439 46.302 6.166 17.657 1.717 33.258 1.198 46.804-1.538 13.549-2.748 24.603-7.716 33.181-14.916z" />
<glyph unicode="&#xe10e;" d="M327.648 940.486c39.32 8.428 77.769 12.641 115.352 12.641 34.051 0 68.922-3.343 104.554-10.008 35.635-6.676 71.555-16.947 107.715-30.814 36.161-13.879 70.926-30.734 104.293-50.565 33.367-19.843 64.444-43.81 93.228-71.897 28.783-28.102 53.908-58.914 75.32-92.44 21.414-33.538 38.267-71.726 50.567-114.562 12.3-42.848 18.435-87.962 18.435-135.366 0-48.116-5.188-93.757-15.537-136.948-10.351-43.192-24.414-81.485-42.136-114.825-17.725-33.369-38.451-64.106-62.153-92.179-23.704-28.1-48.985-51.883-75.849-71.369-26.863-19.488-54.7-36.081-83.485-49.775s-56.885-23.704-84.275-30.025c-27.39-6.32-53.726-9.481-79.008-9.481-37.583 0-76.559 5.69-116.932 17.12-40.373 11.404-80.142 27.651-119.303 48.72s-76.375 47.749-111.665 80.061c-35.289 32.288-66.287 67.842-92.966 106.66-26.679 38.794-47.853 83.226-63.469 133.263-15.618 50.036-23.439 101.92-23.439 155.646 0 100.42 27.389 192.070 82.169 274.949 54.775 82.865 127.648 143.268 218.586 181.192zM129.073 621.293c-15.802-46.353-23.702-94.81-23.702-145.376 0-44.245 5.794-88.224 17.382-131.946 11.588-43.716 29.681-85.96 54.253-126.676 24.571-40.743 54.33-76.638 89.279-107.715 34.947-31.077 77.771-56.018 128.521-74.795 50.749-18.806 105.791-28.18 165.127-28.18 9.824 0 23.257 2.106 40.293 6.32 17.041 4.215 37.216 11.327 60.573 21.333 23.361 10.006 47.22 22.122 71.636 36.345 24.416 14.22 48.643 32.655 72.689 55.303 24.044 22.649 45.379 47.406 63.995 74.269 18.621 26.863 33.712 59.073 45.3 96.655 11.588 37.567 17.382 77.428 17.382 119.566 0 58.993-13.433 119.473-40.294 181.456-26.861 61.969-59.597 112.981-98.234 153.013-26.679 27.732-56.016 50.908-87.963 69.528-31.945 18.606-66.814 32.736-104.554 42.4-37.74 9.653-75.926 16.408-114.562 20.279-38.636 3.859-82.881 5.794-132.734 5.794-57.94-32.314-104.738-69.712-140.372-112.191-35.635-42.494-63.657-94.285-84.014-155.383zM862.797 483.29c0-37.581-4.398-75.414-13.169-113.509-8.769-38.108-22.042-74.359-39.767-108.768-17.724-34.42-38.9-65.050-63.471-91.911-24.569-26.863-53.803-48.196-87.697-63.998-33.896-15.8-70.134-23.702-108.769-23.702-55.491 0-107.45 10.694-155.909 32.13-48.459 21.412-89.463 50.302-122.989 86.646s-59.967 79.090-79.271 128.258c-19.304 49.157-28.971 100.944-28.971 155.382 0 30.892 3.502 60.916 10.535 90.069 7.031 29.141 18.698 57.412 35.026 84.803s36.343 51.263 60.047 71.634c23.702 20.359 53.724 36.687 90.069 48.986 36.343 12.285 76.638 18.435 120.883 18.435 69.871 0 133.603-12.471 191.2-37.398 57.597-24.94 104.026-61.548 139.319-109.821 35.29-48.288 52.934-104.030 52.934-167.236zM497.251 141.974c88.491 0 159.15 22.386 212.006 67.156 52.857 44.773 79.273 103.32 79.273 175.665 0 49.155-9.562 98.232-28.706 147.219-19.145 48.985-45.379 87.342-78.746 115.089-30.548 25.283-69.448 46.259-116.668 62.942-47.222 16.672-88.753 25.020-124.571 25.020-25.283 0-49.171-5.359-71.634-16.065-22.465-10.718-41.875-25.204-58.202-43.453-16.328-18.265-30.549-39.161-42.665-62.681-12.116-23.532-21.149-48.642-27.127-75.32-5.978-26.692-8.955-53.383-8.955-80.063 0-36.528 5.004-70.764 15.012-102.709 10.008-31.961 23.177-58.994 39.504-81.116s34.316-41.981 53.989-59.52c19.674-17.567 39.583-31.445 59.783-41.61 20.198-10.192 38.636-17.83 55.306-22.914 16.672-5.111 30.816-7.639 42.402-7.639zM734.276 454.321c0-36.871-6.241-71.028-18.698-102.448-12.459-31.432-28.628-56.979-48.459-76.638-19.831-19.673-41.533-34.947-65.048-45.824-23.52-10.904-47.063-16.329-70.583-16.329-37.581 0-75.583 8.692-114.034 26.073-38.449 17.382-70.581 41.083-96.389 71.107-25.81 30.025-38.716 61.536-38.716 94.548 0 16.143 1.5 33.789 4.478 52.936 2.976 19.132 8.428 39.939 16.328 62.416 7.9 22.465 17.724 42.665 29.496 60.573 11.771 17.91 27.469 32.92 47.142 45.036s41.796 18.171 66.367 18.171c19.304 0 40.479-1.671 63.469-5.004 22.992-3.343 48.010-9.573 75.057-18.698 27.047-9.139 51.434-20.465 73.214-33.975 21.779-13.524 39.951-31.787 54.513-54.779 14.57-23.004 21.862-48.72 21.862-77.164zM372.946 437.465c0-47.063 13.431-83.84 40.294-110.346 26.863-26.522 60.836-39.769 101.92-39.769 41.428 0 78.481 13.339 111.14 40.032 32.655 26.677 48.983 60.046 48.983 100.079 0 24.569-4.292 45.73-12.906 63.468-8.612 17.724-22.306 33.092-41.083 46.087-18.777 12.984-41.163 23.967-67.159 32.92-25.993 8.955-58.281 17.461-96.916 25.547-26.336-11.943-46.957-32.748-61.891-62.416-14.93-29.681-22.383-61.548-22.383-95.601zM430.886 483.29c36.528 21.069 76.902 29.667 121.146 25.81 4.557-8.428 11.667-18.094 21.332-28.969 9.665-10.89 17.198-21.161 22.649-30.814 5.453-9.667 8.165-20.634 8.165-32.922 0-23.532-8.084-42.136-24.23-55.832-16.142-13.694-35.473-20.541-57.938-20.541-27.047 0-51.54 8.335-73.479 25.018-21.937 16.671-32.92 38.188-32.92 64.522-0.002 16.858 5.082 34.765 15.275 53.728z" />
<glyph unicode="&#xe10f;" d="M799.063 504.035c1.509-32.572 5.012-36.079 0-66.145 25.056-21.045 36.087-56.129 30.073-108.242-13.534-20.548-34.579-33.568-54.124-48.608 20.547-27.558 32.572-34.075 32.572-60.636 0-43.59-59.631-70.153-87.195-86.692 49.611-11.522 72.163-41.586 72.163-73.16 0-27.057-16.036-55.119-45.105-74.168-36.079-23.043-172.88-21.038-201.445-27.052-119.265-7.021-229.507-40.093-311.187 23.549-22.048 153.846-50.116 263.083-42.092 421.434 42.092 62.641 86.187 131.294 96.21 228.509 9.525 96.213-19.54 202.452 0 300.669 24.052 10.523 46.606 15.534 68.156 15.534 110.24 0 182.902-131.794 182.902-263.083 0-41.093-7.016-82.183-22.547-119.267 84.185-5.012 239.031-7.016 281.619-62.641zM337.044 753.091c-1.505-83.185 4.009-166.869-18.046-228.507-18.536-50.613-67.651-90.701-76.165-147.328-9.020-59.633 9.525-299.162 46.1-382.348 62.64-10.527 126.787-8.523 186.412 0 55.624 8.521 180.903 1.002 245.043 30.065 25.559 12.027 22.552 30.065 30.071 48.609-31.572 38.081-204.459-0.507-237.025 35.582 8.016 12.522 23.049 14.527 44.095 23.049 37.081 14.032 99.215 28.564 142.816 35.574 36.582 6.014 52.618 33.079 62.638 53.122-17.036 57.134-154.342 6.014-228.006 9.52-26.556 1.007-36.079 25.559-41.595 41.6 60.636 35.575 247.552 13.020 293.652 63.635 2.509 26.561-2.005 46.1-12.025 60.129-44.602 2.511-137.306-2.502-181.9-10.022-10.022-1.5-67.651-13.020-78.177-15.531-32.575-8.016-44.602 8.521-55.625 35.575 37.586 51.118 256.572-2.005 303.674 56.129-19.545 83.185-229.009 61.136-299.665 62.64 4.009 24.054 6.013 41.090 6.013 60.636-5.011 15.534-49.106-3.512-48.106 17.538 4.514 23.050 58.631-3.005 54.118 30.066-1.5 18.54-49.604-9.521-42.092 18.039 4.514 29.568 32.573 8.518 48.104 18.043 26.057 93.706-34.074 149.83-66.144 204.45 17.546-74.165-6.514-120.265-78.167-120.265zM378.134 888.888c-7.52 15.032-35.075 17.036-48.609 17.036-9.525-32.57 1.507-91.201 4.507-132.291 21.052 1.504 46.604 15.534 55.624 24.052 6.518 19.545 2.511 63.143-11.522 91.203zM427.745 507.546c-1.009-19.045-6.013-23.555-7.021-36.082-0.498-13.029-5.004-19.543-6.511-42.092-15.537 27.059-24.557 37.583 13.532 78.174zM403.19 321.126c5.011 17.541 17.534 19.048 26.057 20.548-3.504-10.022-11.522-19.538-10.022-29.561 1.5-8.018 11.529-17.043 16.036-24.557-8.020-10.527-40.595 17.536-32.072 33.57zM415.217 199.863c-2.509 14.031 5.011 27.057 11.522 34.57 2.509-11.017 0.503-25.552 3.511-33.063 2.509-8.018 12.025-15.039 15.034-25.566-15.532-5.004-27.559 10.028-30.066 24.059zM456.305 84.108c1.507 16.034 13.029 25.552 19.041 25.552-1.002-26.561-8.018-31.066 6.013-54.624-18.536 9.028-24.050 5.018-25.054 29.071z" />
<glyph unicode="&#xe110;" d="M105.228 752.905c202.936-7.883 332.977 56.646 383.71 201.46 34.478-13.298 44.332-43.839 71.417-71.421 66.499-68.466 196.54-99.499 364.508-84.724 31.024-414.742-89.163-734.415-370.905-858.549-266.972 128.565-474.836 378.79-461.536 754.62 0.488 19.209 7.385 37.926 12.805 58.614zM530.318 95.821c-2.464 38.42-3.946 77.826-3.946 128.065-33.495-10.836-60.587-1.473-69.944 1.971 0 60.587 23.644 98.021 26.105 156.143-69.453 33.002-54.182 173.879 26.105 182.25-2.461 81.277 1.973 98.517-13.298 156.146-51.226-72.407-161.068-90.141-277.806-97.034 1.476-186.192 130.038-441.342 312.784-527.541zM632.277 447.020c-4.932-33.992-22.168-54.673-39.407-71.424 15.764-47.281 66.499-87.18 45.81-149.74h-58.615c-1.48-37.927 2.958-83.732 4.924-130.036 112.307 122.155 249.245 297.020 222.647 535.914-71.922 5.91-203.436 32.509-260.087 75.363 1.973-73.393 1.973-85.707 5.917-140.38 55.17-1.975 85.709-69.455 78.812-119.697z" />
<glyph unicode="&#xe111;" d="M241.437 335.616c-78.829-7.933-170.056-5.455-229.55 0-24.789 76.844 10.907 164.106 88.25 167.578 26.276-10.907 24.294-48.587 54.042-48.587 25.781 0 43.628 20.823 52.057 53.050 46.109 1.983 50.57-4.958 88.747-32.227 24.294-17.848 27.269-51.069 27.269-51.069-38.176-18.84-65.444-69.41-80.814-88.745zM155.665 695.559c34.21 0 82.301-16.36 76.351-75.855-4.958-51.562-19.335-87.258-70.4-87.258-50.57 0-50.57 40.16-58.999 90.233-8.924 48.090 17.352 72.88 53.048 72.88zM545.85 291.49c37.681 24.294 55.033 68.42 79.326 106.098 137.334 7.933 210.214-89.737 213.188-226.079-33.217-18.343-79.821-13.882-138.325-16.857-169.559-7.436-325.731-0.497-465.048 2.478 1.488 64.951 14.377 136.344 53.547 180.466 37.68 43.133 83.789 57.511 137.829 64.454 41.646 4.958 45.612-13.884 70.898-47.101 14.874-19.831 25.284-42.638 48.585-63.461zM537.423 746.131c65.942 0 129.898-35.2 129.898-118.989 0-81.806-46.111-188.402-79.326-200.3-38.673-13.389-84.285-5.455-110.066 8.924-58.503 32.724-73.871 129.898-70.402 220.628 31.729 42.141 51.562 89.737 129.896 89.737zM931.572 532.444c75.858-6.444 87.26-87.258 87.26-180.468-36.192-8.924-148.736-5.453-191.374-2.975 0 0-69.41 83.789-140.803 83.789 1.487 68.42 57.51 116.512 115.023 101.142 11.404-29.251 33.713-54.042 68.419-54.042 29.745 0.002 39.166 31.732 61.476 52.553zM867.121 545.336c-43.629 0-71.89 37.68-71.89 81.309 0 35.697 20.823 83.292 58.006 83.292 42.141 0 80.319-37.68 74.368-84.284-6.939-50.075-14.872-80.317-60.484-80.317z" />
<glyph unicode="&#xe300;" d="M441.139 295.526c-26.88-140.954-59.699-276.122-156.979-346.726-30.003 213.094 44.083 373.094 78.49 542.976-58.675 98.816 7.066 297.574 130.867 248.576 152.32-60.262-131.891-367.258 58.88-405.606 199.219-40.038 280.525 345.6 157.030 470.989-178.483 181.146-519.578 4.198-477.594-255.027 10.189-63.386 75.674-82.637 26.163-170.086-114.227 25.293-148.326 115.405-143.923 235.52 7.066 196.557 176.64 334.182 346.726 353.229 215.142 24.115 417.024-78.95 444.826-281.293 31.386-228.352-97.024-475.699-327.117-457.882-62.31 4.762-88.474 35.635-137.37 65.331z" />
<glyph unicode="&#xe301;" d="M768 761.395h-146.227c-17.306 0-36.608-22.733-36.608-53.197v-105.574h182.835v-150.528h-182.835v-452.096h-172.646v452.045h-156.518v150.579h156.518v88.576c0 127.027 88.166 230.4 209.203 230.4h146.278v-160.205z" />
<glyph unicode="&#xe302;" d="M983.040 752.998c-34.714-15.411-71.936-25.754-111.053-30.464 39.936 23.91 70.605 61.798 84.992 106.906-37.325-22.118-78.694-38.246-122.675-46.899-35.277 37.581-85.504 61.030-141.107 61.030-106.752 0-193.28-86.528-193.28-193.229 0-15.155 1.69-29.901 5.018-44.032-160.614 8.038-303.053 84.992-398.336 201.933-16.691-28.518-26.266-61.747-26.266-97.178 0-67.072 34.15-126.208 86.016-160.87-31.693 1.024-61.491 9.677-87.552 24.166 0-0.819 0-1.587 0-2.406 0-93.645 66.662-171.725 155.034-189.542-16.179-4.403-33.28-6.758-50.944-6.758-12.442 0-24.525 1.178-36.352 3.43 24.576-76.8 96-132.659 180.531-134.195-66.15-51.866-149.453-82.739-240.026-82.739-15.616 0-30.976 0.922-46.080 2.714 85.504-54.835 187.085-86.835 296.294-86.835 355.482 0 549.888 294.502 549.888 549.939 0 8.346-0.154 16.691-0.563 24.986 37.786 27.238 70.502 61.286 96.461 100.045z" />
<glyph unicode="&#xe303;" d="M101.888 686.643c0-76.442 25.549-131.686 75.878-164.096 41.216-26.573 89.088-30.566 113.971-30.566 6.042 0 10.854 0.256 14.234 0.461 0 0-7.885-51.354 30.208-102.195l-1.741 0.051c-65.997 0-281.293-13.824-281.293-190.822 0-180.070 197.734-189.184 237.363-189.184 3.123 0 4.915 0.051 4.915 0.051 0.461 0 3.277-0.102 8.090-0.102 25.446 0 91.238 3.174 152.371 32.922 79.258 38.451 119.501 105.421 119.501 198.912 0 90.368-61.235 144.128-105.984 183.45-27.29 23.962-50.893 44.646-50.893 64.768 0 20.48 17.203 35.891 39.014 55.398 35.226 31.539 68.506 76.442 68.506 161.331 0 74.65-9.677 124.723-69.325 156.467 6.246 3.174 28.211 5.478 39.117 7.014 32.307 4.403 79.565 9.421 79.565 35.789v5.069h-235.418c-2.355-0.051-238.080-8.806-238.080-224.717zM481.946 225.178c4.506-71.987-57.088-125.133-149.555-131.84-93.901-6.912-171.264 35.379-175.77 107.366-2.15 34.56 13.005 68.403 42.752 95.386 30.208 27.29 71.578 44.134 116.685 47.514 5.325 0.307 10.598 0.563 15.872 0.563 86.886 0 145.766-51.098 150.016-118.989zM420.454 735.949c23.091-81.254-11.776-166.195-67.328-181.862-6.4-1.792-13.005-2.714-19.661-2.714-50.944 0-101.376 51.507-120.064 122.47-10.445 39.885-9.626 74.701 2.355 108.237 11.776 32.922 32.922 55.245 59.546 62.72 6.4 1.843 13.056 2.714 19.712 2.714 61.44 0 100.966-25.498 125.44-111.565zM817.203 559.002v153.6h-97.28v-153.6h-153.6v-97.28h153.6v-153.6h97.28v153.6h153.6v97.28h-153.6z" />
<glyph unicode="&#xe304;" d="M798.72 41.165c-39.731-18.944-75.776-32.307-107.981-39.936-32.256-7.578-67.174-11.469-104.602-11.469-42.547 0-80.128 5.478-112.896 16.333-32.666 10.906-60.518 26.419-83.661 46.438-23.091 20.224-39.117 41.574-48.026 64.256-8.96 22.682-13.414 55.552-13.414 98.611v330.445h-102.861v133.325c36.557 12.032 67.942 29.184 93.952 51.661 26.112 22.426 47.002 49.408 62.822 80.896 15.77 31.488 26.573 71.475 32.563 120.115h132.352v-238.131h220.928v-147.866h-220.928v-241.613c0-54.579 2.867-89.651 8.653-105.216 5.632-15.462 16.282-27.853 31.795-37.12 20.685-12.493 44.186-18.739 70.707-18.739 47.155 0 94.003 15.514 140.595 46.49v-148.48z" />
<glyph unicode="&#xe305;" d="M13.126 751.396v50.589c0 17.615 13.302 31.855 30.015 34.103 154.803 21.881 311.781 32.899 468.756 32.899 157.015 0 314.028-11.018 467.744-32.899 17.836-2.249 31.179-16.488 31.179-34.103v-50.589c-3.372-11.989-12.291-32.901-38.972-58.233l-379.682-283.378c-21.21-16.488-50.214-24.131-80.268-24.131-30.015 0-59.020 7.642-80.155 24.131l-379.757 283.378c-26.72 25.332-35.564 46.244-38.861 58.233zM1010.821 582.241v-489.929c0-17.464-13.341-31.778-31.179-34.028-153.716-21.958-311.781-32.976-467.744-32.976-155.851 0-313.953 11.018-468.756 32.976-16.712 2.249-30.015 16.563-30.015 34.028v489.929l352.925-266.887c41.259-30.804 93.532-43.919 145.847-43.919 52.388 0 104.702 13.117 145.923 43.919l353 266.887z" />
<glyph unicode="&#xe306;" d="M778.24 460.8c0-147.046-119.245-266.24-266.24-266.24-147.046 0-266.24 119.194-266.24 266.24 0 17.51 1.741 34.611 5.018 51.2h-179.098v-353.894c0-75.981 61.542-137.626 137.626-137.626h605.389c75.981 0 137.626 61.594 137.626 137.626v353.894h-179.046c3.226-16.589 4.966-33.69 4.966-51.2zM814.694 901.12h-605.389c-76.032 0-137.626-61.645-137.626-137.626v-149.094h222.925c48.179 68.096 127.59 112.64 217.395 112.64s169.216-44.544 217.395-112.64h222.925v149.094c0 75.981-61.645 137.626-137.626 137.626zM882.022 731.136c0-13.568-11.059-24.576-24.576-24.576h-73.677c-13.517 0-24.576 11.059-24.576 24.576v73.728c0 13.568 11.11 24.576 24.576 24.576h73.677c13.568 0 24.576-11.059 24.576-24.576v-73.728zM675.84 460.8c0 90.522-73.37 163.84-163.84 163.84s-163.84-73.318-163.84-163.84 73.37-163.84 163.84-163.84 163.84 73.318 163.84 163.84z" />
<glyph unicode="&#xe307;" d="M832 832h-640c-105.6 0-192-86.4-192-192v-384c0-105.6 86.4-192 192-192h640c105.6 0 192 86.4 192 192v384c0 105.6-86.4 192-192 192zM384 192v512l320-256-320-256z" />
<glyph unicode="&#xe308;" d="M259.891 816.64c0-54.426-40.192-98.509-106.291-98.509-62.208 0-102.4 44.083-102.4 98.509 0 55.706 41.523 98.509 105.011 98.509s102.4-42.803 103.68-98.509zM56.422 6.451v633.856h197.018v-633.856h-197.018zM371.354 438.118c0 79.053-2.611 145.152-5.222 202.189h171.11l9.114-88.166h3.891c25.907 41.523 89.446 102.4 195.738 102.4 129.587 0 226.816-86.835 226.816-273.51v-374.63h-197.018v351.283c0 81.664-28.57 137.421-99.84 137.421-54.426 0-86.784-37.581-101.069-73.882-5.222-12.954-6.502-31.078-6.502-49.254v-365.568h-197.018v431.718z" />
<glyph unicode="&#xe309;" d="M933.036 475.884c-31.87-9.276-62.444-13.897-88.861-13.457-147.768 2.273-214.112 97.186-214.112 248.982 0 74.397 36.137 119.846 76.849 119.846 38.67 0 68.627-34.323 68.627-104.764 0-40.632-9.511-84.726-17.466-110.495 24.813-43.684 59.344-61.657 136.144-47.691 24.783 50.541 38.4 111.502 38.4 171.056 0 151.716-85.045 232.673-226.901 232.673-145.823 0-233.011-117.084-233.011-264.902 0-146.422 72.445-265.441 185.291-322.683-47.421-94.981-116.186-195.308-179.151-258.331-114.731 138.708-211.13 337.686-253.228 700.013h-165.972c62.385-595.081 300.66-822.688 362.179-859.375 34.702-20.855 64.597-19.898 96.358-1.993 49.843 28.349 203.523 204.82 286.455 380.092 37.207 0.108 83.186 6.342 128.398 19.009v112.020z" />
<glyph unicode="&#xe600;" d="M971.337 445.074c0-254.537-210.651-468.114-468.114-468.114s-468.114 210.651-468.114 468.114c0 257.463 210.651 468.114 468.114 468.114s468.114-213.577 468.114-468.114zM652.434 769.829h-114.103l-324.754-327.68 327.68-327.68h114.103l-330.606 327.68 327.68 327.68z" horiz-adv-x="995" />
<glyph unicode="&#xe601;" d="M965.486 433.371c0-254.537-210.651-468.114-468.114-468.114s-468.114 210.651-468.114 468.114c0 257.463 210.651 468.114 468.114 468.114s468.114-210.651 468.114-468.114zM354.011 105.691h114.103l324.754 327.68-327.68 327.68h-111.177l327.68-327.68-327.68-327.68z" horiz-adv-x="995" />
<glyph unicode="&#xe603;" d="M614.286 201.143q0-7.429-5.714-13.143l-28.571-28.571q-5.714-5.714-13.143-5.714t-13.143 5.714l-224.571 224.571-224.571-224.571q-5.714-5.714-13.143-5.714t-13.143 5.714l-28.571 28.571q-5.714 5.714-5.714 13.143t5.714 13.143l266.286 266.286q5.714 5.714 13.143 5.714t13.143-5.714l266.286-266.286q5.714-5.714 5.714-13.143zM614.286 420.571q0-7.429-5.714-13.143l-28.571-28.571q-5.714-5.714-13.143-5.714t-13.143 5.714l-224.571 224.571-224.571-224.571q-5.714-5.714-13.143-5.714t-13.143 5.714l-28.571 28.571q-5.714 5.714-5.714 13.143t5.714 13.143l266.286 266.286q5.714 5.714 13.143 5.714t13.143-5.714l266.286-266.286q5.714-5.714 5.714-13.143z" horiz-adv-x="658" />
<glyph unicode="&#xe604;" d="M614.286 457.143q0-7.429-5.714-13.143l-266.286-266.286q-5.714-5.714-13.143-5.714t-13.143 5.714l-266.286 266.286q-5.714 5.714-5.714 13.143t5.714 13.143l28.571 28.571q5.714 5.714 13.143 5.714t13.143-5.714l224.571-224.571 224.571 224.571q5.714 5.714 13.143 5.714t13.143-5.714l28.571-28.571q5.714-5.714 5.714-13.143zM614.286 676.571q0-7.429-5.714-13.143l-266.286-266.286q-5.714-5.714-13.143-5.714t-13.143 5.714l-266.286 266.286q-5.714 5.714-5.714 13.143t5.714 13.143l28.571 28.571q5.714 5.714 13.143 5.714t13.143-5.714l224.571-224.571 224.571 224.571q5.714 5.714 13.143 5.714t13.143-5.714l28.571-28.571q5.714-5.714 5.714-13.143z" horiz-adv-x="658" />
<glyph unicode="&#xe605;" d="M358.286 640q0-7.429-5.714-13.143l-224.571-224.571 224.571-224.571q5.714-5.714 5.714-13.143t-5.714-13.143l-28.571-28.571q-5.714-5.714-13.143-5.714t-13.143 5.714l-266.286 266.286q-5.714 5.714-5.714 13.143t5.714 13.143l266.286 266.286q5.714 5.714 13.143 5.714t13.143-5.714l28.571-28.571q5.714-5.714 5.714-13.143z" horiz-adv-x="366" />
<glyph unicode="&#xe606;" d="M340 402.286q0-7.429-5.714-13.143l-266.286-266.286q-5.714-5.714-13.143-5.714t-13.143 5.714l-28.571 28.571q-5.714 5.714-5.714 13.143t5.714 13.143l224.571 224.571-224.571 224.571q-5.714 5.714-5.714 13.143t5.714 13.143l28.571 28.571q5.714 5.714 13.143 5.714t13.143-5.714l266.286-266.286q5.714-5.714 5.714-13.143z" horiz-adv-x="366" />
<glyph unicode="&#xe607;" d="M614.286 274.286q0-7.429-5.714-13.143l-28.571-28.571q-5.714-5.714-13.143-5.714t-13.143 5.714l-224.571 224.571-224.571-224.571q-5.714-5.714-13.143-5.714t-13.143 5.714l-28.571 28.571q-5.714 5.714-5.714 13.143t5.714 13.143l266.286 266.286q5.714 5.714 13.143 5.714t13.143-5.714l266.286-266.286q5.714-5.714 5.714-13.143z" horiz-adv-x="658" />
<glyph unicode="&#xe608;" d="M614.286 530.286q0-7.429-5.714-13.143l-266.286-266.286q-5.714-5.714-13.143-5.714t-13.143 5.714l-266.286 266.286q-5.714 5.714-5.714 13.143t5.714 13.143l28.571 28.571q5.714 5.714 13.143 5.714t13.143-5.714l224.571-224.571 224.571 224.571q5.714 5.714 13.143 5.714t13.143-5.714l28.571-28.571q5.714-5.714 5.714-13.143z" horiz-adv-x="658" />
<glyph unicode="&#xe609;" d="M877.714 182.857v-73.143q0-14.857-10.857-25.714t-25.714-10.857h-804.571q-14.857 0-25.714 10.857t-10.857 25.714v73.143q0 14.857 10.857 25.714t25.714 10.857h804.571q14.857 0 25.714-10.857t10.857-25.714zM877.714 475.428v-73.143q0-14.857-10.857-25.714t-25.714-10.857h-804.571q-14.857 0-25.714 10.857t-10.857 25.714v73.143q0 14.857 10.857 25.714t25.714 10.857h804.571q14.857 0 25.714-10.857t10.857-25.714zM877.714 768v-73.143q0-14.857-10.857-25.714t-25.714-10.857h-804.571q-14.857 0-25.714 10.857t-10.857 25.714v73.143q0 14.857 10.857 25.714t25.714 10.857h804.571q14.857 0 25.714-10.857t10.857-25.714z" horiz-adv-x="878" />
<glyph unicode="&#xe60a;" d="M965.486 450.926c0-254.537-210.651-468.114-468.114-468.114s-468.114 210.651-468.114 468.114c0 257.463 210.651 468.114 468.114 468.114s468.114-210.651 468.114-468.114zM368.64 450.926l330.606 327.68h-219.429l-327.68-327.68 327.68-327.68h219.429l-330.606 327.68z" horiz-adv-x="995" />
<glyph unicode="&#xe60b;" d="M965.486 450.926c0-254.537-210.651-468.114-468.114-468.114s-468.114 210.651-468.114 468.114c0 257.463 210.651 468.114 468.114 468.114s468.114-210.651 468.114-468.114zM298.423 123.246h219.429l330.606 327.68-330.606 327.68h-219.429l327.68-327.68-327.68-327.68z" horiz-adv-x="995" />
<glyph unicode="&#xe610;" d="M656.571 309.714q0 14.857-10.857 25.714l-103.429 103.429 103.429 103.429q10.857 10.857 10.857 25.714 0 15.429-10.857 26.286l-51.429 51.429q-10.857 10.857-26.286 10.857-14.857 0-25.714-10.857l-103.429-103.429-103.429 103.429q-10.857 10.857-25.714 10.857-15.429 0-26.286-10.857l-51.429-51.429q-10.857-10.857-10.857-26.286 0-14.857 10.857-25.714l103.429-103.429-103.429-103.429q-10.857-10.857-10.857-25.714 0-15.429 10.857-26.286l51.429-51.429q10.857-10.857 26.286-10.857 14.857 0 25.714 10.857l103.429 103.429 103.429-103.429q10.857-10.857 25.714-10.857 15.429 0 26.286 10.857l51.429 51.429q10.857 10.857 10.857 26.286zM877.714 438.857q0-119.429-58.857-220.286t-159.714-159.714-220.286-58.857-220.286 58.857-159.714 159.714-58.857 220.286 58.857 220.286 159.714 159.714 220.286 58.857 220.286-58.857 159.714-159.714 58.857-220.286z" horiz-adv-x="878" />
<glyph unicode="&#xe611;" d="M694.857 402.286v73.143q0 14.857-10.857 25.714t-25.714 10.857h-438.857q-14.857 0-25.714-10.857t-10.857-25.714v-73.143q0-14.857 10.857-25.714t25.714-10.857h438.857q14.857 0 25.714 10.857t10.857 25.714zM877.714 438.857q0-119.429-58.857-220.286t-159.714-159.714-220.286-58.857-220.286 58.857-159.714 159.714-58.857 220.286 58.857 220.286 159.714 159.714 220.286 58.857 220.286-58.857 159.714-159.714 58.857-220.286z" horiz-adv-x="878" />
<glyph unicode="&#xe612;" d="M694.857 402.286v73.143q0 14.857-10.857 25.714t-25.714 10.857h-146.286v146.286q0 14.857-10.857 25.714t-25.714 10.857h-73.143q-14.857 0-25.714-10.857t-10.857-25.714v-146.286h-146.286q-14.857 0-25.714-10.857t-10.857-25.714v-73.143q0-14.857 10.857-25.714t25.714-10.857h146.286v-146.286q0-14.857 10.857-25.714t25.714-10.857h73.143q14.857 0 25.714 10.857t10.857 25.714v146.286h146.286q14.857 0 25.714 10.857t10.857 25.714zM877.714 438.857q0-119.429-58.857-220.286t-159.714-159.714-220.286-58.857-220.286 58.857-159.714 159.714-58.857 220.286 58.857 220.286 159.714 159.714 220.286 58.857 220.286-58.857 159.714-159.714 58.857-220.286z" horiz-adv-x="878" />
<glyph unicode="&#xe613;" d="M733.714 531.428q0 16-10.286 26.286l-52 51.429q-10.857 10.857-25.714 10.857t-25.714-10.857l-233.143-232.571-129.143 129.143q-10.857 10.857-25.714 10.857t-25.714-10.857l-52-51.429q-10.286-10.286-10.286-26.286 0-15.429 10.286-25.714l206.857-206.857q10.857-10.857 25.714-10.857 15.429 0 26.286 10.857l310.286 310.286q10.286 10.286 10.286 25.714zM877.714 438.857q0-119.429-58.857-220.286t-159.714-159.714-220.286-58.857-220.286 58.857-159.714 159.714-58.857 220.286 58.857 220.286 159.714 159.714 220.286 58.857 220.286-58.857 159.714-159.714 58.857-220.286z" horiz-adv-x="878" />
<glyph unicode="&#xe614;" d="M585.143 493.714v-36.571q0-7.429-5.429-12.857t-12.857-5.429h-128v-128q0-7.429-5.429-12.857t-12.857-5.429h-36.571q-7.429 0-12.857 5.429t-5.429 12.857v128h-128q-7.429 0-12.857 5.429t-5.429 12.857v36.571q0 7.429 5.429 12.857t12.857 5.429h128v128q0 7.429 5.429 12.857t12.857 5.429h36.571q7.429 0 12.857-5.429t5.429-12.857v-128h128q7.429 0 12.857-5.429t5.429-12.857zM658.286 475.428q0 105.714-75.143 180.857t-180.857 75.143-180.857-75.143-75.143-180.857 75.143-180.857 180.857-75.143 180.857 75.143 75.143 180.857zM950.857 0q0-30.286-21.429-51.714t-51.714-21.429q-30.857 0-51.429 21.714l-196 195.429q-102.286-70.857-228-70.857-81.714 0-156.286 31.714t-128.571 85.714-85.714 128.571-31.714 156.286 31.714 156.286 85.714 128.571 128.571 85.714 156.286 31.714 156.286-31.714 128.571-85.714 85.714-128.571 31.714-156.286q0-125.714-70.857-228l196-196q21.143-21.143 21.143-51.429z" horiz-adv-x="951" />
<glyph unicode="&#xe615;" d="M585.143 493.714v-36.571q0-7.429-5.429-12.857t-12.857-5.429h-329.143q-7.429 0-12.857 5.429t-5.429 12.857v36.571q0 7.429 5.429 12.857t12.857 5.429h329.143q7.429 0 12.857-5.429t5.429-12.857zM658.286 475.428q0 105.714-75.143 180.857t-180.857 75.143-180.857-75.143-75.143-180.857 75.143-180.857 180.857-75.143 180.857 75.143 75.143 180.857zM950.857 0q0-30.286-21.429-51.714t-51.714-21.429q-30.857 0-51.429 21.714l-196 195.429q-102.286-70.857-228-70.857-81.714 0-156.286 31.714t-128.571 85.714-85.714 128.571-31.714 156.286 31.714 156.286 85.714 128.571 128.571 85.714 156.286 31.714 156.286-31.714 128.571-85.714 85.714-128.571 31.714-156.286q0-125.714-70.857-228l196-196q21.143-21.143 21.143-51.429z" horiz-adv-x="951" />
</font>
</defs>
</svg>
