<?xml version="1.0" standalone="no"?>
<!DOCTYPE svg PUBLIC "-//W3C//DTD SVG 1.1//EN" "http://www.w3.org/Graphics/SVG/1.1/DTD/svg11.dtd" >
<svg xmlns="http://www.w3.org/2000/svg">
<metadata></metadata>
<defs>
<font id="itc__avant__gardebold" horiz-adv-x="1253" >
<font-face units-per-em="2048" ascent="1638" descent="-410" />
<missing-glyph horiz-adv-x="729" />
<glyph horiz-adv-x="2048" />
<glyph horiz-adv-x="2048" />
<glyph unicode="&#xd;" horiz-adv-x="0" />
<glyph unicode=" "  horiz-adv-x="729" />
<glyph unicode="&#x09;" horiz-adv-x="729" />
<glyph unicode="&#xa0;" horiz-adv-x="729" />
<glyph unicode="!" horiz-adv-x="663" d="M156 479v979h332v-979h-332zM160 0v336h328v-336h-328z" />
<glyph unicode="&#x22;" horiz-adv-x="684" d="M82 880v558h192v-558h-192zM406 880v558h196v-558h-196z" />
<glyph unicode="#" horiz-adv-x="1597" d="M45 406l78 204h283l82 238h-296l74 200h295l147 418h222l-144 -418h242l144 418h224l-146 -418h278l-70 -200h-282l-82 -238h290l-69 -204h-295l-148 -414h-220l151 414h-246l-151 -414h-222l148 414h-287zM622 606h250l90 242h-254z" />
<glyph unicode="$" horiz-adv-x="1233" d="M123 426h361q3 -52 39.5 -91.5t82.5 -39.5q30 1 70 25q45 28 45 86q0 38 -20 76q-19 36 -49 54q-42 28 -136.5 64.5t-138.5 55.5q-45 20 -103 65q-141 110 -147 307l-4 8q0 168 100.5 275t268.5 143v222h237v-226q106 -20 178 -73t106.5 -135t34.5 -190h-331 q-3 53 -34 88.5t-77 35.5q-16 0 -49 -8q-32 -8 -50.5 -37t-18.5 -62q0 -71 61 -111q48 -34 129.5 -65.5t146.5 -58t125 -76.5q152 -134 152 -320q0 -106 -50 -197t-135.5 -153t-187.5 -84v-238h-237v238q-91 20 -155.5 53.5t-109.5 85t-70 121.5t-34 162z" />
<glyph unicode="%" horiz-adv-x="1757" d="M53 1130q0 98 51.5 179t136 127.5t177.5 46.5q78 -1 131 -21q99 -43 162 -135q63 -93 63 -197q0 -98 -49 -181t-132 -131t-179 -48t-179.5 49t-132.5 132t-49 179zM278 1130q0 -60 40 -95t92 -35t91 35t39 95q0 58 -38 91t-92 33t-93 -33t-39 -91zM377 -28l778 1519h185 l-779 -1519h-184zM954 328q0 98 50 180t132 129t174 47q74 0 136 -24q100 -40 160.5 -132t60.5 -200q0 -96 -48.5 -178t-130.5 -130q-84 -48 -178 -48q-97 0 -178.5 47.5t-129.5 129.5t-48 179zM1172 328q0 -61 39 -98.5t91 -37.5t94 38t42 98q0 40 -20 67t-51 41t-65 14 q-54 0 -92 -32t-38 -90z" />
<glyph unicode="&#x26;" horiz-adv-x="1437" d="M49 393q-1 119 65 217q32 46 69 78t129 106q-128 164 -128 316q0 42 25 123q28 79 85.5 137t134.5 87.5t161 29.5h24q92 -6 173.5 -53.5t131.5 -125.5t52 -170q0 -180 -193 -348l160 -159l102 221h332q-92 -258 -217 -463l189 -197l-218 -225l-164 168 q-110 -87 -207 -125t-227 -38q-118 0 -222 43t-175 133q-82 116 -82 245zM393 418q-1 -56 49 -98q48 -42 98 -42q76 0 202 90l-222 226q-50 -26 -88.5 -76.5t-38.5 -99.5zM500 1126q0 -40 25 -91t61 -81q82 91 82 156v16q0 34 -21.5 62t-56.5 28h-4q-40 0 -63 -27t-23 -63z " />
<glyph unicode="'" horiz-adv-x="549" d="M110 790v168l9 -4q79 0 103 40t24 128h-136v336h336v-376q0 -164 -79 -230t-236 -66q-2 0 -10.5 2t-10.5 2z" />
<glyph unicode="(" horiz-adv-x="663" d="M94 226v585q0 118 9 198.5t42 158.5t101 151q144 155 385 168v-303q-103 -4 -155.5 -55t-67.5 -126t-15 -179q0 -8 2.5 -23.5t2.5 -26.5v-508q0 -10 -2.5 -27t-2.5 -26q0 -105 15 -180t67.5 -125t155.5 -52v-306q-122 6 -212.5 44t-172.5 124q-66 72 -99 149.5t-43 161 t-10 197.5z" />
<glyph unicode=")" horiz-adv-x="663" d="M12 -144q146 2 190 91t44 249v628q0 107 -14 181.5t-66 124.5t-154 54v303q242 -14 386 -168q68 -72 100.5 -150.5t41.5 -159t9 -198.5v-585q0 -118 -9 -199t-42 -159q-32 -78 -100 -150q-81 -84 -173.5 -123t-212.5 -45v306z" />
<glyph unicode="*" horiz-adv-x="1028" d="M66 1040l69 222l267 -94v290h224v-290l263 94l73 -222l-282 -74l196 -241l-192 -139l-172 250l-172 -250l-196 139l200 241z" />
<glyph unicode="+" horiz-adv-x="1712" d="M254 512v200h500v508h204v-508h496v-200h-496v-512h-204v512h-500z" />
<glyph unicode="," horiz-adv-x="618" d="M140 0v336h331v-385q-1 -176 -111 -250q-62 -29 -164 -29h-56v164q70 0 99.5 14t36 45t6.5 105h-142z" />
<glyph unicode="-" horiz-adv-x="729" d="M82 406v290h553v-290h-553z" />
<glyph unicode="." horiz-adv-x="618" d="M140 0v336h331v-336h-331z" />
<glyph unicode="/" horiz-adv-x="573" d="M-62 -188l464 1646h196l-467 -1646h-193z" />
<glyph unicode="0" horiz-adv-x="1233" d="M86 488v478q0 148 71 266t193 184.5t264 66.5q70 -1 98 -5q94 -16 172 -62.5t134 -115t86 -154.5q30 -88 30 -180v-478q0 -142 -69 -261t-190 -187t-265 -68q-146 0 -266 67.5t-189 186t-69 262.5zM442 488q0 -188 168 -189q72 0 115 37q38 32 49.5 66t11.5 86v483 q0 90 -44 135q-50 49 -120 49h-12q-168 -1 -168 -189v-478z" />
<glyph unicode="1" horiz-adv-x="1233" d="M238 1184v274h594v-1458h-340v1184h-254z" />
<glyph unicode="2" horiz-adv-x="1233" d="M110 930q2 142 46 247t118 172t165.5 98t191.5 31q84 0 165.5 -22t149.5 -64q66 -42 106 -98q70 -104 70 -246q0 -95 -35 -194.5t-96 -181.5q-70 -98 -163 -182q-92 -82 -214 -166h512v-324h-1007v307q166 110 247 166.5t170 140.5t152 184q70 114 70 214q0 70 -33 114 q-39 46 -111 46q-52 0 -82 -25q-66 -55 -65 -181q0 -6 2 -19t2 -17h-361z" />
<glyph unicode="3" horiz-adv-x="1233" d="M98 442h361l-5 -12q0 -72 46 -112t106 -40q42 0 84 21t60 53q20 40 20 82q0 64 -37 106q-58 58 -180 58q-17 0 -51 -2t-48 -2v274q4 0 12.5 -2t12.5 -2q147 0 193 62q40 40 40 114q0 32 -8 66q-12 36 -43.5 59t-66.5 23q-42 0 -76 -36t-34 -100l4 -8h-348q0 270 224 390 q98 50 230 49q164 0 282 -74q78 -54 123 -143q45 -88 45 -180q0 -96 -54 -178t-154 -118q266 -96 286 -306v-38q0 -85 -32.5 -167.5t-92.5 -148.5q-60 -68 -137 -106q-100 -52 -258 -52q-176 0 -303 69q-194 121 -201 401z" />
<glyph unicode="4" horiz-adv-x="1233" d="M66 266v274l622 918h344v-905h140v-287h-140v-266h-344v266h-622zM410 540h302l13 484z" />
<glyph unicode="5" horiz-adv-x="1233" d="M53 393h373q56 -98 160 -98q80 0 146 59.5t66 145.5v28q-12 77 -70.5 122.5t-129.5 45.5q-59 0 -113.5 -35t-82.5 -100l-292 82l132 815h794v-294h-512l-49 -218q115 58 221 58q121 0 228.5 -68t171.5 -184q63 -116 63 -252q0 -82 -16 -148q-50 -198 -201.5 -289 t-363.5 -91h-46q-212 12 -352 163q-81 86 -127 258z" />
<glyph unicode="6" horiz-adv-x="1233" d="M62 532q0 81 24 154.5t54 124t106 168.5l319 479h401l-331 -462q65 8 103 8q232 0 348 -197q74 -123 73 -283q0 -113 -41.5 -217t-117.5 -180q-72 -75 -176 -115t-210 -40q-96 0 -189 33t-163 93q-94 75 -145 188t-51 234q0 2 -2 6t-2 6zM406 512q0 -2 2 -8t2 -8 q6 -84 58 -130t122 -46q79 0 143.5 55t64.5 145v41q-12 76 -64 116q-54 40 -120 40q-50 0 -98 -25.5t-79 -72t-31 -107.5z" />
<glyph unicode="7" horiz-adv-x="1233" d="M135 1138v320h955v-320l-496 -1138h-381l537 1138h-615z" />
<glyph unicode="8" horiz-adv-x="1233" d="M78 430q0 66 28 144q23 80 76.5 129t141.5 95q-168 100 -168 279q0 18 20 123q26 92 95 157t163 97.5t188 32.5h25q103 -6 194 -51.5t148.5 -124.5t67.5 -181v-40q0 -182 -164 -296q79 -28 135 -83.5t83 -127.5t27 -149q0 -114 -60 -221t-178 -174t-282 -67 q-183 0 -319 74q-137 72 -189 232q-32 96 -32 152zM426 463l4 -9q3 -73 57.5 -116t122.5 -43q69 0 126.5 48.5t57.5 123.5l4 4q0 78 -56 121t-128 43q-73 0 -130.5 -46.5t-57.5 -125.5zM475 1048q0 -60 41.5 -95t93.5 -35q53 0 94.5 35t41.5 95q0 58 -41 93t-95 35 q-51 0 -93 -35t-42 -93z" />
<glyph unicode="9" horiz-adv-x="1233" d="M66 922q0 200 130 364q76 90 186 139t228 49q124 0 242 -54q118 -53 192 -150q120 -156 120 -352q0 -64 -14.5 -122.5t-38 -107t-64 -114.5t-64.5 -103l-323 -479h-394l332 458q-25 -4 -39.5 -6t-34.5 -4t-28 -2q-196 0 -328 168q-102 142 -102 316zM430 934q0 -24 8 -62 q15 -68 64.5 -105.5t107.5 -37.5q48 0 96 25.5t78.5 71.5t30.5 104v24q-3 84 -56 128t-124 44q-79 0 -142 -53.5t-63 -138.5z" />
<glyph unicode=":" horiz-adv-x="663" d="M152 0v336h332v-336h-332zM152 712v340h332v-340h-332z" />
<glyph unicode=";" horiz-adv-x="663" d="M152 712v340h332v-340h-332zM156 0v336h323v-385q0 -148 -70.5 -213.5t-208.5 -65.5h-44v164q66 0 95 14t36.5 43t7.5 91v16h-139z" />
<glyph unicode="&#x3c;" horiz-adv-x="1712" d="M266 512v200l1176 480v-213l-893 -365l893 -368v-218z" />
<glyph unicode="=" horiz-adv-x="1712" d="M254 299v197h1200v-197h-1200zM254 729v197h1200v-197h-1200z" />
<glyph unicode="&#x3e;" horiz-adv-x="1712" d="M266 28v218l893 368l-893 365v213l1176 -480v-200z" />
<glyph unicode="?" horiz-adv-x="1118" d="M37 979q0 153 53 245q72 162 262 230q100 29 188 29t170.5 -25t149.5 -77q68 -51 106 -127q42 -82 42 -197v-57q-16 -134 -144 -262q-22 -23 -87 -79.5t-97.5 -99t-40.5 -100.5h-344l-4 4q0 93 44 165t131.5 159t125.5 139q39 50 39 118v21q-3 42 -42 70.5t-81 28.5 q-49 0 -86 -44t-37 -129q0 -2 2 -6t2 -6h-352zM299 0v332h336v-332h-336z" />
<glyph unicode="@" horiz-adv-x="2052" d="M86 512q0 177 70.5 350t204 314t323.5 224t418 83q88 -1 184 -13q214 -31 368 -138.5t231 -260.5t77 -317q0 -107 -33 -212t-100.5 -194.5t-161.5 -151.5q-58 -38 -135.5 -64t-147.5 -26q-57 0 -110 21q-93 25 -106 147q-114 -164 -304 -164q-154 3 -236.5 88.5 t-82.5 235.5q0 4 2 19t2 18q6 162 77.5 285.5t178.5 189.5t215 66q75 0 142 -34q66 -34 104 -98l57 103h172l-147 -602q0 -7 -4 -22.5t-4 -18.5q0 -70 73 -70q40 0 95.5 24t93.5 54q82 73 127 183.5t45 226.5q0 128 -50 233q-50 107 -142 179.5t-206 108t-238 40.5h-24 q-196 0 -354 -68.5t-267 -184.5t-166 -260t-57 -290q0 -138 56 -266q56 -129 158 -217q220 -185 536 -185q108 0 219 23.5t215 67t188 102.5l78 -119q-254 -186 -528 -221q-107 -8 -164 -8q-130 0 -255 26.5t-240 82.5t-205 140q-120 112 -181 260t-61 310zM762 446 q0 -93 45 -144.5t111 -51.5q76 0 149 64t97 170l52 216q-8 80 -57 124t-115 44q-56 0 -112 -37t-100 -115t-62 -188q-8 -58 -8 -82z" />
<glyph unicode="A" d="M-90 0l561 1458h291l561 -1458h-393l-74 213h-479l-78 -213h-389zM471 512h291l-144 471z" />
<glyph unicode="B" horiz-adv-x="1208" d="M119 0v1458h495q354 0 430 -246q16 -48 17 -122q-1 -74 -17 -124q-36 -108 -164 -176q180 -65 226 -196q24 -68 24 -148q0 -62 -12 -122q-24 -96 -92 -175.5t-162 -115.5q-60 -21 -132 -27t-175 -6h-438zM463 303q14 0 47.5 -2t50.5 -2q103 0 162 31.5t59 128.5v16 q-2 83 -65 111t-160 28h-94v-311zM463 893q10 0 33.5 -2t35.5 -2q210 1 210 119v16q-2 80 -62 105.5t-156 25.5h-61v-262z" />
<glyph unicode="C" horiz-adv-x="1597" d="M49 733q0 202 98.5 374.5t269.5 274t377 101.5l9 4q142 0 276.5 -56.5t243.5 -160.5q78 -78 123 -163q46 -85 78 -202h-381q-66 106 -145.5 163.5t-194.5 57.5q-96 0 -180 -45t-138.5 -124t-66.5 -175q0 -12 -2 -30t-2 -23q0 -108 54 -199.5t144 -144.5t186 -53 q93 0 182 52q90 52 154 156h386q-42 -142 -116.5 -249t-172 -177t-206.5 -104t-222 -34q-180 0 -347.5 83t-277 241t-125.5 368q0 10 -2 32t-2 33z" />
<glyph unicode="D" horiz-adv-x="1437" d="M119 0v1458h495q127 0 229.5 -18t196.5 -69q92 -51 168 -142q42 -50 74 -111.5t52 -126.5t29 -130.5t9 -135.5q0 -332 -213 -545q-74 -74 -148 -113t-155.5 -53t-195.5 -14h-541zM471 320h147q82 0 135.5 8t98.5 40q86 52 125 147.5t39 209.5q0 226 -132 336 q-61 53 -140.5 69.5t-186.5 16.5h-86v-827z" />
<glyph unicode="E" horiz-adv-x="1028" d="M114 0v1458h791v-320h-434v-237h434v-323h-434v-258h434v-320h-791z" />
<glyph unicode="F" horiz-adv-x="1028" d="M114 0v1458h791v-320h-434v-237h434v-327h-434v-574h-357z" />
<glyph unicode="G" horiz-adv-x="1597" d="M45 725q0 128 42.5 251.5t123.5 227.5t193 175q114 71 248 95q86 8 130 9h4q259 0 451 -143q186 -140 262 -357h-401q-154 139 -304 139h-32q-97 -8 -175.5 -62t-123.5 -138t-45 -180l-4 -9q0 -114 54 -206.5t143 -143.5t187 -51q61 0 121 22t114.5 67t92.5 107h-418v291 h832v-86q0 -124 -24 -213q-34 -146 -128.5 -265t-228.5 -189q-169 -90 -365 -90q-100 0 -200 27t-188 80t-160 130.5t-119 175.5q-82 163 -82 336z" />
<glyph unicode="H" horiz-adv-x="1323" d="M119 0v1458h352v-553h365v553h356v-1458h-356v557h-365v-557h-352z" />
<glyph unicode="I" horiz-adv-x="594" d="M119 0v1458h352v-1458h-352z" />
<glyph unicode="J" horiz-adv-x="1073" d="M12 471h352q0 -67 24 -115.5t79 -48.5l8 5q66 0 86.5 50t20.5 126v970h360v-860v-45q0 -120 -12 -209q-14 -90 -54 -160q-50 -97 -145 -149.5t-211 -58.5h-45q-228 0 -345.5 127t-117.5 368z" />
<glyph unicode="K" d="M119 0v1458h352v-684l434 684h397l-483 -741l467 -717h-430l-385 635v-635h-352z" />
<glyph unicode="L" horiz-adv-x="913" d="M114 0v1458h357v-1138h413v-320h-770z" />
<glyph unicode="M" horiz-adv-x="1777" d="M119 0v1458h487l274 -893l279 893h491v-1458h-340v966l-306 -966h-250l-300 966v-966h-335z" />
<glyph unicode="N" horiz-adv-x="1458" d="M119 0v1458h323l533 -811v811h352v-1458h-311l-545 811v-811h-352z" />
<glyph unicode="O" horiz-adv-x="1618" d="M53 738l5 8q2 203 104 372t274.5 267t374.5 98h73q184 -20 339 -126t244 -271.5t89 -352.5q0 -203 -100 -378t-272 -277t-373 -102h-4q-208 0 -381.5 102t-273 277t-99.5 383zM422 733q0 -100 53 -193.5t143 -150.5t193 -57q104 0 189 56t134.5 149t49.5 196 q-2 94 -34 166.5t-87 121.5t-122 73t-138 24q-94 0 -180.5 -44t-140.5 -129t-56 -203z" />
<glyph unicode="P" d="M119 0v1458h483q163 0 274.5 -34t192.5 -138q95 -130 95 -315q0 -36 -9 -115q-24 -144 -125.5 -246.5t-247.5 -130.5q-43 -3 -72 -6t-62.5 -4.5t-53.5 -1.5t-62 2q-41 2 -61 2v-471h-352zM475 786q6 0 23.5 -2t25.5 -2q127 0 205 35t78 145q0 107 -73.5 139.5 t-197.5 32.5h-61v-348z" />
<glyph unicode="Q" horiz-adv-x="1618" d="M58 742q0 143 56 280t168 248q104 104 239 156t277 52q132 0 260 -44.5t234 -131t174 -208.5q86 -166 86 -361q0 -231 -126 -434q88 -37 130 -37q6 0 22 2q18 2 24 2v-303h-94q-95 0 -164.5 26t-139.5 101q-200 -114 -418 -114q-152 0 -285.5 63t-233.5 172.5t-155 247.5 q-54 139 -54 283zM426 782q95 54 209 54q94 0 190 -41t175.5 -111.5t133.5 -159.5q54 106 54 218q0 108 -57 194t-148 134t-189 48q-80 0 -156 -36t-132 -110q-56 -76 -80 -190zM463 545q72 -114 158.5 -169.5t197.5 -55.5q47 0 127 16q-64 103 -158.5 168.5t-197.5 65.5 q-64 0 -127 -25z" />
<glyph unicode="R" d="M119 0v1458h483q122 0 209 -15t160 -67q84 -54 133.5 -143t59.5 -193v-69q0 -159 -70 -275q-47 -80 -106.5 -124t-151.5 -76l356 -496h-438l-283 471v-471h-352zM471 786q6 0 23.5 -2t25.5 -2q128 0 208 36q79 34 79 144q0 104 -71.5 138t-190.5 34h-74v-348z" />
<glyph unicode="S" horiz-adv-x="1118" d="M49 446q0 4 2 16.5t2 16.5h340q-1 -117 53 -167q28 -30 78 -30q32 0 66.5 14t52.5 36q17 28 17 74q0 74 -42 114q-28 25 -108 60.5t-154 71t-126 77.5q-77 62 -118.5 146.5t-41.5 168.5q0 92 44.5 181.5t125.5 154t186 90.5q64 12 135 13q82 0 161 -23q79 -24 138 -68 q82 -60 115 -149t37 -207h-328q-3 66 -43.5 103t-91.5 37q-36 0 -64.5 -18.5t-38.5 -51.5q-8 -25 -8 -41q0 -52 46.5 -89.5t157 -91.5t177.5 -94t119 -102q90 -108 90 -250q0 -102 -51 -202t-140 -169t-194 -87q-75 -8 -119 -8q-100 0 -190 29t-154 93q-131 126 -131 352z " />
<glyph unicode="T" horiz-adv-x="913" d="M8 1122v336h906v-336h-275v-1122h-357v1122h-274z" />
<glyph unicode="U" horiz-adv-x="1323" d="M114 545v913h357v-897q0 -112 34 -179.5t138 -69.5q4 0 7.5 -2t5.5 -3q94 0 133 74.5t39 179.5v897h356v-913q0 -236 -115 -381q-74 -92 -186.5 -138t-239.5 -46q-94 0 -176 23.5t-151.5 73t-119.5 123.5q-46 70 -61 149t-21 196z" />
<glyph unicode="V" horiz-adv-x="1208" d="M-49 1458h369l274 -979l274 979h369l-447 -1458h-388z" />
<glyph unicode="W" horiz-adv-x="1822" d="M-41 1458h385l196 -832l210 832h315l205 -832l200 832h378l-390 -1458h-328l-225 811l-225 -811h-328z" />
<glyph unicode="X" horiz-adv-x="1278" d="M-70 0l488 758l-414 700h406l262 -454l278 454h390l-480 -737l459 -721h-435l-278 467l-282 -467h-394z" />
<glyph unicode="Y" horiz-adv-x="1073" d="M-70 1458h390l212 -536l222 536h372l-426 -918v-540h-356v540z" />
<glyph unicode="Z" horiz-adv-x="1028" d="M33 0v266l537 877h-521v315h913v-315l-495 -827h491v-316h-925z" />
<glyph unicode="[" horiz-adv-x="663" d="M106 -410v1868h476v-229h-172v-1405h172v-234h-476z" />
<glyph unicode="\" horiz-adv-x="573" d="M0 1458h196l464 -1646h-193z" />
<glyph unicode="]" horiz-adv-x="663" d="M62 -176h172v1405h-172v229h474v-1868h-474v234z" />
<glyph unicode="^" horiz-adv-x="2052" d="M418 901l479 561h254l483 -561h-238l-372 369l-372 -369h-234z" />
<glyph unicode="_" horiz-adv-x="1028" d="M0 -278h1024v-201h-1024v201z" />
<glyph unicode="`" horiz-adv-x="1028" d="M221 1610h254l197 -369h-140z" />
<glyph unicode="a" horiz-adv-x="1347" d="M45 557q0 116 46.5 219.5t125 180.5t174.5 119q97 42 195 42q190 0 311 -139v123h323v-1098h-315v123q-147 -131 -335 -131q-100 0 -195 42t-170 119t-117.5 180t-42.5 220zM364 553q0 -82 39 -141.5t103 -90t133 -30.5q68 0 130.5 30.5t101.5 90.5t39 141 q0 84 -39 146.5t-101.5 93.5t-130.5 31q-69 0 -131 -31t-101 -91.5t-39 -144.5z" />
<glyph unicode="b" horiz-adv-x="1347" d="M110 4v1454h328v-479q116 139 304 139q98 0 195 -42.5t176 -119t126 -179.5t47 -220q0 -118 -43 -221t-119 -179.5t-172 -118.5t-198 -42q-182 0 -332 131v-123h-312zM422 553q0 -124 80 -195.5t186 -71.5q70 0 133 32t102 94t39 145q0 84 -39 144.5t-102 91.5t-133 31 q-106 0 -186 -73.5t-80 -197.5z" />
<glyph unicode="c" d="M41 549q0 140 67.5 270.5t186.5 214.5t262 100h57q208 0 356 -114q148 -116 214 -316h-344q-38 56 -97 85.5t-121 29.5q-65 0 -123.5 -31.5t-95.5 -91.5t-39 -143q0 -2 -2 -8.5t-2 -8.5q0 -75 36 -132.5t94 -89.5t124 -32q60 0 122 28.5t104 82.5h344q-32 -96 -85 -174.5 t-124 -133.5t-161 -84t-192 -29q-103 0 -197.5 34.5t-170.5 99t-128 152.5t-73 192q0 4 -6 41.5t-6 57.5z" />
<glyph unicode="d" horiz-adv-x="1347" d="M45 557q0 116 46.5 219.5t125 180.5t174.5 119q97 42 195 42q190 0 311 -139v479h323v-1454h-315v123q-147 -131 -335 -131q-100 0 -195 42t-170 119t-117.5 180t-42.5 220zM364 553q0 -82 39 -141.5t103 -90t133 -30.5q68 0 130.5 30.5t101.5 90.5t39 141 q0 84 -39 146.5t-101.5 93.5t-130.5 31q-69 0 -131 -31t-101 -91.5t-39 -144.5z" />
<glyph unicode="e" d="M45 553q0 10 2 32.5t2 32.5q10 110 60.5 205t131.5 165t182 108t208 38q75 0 155 -20q118 -34 213 -115t148 -196q61 -143 61 -365h-831q25 -78 71 -119q48 -41 126 -53q10 0 29.5 -4t27.5 -4q76 0 172 62h352q-52 -105 -128.5 -182.5t-177.5 -119.5t-218 -42h-9 q-156 0 -289 78t-210.5 211t-77.5 288zM368 664h512q-32 85 -106 130.5t-160 45.5q-56 0 -108 -21t-89 -61t-49 -94z" />
<glyph unicode="f" horiz-adv-x="663" d="M24 856v246h120q0 2 -2 10t-2 10q0 148 52 227t149 106.5t249 27.5v-221q-60 -2 -86 -18t-32 -44t-9 -98h127v-246h-127v-856h-319v856h-120z" />
<glyph unicode="g" horiz-adv-x="1347" d="M94 549v8q0 116 43.5 219.5t118.5 180t167.5 119t186.5 42.5q182 0 300 -139v123h310v-988q0 -132 -14 -214t-72 -162q-74 -94 -188 -146t-242 -59h-16q-130 0 -247 40.5t-198.5 125.5t-107.5 211h361q18 -52 67 -79t109 -27q54 0 90 12q58 19 89 57.5t42.5 88.5 t11.5 112v45q-147 -123 -315 -123q-96 0 -185 42t-160 118.5t-111 178t-40 214.5zM398 549q0 -82 37 -141.5t97 -90.5t128 -31q65 0 125.5 32t98.5 94t38 145q0 86 -37 147.5t-96 92.5t-125 31q-65 0 -125.5 -32t-98.5 -93.5t-38 -145.5z" />
<glyph unicode="h" horiz-adv-x="1208" d="M110 0v1458h308v-492q108 156 307 156h33q76 -3 146 -38.5t116 -96.5q82 -86 82 -262v-725h-324v598q0 217 -152 217h-40q-80 -6 -120 -67.5t-40 -149.5v-598h-316z" />
<glyph unicode="i" horiz-adv-x="573" d="M127 0v1102h319v-1102h-319zM127 1200v258h319v-258h-319z" />
<glyph unicode="j" horiz-adv-x="573" d="M-12 -131q64 0 94 19t37.5 53.5t7.5 99.5v1061h319v-1049v-25q0 -153 -33 -243.5t-112.5 -132t-218.5 -41.5h-94v258zM127 1200v258h319v-258h-319z" />
<glyph unicode="k" horiz-adv-x="1093" d="M127 0v1458h315v-774l328 418h385l-434 -488l405 -614h-388l-296 504v-504h-315z" />
<glyph unicode="l" horiz-adv-x="573" d="M127 0v1458h319v-1458h-319z" />
<glyph unicode="m" horiz-adv-x="1847" d="M106 0v1102h292v-148q58 85 128 126.5t166 41.5h12q97 0 167 -44q71 -44 129 -132q2 2 51.5 46.5t82 68t66.5 37.5q68 24 152 24q74 0 143 -20q233 -78 233 -377v-725h-315v598q0 100 -31.5 158.5t-115.5 58.5h-37q-78 -6 -117 -69t-39 -148v-598h-319v598 q0 100 -31.5 158.5t-116.5 58.5h-36q-80 -6 -118 -68.5t-38 -148.5v-598h-308z" />
<glyph unicode="n" horiz-adv-x="1208" d="M110 0v1102h304l-4 -148q108 168 315 168h33q76 -3 146 -38.5t116 -96.5q82 -86 82 -262v-725h-324v598q0 217 -152 217h-40q-80 -6 -120 -67.5t-40 -149.5v-598h-316z" />
<glyph unicode="o" d="M45 553q0 120 47 225.5t129 183.5t188.5 121t221.5 43q70 0 98 -4q136 -24 244.5 -110t169.5 -212q61 -128 61 -268v-40q-14 -146 -95.5 -265.5t-210 -187t-276.5 -67.5q-158 0 -291 78t-209.5 211.5t-76.5 291.5zM364 549q0 -70 35 -131.5t95 -98.5t132 -37 q70 0 130 37.5t94 99t34 130.5q0 100 -64 179t-164 91h-34q-68 0 -127.5 -37.5t-95 -100t-35.5 -132.5z" />
<glyph unicode="p" horiz-adv-x="1347" d="M110 -356v1458h308v-127q111 95 184 119q67 20 131 20q89 0 181 -28q112 -36 196.5 -118.5t130 -193t45.5 -225.5q0 -152 -80 -281.5t-207 -204.5t-257 -75q-182 0 -308 143v-487h-324zM418 545q0 -73 35.5 -134t96 -97t130.5 -36l4 -4q72 0 136.5 38t103 102t38.5 135 q0 84 -40 144.5t-104 91t-134 30.5q-68 0 -128 -29.5t-97 -89t-37 -143.5z" />
<glyph unicode="q" horiz-adv-x="1347" d="M49 545q0 96 32.5 190.5t91.5 172.5t141 129.5t178 64.5q74 8 110 8q168 0 316 -135l-8 127h314v-1458h-323v487q-126 -143 -311 -143q-92 0 -183 38t-168 107t-126 160t-60 195q0 8 -2 28t-2 29zM372 549q0 -84 39 -146.5t101.5 -95.5t130.5 -33t130.5 32t101.5 95 t39 148q0 84 -38 144.5t-100 91t-129 30.5q-68 0 -132 -31.5t-103.5 -92t-39.5 -142.5z" />
<glyph unicode="r" horiz-adv-x="729" d="M110 0v1102h304v-148q46 84 112 122.5t166 41.5v-303q-102 0 -157 -23.5t-78 -78t-23 -148.5q0 -2 2 -9.5t2 -10.5v-545h-328z" />
<glyph unicode="s" horiz-adv-x="983" d="M45 328h303l-4 -8q0 -50 39 -80.5t88 -30.5q26 0 51.5 13t38.5 32q17 24 17 53q0 41 -21 61q-22 20 -88 40.5t-140.5 43t-123.5 52.5q-66 42 -102.5 110t-36.5 140q0 81 38 161t108 137.5t160 73.5q66 8 107 8q106 0 192.5 -37t140.5 -113t64 -186h-294q-18 86 -74 99 h-24q-58 0 -82 -41q-16 -24 -17 -53q0 -33 33 -65q28 -27 95.5 -45.5t144 -39.5t124.5 -55q61 -43 92 -110t31 -140q0 -81 -39.5 -159.5t-114.5 -134.5t-173 -74q-74 -8 -119 -8q-108 0 -198 40t-147 121t-69 195z" />
<glyph unicode="t" horiz-adv-x="663" d="M16 860v242h136v356h327v-356h152v-242h-152v-860h-327v860h-136z" />
<glyph unicode="u" horiz-adv-x="1208" d="M106 377v725h324v-598q0 -106 30 -166q32 -60 126 -60l8 4q96 3 142 63.5t46 158.5v598h316v-1102h-300v148q-118 -168 -323 -168h-25q-166 12 -270 134q-74 89 -74 263z" />
<glyph unicode="v" horiz-adv-x="1048" d="M-41 1102h353l208 -713l218 713h339l-401 -1102h-324z" />
<glyph unicode="w" horiz-adv-x="1552" d="M-24 1102h327l168 -652l172 652h283l180 -652l168 652h328l-332 -1102h-295l-185 643l-188 -643h-299z" />
<glyph unicode="x" horiz-adv-x="1143" d="M-58 0l410 602l-356 500h393l185 -287l180 287h344l-352 -528l413 -574h-401l-230 344l-221 -344h-365z" />
<glyph unicode="y" horiz-adv-x="1093" d="M-24 1102h356l208 -639l234 639h348l-586 -1458h-323l164 426z" />
<glyph unicode="z" horiz-adv-x="913" d="M28 0v230l451 585h-451v287h816v-262l-394 -554h406v-286h-828z" />
<glyph unicode="{" horiz-adv-x="1028" d="M156 426v213q2 0 10 -2t10 -2q92 0 145 22.5t77 77.5t24 154v249q0 84 7 137.5t37 99t95 71.5q70 32 209 32h114v-208q-91 0 -136 -12.5t-64.5 -55t-19.5 -133.5v-241q0 -94 -15 -148t-59 -90t-131 -58q87 -24 131 -59.5t59 -90t15 -148.5v-242q0 -70 10.5 -109t35 -58 t64.5 -24.5t110 -5.5v-209h-94q-155 0 -229 33q-64 26 -94.5 72.5t-37.5 98.5t-7 136v250q0 144 -55 197t-191 53h-20z" />
<glyph unicode="|" horiz-adv-x="1028" d="M410 -479v2043h208v-2043h-208z" />
<glyph unicode="}" horiz-adv-x="1028" d="M144 -205q93 0 136.5 11.5t62.5 52.5t21 133v242q0 95 15 149t59 89.5t132 59.5q-88 22 -132 58t-59 90t-15 148v245q-2 92 -21 132.5t-63 52.5t-136 12v208h102q170 0 254 -48q68 -35 87 -103t19 -168v-275q0 -96 23 -150t74 -76.5t141 -22.5q2 0 12 2t12 2v-213h-24 q-90 0 -141.5 -22t-74 -76t-22.5 -152v-250q0 -140 -29.5 -214t-142.5 -105q-92 -21 -221 -21h-69v209z" />
<glyph unicode="~" horiz-adv-x="2052" d="M406 954q0 170 56 287t202 155q62 8 94 9q172 0 315 -135q60 -58 103.5 -88.5t93.5 -30.5q4 1 61 13q68 28 87.5 90t19.5 155h204q0 -415 -315 -451q-8 0 -28.5 -2t-28.5 -2q-166 0 -324 164q-98 90 -184 90q-52 0 -90 -32q-43 -35 -54.5 -87.5t-11.5 -134.5h-200z" />
<glyph horiz-adv-x="1188" />
<glyph horiz-adv-x="983" d="M45 328h303l-4 -8q0 -50 39 -80.5t88 -30.5q26 0 51.5 13t38.5 32q17 24 17 53q0 41 -21 61q-22 20 -88 40.5t-140.5 43t-123.5 52.5q-66 42 -102.5 110t-36.5 140q0 81 38 161t108 137.5t160 73.5q66 8 107 8q106 0 192.5 -37t140.5 -113t64 -186h-294q-18 86 -74 99 h-24q-58 0 -82 -41q-16 -24 -17 -53q0 -33 33 -65q28 -27 95.5 -45.5t144 -39.5t124.5 -55q61 -43 92 -110t31 -140q0 -81 -39.5 -159.5t-114.5 -134.5t-173 -74q-74 -8 -119 -8q-108 0 -198 40t-147 121t-69 195zM217 -299q14 -1 103.5 -19t138.5 -18q80 0 102 29 q13 12 13 41q0 36 -25 49q-42 21 -90 21q-10 0 -31.5 -2t-29.5 -2v200h98v-86q96 -4 158 -27t84 -92q12 -24 12 -61q0 -54 -29 -102q-51 -94 -221 -95q-86 0 -283 45v119z" />
<glyph horiz-adv-x="1597" d="M45 725q0 128 42.5 251.5t123.5 227.5t193 175q114 71 248 95q86 8 130 9q262 1 455 -143q186 -140 262 -357h-401q-154 139 -304 139h-32q-97 -8 -175.5 -62t-123.5 -138t-45 -180l-4 -9q0 -114 54 -206.5t143 -143.5t187 -51q61 0 121 22t114.5 67t92.5 107h-418v291 h832v-86q0 -124 -24 -213q-34 -146 -128.5 -265t-228.5 -189q-169 -90 -365 -90q-100 0 -200 27t-188 80t-160 130.5t-119 175.5q-82 163 -82 336zM479 1962h143l176 -217l177 217h139l-196 -368h-242z" />
<glyph unicode="&#xa1;" horiz-adv-x="663" d="M156 0v979h332v-979h-332zM156 1122v336h328v-336h-328z" />
<glyph unicode="&#xa8;" horiz-adv-x="1028" d="M226 1302v242h228v-242h-228zM574 1302v242h229v-242h-229z" />
<glyph unicode="&#xa9;" horiz-adv-x="1712" d="M106 733q0 144 58 280.5t160.5 242.5t239 166.5t288.5 60.5q154 -2 289.5 -59.5t238 -159.5t160.5 -239t58 -292q0 -200 -101 -371t-272 -270.5t-373 -99.5q-122 0 -237 41t-212 116.5t-165 176t-103 219.5q-29 108 -29 188zM230 733q0 -59 24 -155q36 -132 125 -237 t214 -163.5t263 -58.5q123 0 236.5 48t200.5 133.5t136 197.5t49 235q0 168 -84.5 311.5t-229 227.5t-308.5 84q-168 0 -312 -86.5t-229 -231t-85 -305.5zM450 725l4 13q2 146 61 246t152 150t193 50q86 0 164 -35t129 -100.5t59 -151.5h-188q-9 66 -58.5 106.5t-109.5 40.5 q-80 0 -140 -79t-60 -232q0 -114 47 -203q47 -90 153 -92l8 -4q72 0 115 45t53 119h192q-10 -98 -59.5 -167t-129 -104.5t-179.5 -35.5q-126 0 -218 56.5t-140 155.5t-48 222z" />
<glyph unicode="&#xaa;" horiz-adv-x="1003" d="M33 1073q0 106 59 197t153.5 143.5t192.5 52.5q64 0 127 -25t107 -73v86h242v-766h-234v82q-113 -94 -250 -94q-102 0 -194 53t-147.5 144t-55.5 200zM274 1069q0 -84 61 -134.5t140 -50.5q80 0 142.5 51t62.5 138t-61 138t-140 51t-140 -51t-61 -138z" />
<glyph unicode="&#xab;" horiz-adv-x="1163" d="M156 565l200 295h250l-200 -299l200 -299h-250zM545 565l201 295h245l-197 -299l197 -299h-245z" />
<glyph unicode="&#xac;" horiz-adv-x="1712" d="M254 668v196h1200v-500h-196v304h-1004z" />
<glyph unicode="&#xad;" horiz-adv-x="729" d="M82 406v290h553v-290h-553z" />
<glyph unicode="&#xae;" horiz-adv-x="1712" d="M106 733q0 144 58 280.5t160.5 242.5t239 166.5t288.5 60.5q202 -2 373 -102.5t272 -272.5t101 -375q0 -200 -101 -371t-272 -270.5t-373 -99.5q-122 0 -237 41t-212 116.5t-165 176t-103 219.5q-29 108 -29 188zM230 725q0 -12 4 -36.5t4 -36.5q16 -108 69.5 -206 t137 -173t186.5 -117t213 -42l8 5q168 0 311 81.5t227 221.5t88 307v13q0 123 -50 235.5t-138 197.5t-200.5 133t-233.5 48q-168 0 -312.5 -87t-229 -233t-84.5 -311zM545 336v823h323q140 0 237 -39.5t115 -157.5v-36q0 -80 -50 -140t-130 -82l184 -368h-224l-156 336h-98 v-336h-201zM746 798q10 0 35 -2t38 -2q193 0 193 111v13q-4 118 -205 118h-61v-238z" />
<glyph unicode="&#xaf;" horiz-adv-x="1188" />
<glyph unicode="&#xb0;" horiz-adv-x="1188" />
<glyph unicode="&#xb1;" horiz-adv-x="1712" d="M254 0v196h1200v-196h-1200zM254 700v197h500v327h204v-327h496v-197h-496v-328h-204v328h-500z" />
<glyph unicode="&#xb2;" horiz-adv-x="823" d="M70 1138q3 161 103 242q101 82 237 82q86 0 162 -30q77 -28 116 -80q50 -62 50 -144q0 -118 -86 -225q-86 -112 -250 -205h336v-196h-660v184q142 82 230 145t146 146q42 81 42 127q0 44 -21 70q-17 24 -69 24q-39 0 -58 -12q-45 -34 -45 -107q0 -4 2 -11.5t2 -9.5h-237z " />
<glyph unicode="&#xb3;" horiz-adv-x="823" d="M66 840h233q0 -43 29 -68q30 -26 70 -26q26 0 54 14t40 34t12 46q0 36 -25 61q-32 37 -131 37h-49v164q6 0 13.5 -2t11.5 -2q80 0 122 36q20 20 21 70v37q-6 24 -29.5 36.5t-48.5 12.5q-26 0 -47.5 -22t-21.5 -60v-4h-226q0 166 144 234q66 32 151 32q109 0 189 -48 q50 -32 78 -85t28 -108q0 -59 -35 -107t-100 -70q82 -28 130.5 -69t53.5 -111v-28q0 -51 -21.5 -100.5t-59.5 -88.5t-87 -61q-71 -33 -167 -33q-116 0 -202 45q-130 72 -130 234z" />
<glyph unicode="&#xb4;" horiz-adv-x="1028" d="M352 1241l197 369h258l-315 -369h-140z" />
<glyph unicode="&#xb5;" d="M-62 -438l267 1532h287l-74 -438q-1 -6 -12.5 -67t-16 -103t-4.5 -72q0 -6 2 -20q2 -16 2 -22q3 -72 43.5 -116.5t112.5 -50.5q2 0 6 -2.5t6 -2.5q121 0 174 112t76 266l90 516h287l-193 -1094h-266l17 119q-41 -72 -90.5 -109.5t-123.5 -37.5h-8q-118 0 -208 118 l-86 -528h-288z" />
<glyph unicode="&#xb6;" horiz-adv-x="1028" d="M41 1134q0 81 31 146.5t85.5 110.5t126.5 68.5t150 23.5h549v-115h-111v-1368h-151v1368h-160v-1368h-151v786q-80 7 -134.5 22t-103.5 52q-61 49 -96 122q-35 72 -35 152z" />
<glyph unicode="&#xb8;" horiz-adv-x="1028" d="M246 -299q9 -1 101.5 -19t140.5 -18q79 0 102 29q12 12 12 41q0 36 -24 49q-42 21 -94 21q-11 0 -30.5 -2t-27.5 -2v200h98v-86q96 -4 158 -27t84 -92q12 -24 12 -61q0 -54 -28 -102q-58 -94 -226 -95q-61 0 -118.5 10.5t-159.5 34.5v119z" />
<glyph unicode="&#xb9;" horiz-adv-x="823" d="M156 1290v164h393v-872h-225v708h-168z" />
<glyph unicode="&#xba;" horiz-adv-x="958" d="M33 1073q0 82 35.5 155.5t98 127.5t142 84t166.5 30q10 0 35.5 -2t38.5 -2q99 -14 180 -73t126.5 -146t45.5 -182v-37q-10 -103 -70.5 -186.5t-156.5 -130.5t-207 -47q-118 0 -218.5 54t-158 148.5t-57.5 206.5zM274 1069q0 -75 57.5 -132t139.5 -57q80 0 136.5 57 t56.5 132q0 69 -49 125t-123 64h-29q-76 0 -132.5 -57t-56.5 -132z" />
<glyph unicode="&#xbb;" horiz-adv-x="1163" d="M156 262l200 299l-200 299h250l200 -295l-200 -303h-250zM545 262l201 299l-201 299h249l197 -295l-197 -303h-249z" />
<glyph unicode="&#xbc;" horiz-adv-x="1892" d="M148 1306v148h376v-811h-212v663h-164zM426 -28l836 1515h184l-832 -1515h-188zM1151 148v151l389 512h217v-504h91v-159h-91v-148h-217v148h-389zM1364 299h192l8 275z" />
<glyph unicode="&#xbd;" horiz-adv-x="1892" d="M148 1306v148h376v-811h-212v663h-164zM426 -28l836 1515h184l-832 -1515h-188zM1176 520q0 152 96.5 228t230.5 76q83 0 157 -28t110 -75q40 -59 40 -135q0 -110 -78 -209q-82 -98 -237 -197h319v-180h-634v172q92 50 151 86t115.5 84t93.5 104q45 62 45 124 q-1 34 -21 61q-24 25 -73 25q-32 0 -49 -13q-26 -20 -33.5 -50t-7.5 -73h-225z" />
<glyph unicode="&#xbe;" horiz-adv-x="1892" d="M62 884h224q0 -40 30 -65t69 -25q58 0 86 42q13 20 13 44q0 41 -21 62q-33 33 -127 33h-50v151q102 0 140 29q24 23 24 65q0 30 -4 38q-6 20 -28 32t-46 12t-44.5 -19.5t-20.5 -53.5v-5h-217q0 153 140 218q72 28 142 28q103 0 181 -44q48 -30 75.5 -78t27.5 -98 q0 -56 -33 -102t-99 -66q170 -50 180 -168v-25q0 -71 -45 -137t-119 -100q-72 -30 -159 -30q-105 0 -193 42q-120 64 -126 220zM426 -28l836 1515h184l-832 -1515h-188zM1151 148v151l389 512h217v-504h91v-159h-91v-148h-217v148h-389zM1364 299h192l8 275z" />
<glyph unicode="&#xbf;" horiz-adv-x="1118" d="M74 398q0 2 2 7t2 9q0 160 127 286q26 28 78.5 73.5t81.5 73t53 66t32 87.5h348v-13q0 -92 -42.5 -159.5t-128 -152t-125.5 -138.5q-39 -53 -39 -127q0 -50 35 -87q36 -37 80 -37q48 0 85 47t37 130v16h352v-16q0 -135 -58 -247t-175 -175q-131 -65 -279 -65 q-194 0 -327 114q-65 56 -102 139t-37 169zM459 1126v332h331v-332h-331z" />
<glyph unicode="&#xc0;" d="M-90 0l561 1458h291l561 -1458h-393l-74 213h-479l-78 -213h-389zM324 1962h258l196 -368h-139zM471 512h291l-144 471z" />
<glyph unicode="&#xc1;" d="M-90 0l561 1458h291l561 -1458h-393l-74 213h-479l-78 -213h-389zM459 1594l193 368h258l-312 -368h-139zM471 512h291l-144 471z" />
<glyph unicode="&#xc2;" d="M-90 0l561 1458h291l561 -1458h-393l-74 213h-479l-78 -213h-389zM299 1594l197 368h242l196 -368h-140l-176 216l-176 -216h-143zM471 512h291l-144 471z" />
<glyph unicode="&#xc3;" d="M-90 0l561 1458h291l561 -1458h-393l-74 213h-479l-78 -213h-389zM299 1642q57 234 197 234q40 0 119.5 -24.5t109.5 -24.5q77 0 99 86h110q-58 -246 -209 -246q-39 0 -119 22.5t-110 22.5q-64 0 -86 -70h-111zM471 512h291l-144 471z" />
<glyph unicode="&#xc4;" d="M-90 0l561 1458h291l561 -1458h-393l-74 213h-479l-78 -213h-389zM328 1655v241h229v-241h-229zM471 512h291l-144 471zM676 1655v241h229v-241h-229z" />
<glyph unicode="&#xc5;" d="M-90 0l561 1446h291l561 -1446h-393l-74 213h-479l-78 -213h-389zM381 1736q0 62 33.5 117t88.5 88t115 33q9 0 24.5 -2t21.5 -2q54 -12 97 -48t67 -86q24 -52 24 -104q0 -30 -16 -86q-30 -71 -90 -109t-128 -38q-94 0 -165.5 65.5t-71.5 171.5zM471 512h291l-144 471z M520 1736q0 -44 30 -71t68 -27t68 28q31 26 31 70t-29 68q-30 23 -70 23t-69 -23.5t-29 -67.5z" />
<glyph unicode="&#xc6;" horiz-adv-x="1847" d="M-98 0l794 1458h1024v-315h-434v-246h434v-327h-434v-254h434v-316h-790v282h-467l-143 -282h-418zM618 570h312v573h-37z" />
<glyph unicode="&#xc7;" horiz-adv-x="1597" d="M49 733q0 202 98.5 374.5t269.5 274t377 101.5l9 4q142 0 276.5 -56.5t243.5 -160.5q78 -78 123 -163q46 -85 78 -202h-381q-66 106 -145.5 163.5t-194.5 57.5q-96 0 -180 -45t-138.5 -124t-66.5 -175q0 -12 -2 -30t-2 -23q0 -108 54 -199.5t144 -144.5t186 -53 q93 0 182 52q90 52 154 156h386q-42 -142 -116.5 -249t-172 -177t-206.5 -104t-222 -34q-180 0 -347.5 83t-277 241t-125.5 368q0 10 -2 32t-2 33zM520 -299q14 -1 104 -19t138 -18q78 0 102 29q12 12 12 41q0 36 -24 49q-35 21 -90 21q-11 0 -32.5 -2t-29.5 -2v200h103v-86 q92 -4 153.5 -27t83.5 -92q12 -24 12 -61q0 -54 -28 -102q-52 -94 -221 -95q-61 0 -125 11.5t-158 33.5v119z" />
<glyph unicode="&#xc8;" horiz-adv-x="1028" d="M114 0v1458h791v-320h-434v-237h434v-323h-434v-258h434v-320h-791zM217 1962h254l197 -368h-140z" />
<glyph unicode="&#xc9;" horiz-adv-x="1028" d="M114 0v1458h791v-320h-434v-237h434v-323h-434v-258h434v-320h-791zM348 1594l197 368h258l-315 -368h-140z" />
<glyph unicode="&#xca;" horiz-adv-x="1028" d="M114 0v1458h791v-320h-434v-237h434v-323h-434v-258h434v-320h-791zM192 1594l197 368h242l193 -368h-140l-176 216l-176 -216h-140z" />
<glyph unicode="&#xcb;" horiz-adv-x="1028" d="M114 0v1458h791v-320h-434v-237h434v-323h-434v-258h434v-320h-791zM221 1655v241h229v-241h-229zM570 1655v241h228v-241h-228z" />
<glyph unicode="&#xcc;" horiz-adv-x="594" d="M4 1962h258l197 -368h-143zM119 0v1458h352v-1458h-352z" />
<glyph unicode="&#xcd;" horiz-adv-x="594" d="M119 0v1458h352v-1458h-352zM135 1594l197 368h258l-312 -368h-143z" />
<glyph unicode="&#xce;" horiz-adv-x="594" d="M-20 1594l196 368h242l196 -368h-143l-172 216l-176 -216h-143zM119 0v1458h352v-1458h-352z" />
<glyph unicode="&#xcf;" horiz-adv-x="594" d="M8 1655v241h230v-241h-230zM119 0v1458h352v-1458h-352zM356 1655v241h230v-241h-230z" />
<glyph unicode="&#xd0;" horiz-adv-x="1597" d="M45 725q0 128 42.5 251.5t123.5 227.5t193 175q114 71 248 95q86 8 130 9q262 1 455 -143q186 -140 262 -357h-401q-154 139 -304 139h-32q-97 -8 -175.5 -62t-123.5 -138t-45 -180l-4 -9q0 -114 54 -206.5t143 -143.5t187 -51q61 0 121 22t114.5 67t92.5 107h-418v291 h832v-86q0 -124 -24 -213q-34 -146 -128.5 -265t-228.5 -189q-169 -90 -365 -90q-100 0 -200 27t-188 80t-160 130.5t-119 175.5q-82 163 -82 336zM479 1962h143l176 -217l177 217h139l-196 -368h-242z" />
<glyph unicode="&#xd1;" horiz-adv-x="1458" d="M119 0v1458h323l533 -811v811h352v-1458h-311l-545 811v-811h-352zM410 1642q52 234 196 234q40 0 118 -24.5t108 -24.5q74 0 102 86h106q-58 -246 -204 -246q-38 0 -119 22.5t-111 22.5q-68 0 -90 -70h-106z" />
<glyph unicode="&#xd2;" horiz-adv-x="1618" d="M53 738l5 8q2 203 104 372t274.5 267t374.5 98h73q184 -20 339 -126t244 -271.5t89 -352.5q0 -203 -100 -378t-272 -277t-373 -102h-4q-208 0 -381.5 102t-273 277t-99.5 383zM422 733q0 -100 53 -193.5t143 -150.5t193 -57q104 0 189 56t134.5 149t49.5 196 q-2 94 -34 166.5t-87 121.5t-122 73t-138 24q-94 0 -180.5 -44t-140.5 -129t-56 -203zM512 1962h258l196 -368h-142z" />
<glyph unicode="&#xd3;" horiz-adv-x="1618" d="M53 738l5 8q2 203 104 372t274.5 267t374.5 98h73q184 -20 339 -126t244 -271.5t89 -352.5q0 -203 -100 -378t-272 -277t-373 -102h-4q-208 0 -381.5 102t-273 277t-99.5 383zM422 733q0 -100 53 -193.5t143 -150.5t193 -57q104 0 189 56t134.5 149t49.5 196 q-2 94 -34 166.5t-87 121.5t-122 73t-138 24q-94 0 -180.5 -44t-140.5 -129t-56 -203zM643 1594l197 368h258l-312 -368h-143z" />
<glyph unicode="&#xd4;" horiz-adv-x="1618" d="M53 738l5 8q2 203 104 372t274.5 267t374.5 98h73q184 -20 339 -126t244 -271.5t89 -352.5q0 -203 -100 -378t-272 -277t-373 -102h-4q-208 0 -381.5 102t-273 277t-99.5 383zM422 733q0 -100 53 -193.5t143 -150.5t193 -57q104 0 189 56t134.5 149t49.5 196 q-2 94 -34 166.5t-87 121.5t-122 73t-138 24q-94 0 -180.5 -44t-140.5 -129t-56 -203zM488 1594l196 368h242l196 -368h-139l-176 216l-176 -216h-143z" />
<glyph unicode="&#xd5;" horiz-adv-x="1618" d="M53 738l5 8q2 203 104 372t274.5 267t374.5 98h73q184 -20 339 -126t244 -271.5t89 -352.5q0 -203 -100 -378t-272 -277t-373 -102h-4q-208 0 -381.5 102t-273 277t-99.5 383zM422 733q0 -100 53 -193.5t143 -150.5t193 -57q104 0 189 56t134.5 149t49.5 196 q-2 94 -34 166.5t-87 121.5t-122 73t-138 24q-94 0 -180.5 -44t-140.5 -129t-56 -203zM488 1642q57 234 196 234q40 0 120 -24.5t110 -24.5q76 0 98 86h110q-64 -246 -208 -246q-39 0 -119.5 22.5t-110.5 22.5q-64 0 -86 -70h-110z" />
<glyph unicode="&#xd6;" horiz-adv-x="1618" d="M53 738l5 8q2 203 104 372t274.5 267t374.5 98h73q184 -20 339 -126t244 -271.5t89 -352.5q0 -203 -100 -378t-272 -277t-373 -102h-4q-208 0 -381.5 102t-273 277t-99.5 383zM422 733q0 -100 53 -193.5t143 -150.5t193 -57q104 0 189 56t134.5 149t49.5 196 q-2 94 -34 166.5t-87 121.5t-122 73t-138 24q-94 0 -180.5 -44t-140.5 -129t-56 -203zM516 1655v241h230v-241h-230zM864 1655v241h230v-241h-230z" />
<glyph unicode="&#xd7;" horiz-adv-x="1188" />
<glyph unicode="&#xd8;" horiz-adv-x="1618" d="M-28 37l228 245q-142 222 -142 456q0 199 98 370.5t266 273t364 101.5q220 0 422 -119l193 209l176 -160l-189 -209q84 -114 126 -237t42 -242q0 -148 -59 -284t-165 -241.5t-243 -164.5t-286 -59q-229 0 -435 134l-224 -237zM430 733q0 -81 37 -168l491 529 q-70 28 -155 28q-102 0 -187.5 -53t-135.5 -143t-50 -193zM626 385q122 -53 198 -53q72 0 142 35t124 100q94 106 94 262q0 109 -46 205z" />
<glyph unicode="&#xd9;" horiz-adv-x="1323" d="M114 545v913h357v-897q0 -112 34 -179.5t138 -69.5q4 0 7.5 -2t5.5 -3q94 0 133 74.5t39 179.5v897h356v-913q0 -236 -115 -381q-74 -92 -186.5 -138t-239.5 -46q-94 0 -176 23.5t-151.5 73t-119.5 123.5q-46 70 -61 149t-21 196zM356 1962h258l197 -368h-143z" />
<glyph unicode="&#xda;" horiz-adv-x="1323" d="M114 545v913h357v-897q0 -112 34 -179.5t138 -69.5q4 0 7.5 -2t5.5 -3q94 0 133 74.5t39 179.5v897h356v-913q0 -236 -115 -381q-74 -92 -186.5 -138t-239.5 -46q-94 0 -176 23.5t-151.5 73t-119.5 123.5q-46 70 -61 149t-21 196zM488 1594l196 368h258l-311 -368h-143z " />
<glyph unicode="&#xdb;" horiz-adv-x="1323" d="M114 545v913h357v-897q0 -112 34 -179.5t138 -69.5q4 0 7.5 -2t5.5 -3q94 0 133 74.5t39 179.5v897h356v-913q0 -236 -115 -381q-74 -92 -186.5 -138t-239.5 -46q-94 0 -176 23.5t-151.5 73t-119.5 123.5q-46 70 -61 149t-21 196zM332 1594l196 368h242l196 -368h-142 l-177 216l-176 -216h-139z" />
<glyph unicode="&#xdc;" horiz-adv-x="1323" d="M114 545v913h357v-897q0 -112 34 -179.5t138 -69.5q4 0 7.5 -2t5.5 -3q94 0 133 74.5t39 179.5v897h356v-913q0 -236 -115 -381q-74 -92 -186.5 -138t-239.5 -46q-94 0 -176 23.5t-151.5 73t-119.5 123.5q-46 70 -61 149t-21 196zM360 1655v241h230v-241h-230zM708 1655 v241h230v-241h-230z" />
<glyph unicode="&#xdd;" horiz-adv-x="594" d="M119 0v1458h352v-1458h-352zM180 1646v258h238v-258h-238z" />
<glyph unicode="&#xde;" horiz-adv-x="1118" d="M49 446q0 4 2 16.5t2 16.5h340q-1 -117 53 -167q28 -30 78 -30q32 0 66.5 14t52.5 36q17 28 17 74q0 74 -42 114q-28 25 -108 60.5t-154 71t-126 77.5q-77 62 -118.5 146.5t-41.5 168.5q0 92 44.5 181.5t125.5 154t186 90.5q64 12 135 13q82 0 161 -23q79 -24 138 -68 q82 -60 115 -149t37 -207h-328q-3 66 -43.5 103t-91.5 37q-36 0 -64.5 -18.5t-38.5 -51.5q-8 -25 -8 -41q0 -52 46.5 -89.5t157 -91.5t177.5 -94t119 -102q90 -108 90 -250q0 -102 -51 -202t-140 -169t-194 -87q-75 -8 -119 -8q-100 0 -190 29t-154 93q-131 126 -131 352z M282 -299q10 -1 102 -19t140 -18q80 0 102 29q8 15 9 41q-1 34 -21 49q-42 21 -94 21q-11 0 -30.5 -2t-26.5 -2v200h98v-86q94 -4 157 -27t85 -92q8 -32 8 -61q-1 -60 -25 -102q-58 -94 -225 -95q-82 0 -279 45v119z" />
<glyph unicode="&#xdf;" horiz-adv-x="1368" d="M98 0v934q0 288 156 422q66 66 161 96.5t203 30.5q48 -1 136 -9q76 -13 139.5 -49t110 -88.5t70.5 -114.5q24 -60 24 -124q0 -73 -35 -143q-35 -69 -105 -127q127 -18 205.5 -82t110.5 -189q12 -49 12 -111q0 -166 -110 -302q-72 -81 -179 -124.5t-223 -43.5h-16 q-198 6 -328 147v-123h-332zM426 942q0 -6 2 -20t2 -21v-491h246q8 -50 44 -78.5t78 -28.5q49 0 91 33.5t45 85.5v20q0 106 -91 141t-229 35h-78v275q134 -1 181 69q21 34 21 74q0 60 -38 98q-46 34 -110 34q-48 0 -90 -21q-74 -50 -74 -205z" />
<glyph unicode="&#xe0;" horiz-adv-x="1347" d="M45 557q0 116 46.5 219.5t125 180.5t174.5 119q97 42 195 42q190 0 311 -139v123h323v-1098h-315v123q-147 -131 -335 -131q-100 0 -195 42t-170 119t-117.5 180t-42.5 220zM364 553q0 -82 39 -141.5t103 -90t133 -30.5q68 0 130.5 30.5t101.5 90.5t39 141 q0 84 -39 146.5t-101.5 93.5t-130.5 31q-69 0 -131 -31t-101 -91.5t-39 -144.5zM406 1610h254l196 -369h-139z" />
<glyph unicode="&#xe1;" horiz-adv-x="1347" d="M45 557q0 116 46.5 219.5t125 180.5t174.5 119q97 42 195 42q190 0 311 -139v123h323v-1098h-315v123q-147 -131 -335 -131q-100 0 -195 42t-170 119t-117.5 180t-42.5 220zM364 553q0 -82 39 -141.5t103 -90t133 -30.5q68 0 130.5 30.5t101.5 90.5t39 141 q0 84 -39 146.5t-101.5 93.5t-130.5 31q-69 0 -131 -31t-101 -91.5t-39 -144.5zM536 1241l197 369h254l-311 -369h-140z" />
<glyph unicode="&#xe2;" horiz-adv-x="1347" d="M45 557q0 116 46.5 219.5t125 180.5t174.5 119q97 42 195 42q190 0 311 -139v123h323v-1098h-315v123q-147 -131 -335 -131q-100 0 -195 42t-170 119t-117.5 180t-42.5 220zM364 553q0 -82 39 -141.5t103 -90t133 -30.5q68 0 130.5 30.5t101.5 90.5t39 141 q0 84 -39 146.5t-101.5 93.5t-130.5 31q-69 0 -131 -31t-101 -91.5t-39 -144.5zM381 1241l197 369h237l197 -369h-140l-176 217l-176 -217h-139z" />
<glyph unicode="&#xe3;" horiz-adv-x="1347" d="M45 557q0 116 46.5 219.5t125 180.5t174.5 119q97 42 195 42q190 0 311 -139v123h323v-1098h-315v123q-147 -131 -335 -131q-100 0 -195 42t-170 119t-117.5 180t-42.5 220zM364 553q0 -82 39 -141.5t103 -90t133 -30.5q68 0 130.5 30.5t101.5 90.5t39 141 q0 84 -39 146.5t-101.5 93.5t-130.5 31q-69 0 -131 -31t-101 -91.5t-39 -144.5zM381 1290q53 234 197 234q40 0 117.5 -25t107.5 -25q74 0 102 86h107q-58 -246 -205 -245q-39 0 -119 22.5t-110 22.5q-68 0 -90 -70h-107z" />
<glyph unicode="&#xe4;" horiz-adv-x="1347" d="M45 557q0 116 46.5 219.5t125 180.5t174.5 119q97 42 195 42q190 0 311 -139v123h323v-1098h-315v123q-147 -131 -335 -131q-100 0 -195 42t-170 119t-117.5 180t-42.5 220zM364 553q0 -82 39 -141.5t103 -90t133 -30.5q68 0 130.5 30.5t101.5 90.5t39 141 q0 84 -39 146.5t-101.5 93.5t-130.5 31q-69 0 -131 -31t-101 -91.5t-39 -144.5zM410 1302v242h229v-242h-229zM758 1302v242h225v-242h-225z" />
<glyph unicode="&#xe5;" horiz-adv-x="1347" d="M45 557q0 116 46.5 219.5t125 180.5t174.5 119q97 42 195 42q190 0 311 -139v123h323v-1098h-315v123q-147 -131 -335 -131q-100 0 -195 42t-170 119t-117.5 180t-42.5 220zM364 553q0 -82 39 -141.5t103 -90t133 -30.5q68 0 130.5 30.5t101.5 90.5t39 141 q0 84 -39 146.5t-101.5 93.5t-130.5 31q-69 0 -131 -31t-101 -91.5t-39 -144.5zM381 1417q0 64 33.5 119t88.5 87t115 32h42q84 -14 138 -83.5t54 -154.5q0 -34 -16 -90q-30 -71 -90 -109t-128 -38q-94 0 -165.5 65.5t-71.5 171.5zM516 1413q0 -40 30 -65t68 -25t70.5 26.5 t32.5 67.5q0 44 -29.5 69.5t-69.5 25.5t-69 -25.5t-29 -69.5z" />
<glyph unicode="&#xe6;" horiz-adv-x="2097" d="M45 549v8q0 114 43.5 217t119.5 181t169 120.5t188 42.5q80 0 158.5 -32t140.5 -95v111h274v-111q136 135 336 135q87 0 152 -16q116 -30 212 -116t148 -200q58 -139 58 -360h-828q45 -154 193 -172q10 0 31.5 -4t29.5 -4q76 0 172 62h357q-136 -266 -381 -328 q-98 -16 -160 -16q-36 0 -110 8q-92 23 -210 139v-119h-274v119q-134 -127 -303 -127q-96 0 -188.5 42t-167.5 118.5t-117.5 178t-42.5 218.5zM352 553q0 -82 37 -141.5t97 -89.5q60 -31 128 -31t129 30.5t99 91.5t38 144q0 86 -38 147.5t-98 92.5t-126 31q-104 0 -183 -72 t-79 -199zM1208 652h512q-27 88 -93 134q-67 46 -157 46h-12q-96 0 -165.5 -46t-84.5 -134z" />
<glyph unicode="&#xe7;" d="M41 549q0 140 67.5 270.5t186.5 214.5t262 100h57q208 0 356 -114q148 -116 214 -316h-344q-38 56 -97 85.5t-121 29.5q-65 0 -123.5 -31.5t-95.5 -91.5t-39 -143q0 -2 -2 -8.5t-2 -8.5q0 -75 36 -132.5t94 -89.5t124 -32q60 0 122 28.5t104 82.5h344q-32 -96 -85 -174.5 t-124 -133.5t-161 -84t-192 -29q-103 0 -197.5 34.5t-170.5 99t-128 152.5t-73 192q0 4 -6 41.5t-6 57.5zM352 -299q14 -1 104 -19t138 -18q78 0 102 29q12 12 12 41q0 36 -24 49q-35 21 -90 21q-11 0 -32.5 -2t-29.5 -2v200h103v-86q92 -4 153.5 -27t83.5 -92 q12 -24 12 -61q0 -54 -28 -102q-52 -94 -221 -95q-87 0 -283 45v119z" />
<glyph unicode="&#xe8;" d="M45 553q0 10 2 32.5t2 32.5q10 110 60.5 205t131.5 165t182 108t208 38q75 0 155 -20q118 -34 213 -115t148 -196q61 -143 61 -365h-831q25 -78 71 -119q48 -41 126 -53q10 0 29.5 -4t27.5 -4q76 0 172 62h352q-52 -105 -128.5 -182.5t-177.5 -119.5t-218 -42h-9 q-156 0 -289 78t-210.5 211t-77.5 288zM332 1610h258l196 -369h-143zM368 664h512q-32 85 -106 130.5t-160 45.5q-56 0 -108 -21t-89 -61t-49 -94z" />
<glyph unicode="&#xe9;" d="M45 553q0 10 2 32.5t2 32.5q10 110 60.5 205t131.5 165t182 108t208 38q75 0 155 -20q118 -34 213 -115t148 -196q61 -143 61 -365h-831q25 -78 71 -119q48 -41 126 -53q10 0 29.5 -4t27.5 -4q76 0 172 62h352q-52 -105 -128.5 -182.5t-177.5 -119.5t-218 -42h-9 q-156 0 -289 78t-210.5 211t-77.5 288zM368 664h512q-32 85 -106 130.5t-160 45.5q-56 0 -108 -21t-89 -61t-49 -94zM467 1241l193 369h258l-312 -369h-139z" />
<glyph unicode="&#xea;" d="M45 553q0 10 2 32.5t2 32.5q10 110 60.5 205t131.5 165t182 108t208 38q75 0 155 -20q118 -34 213 -115t148 -196q61 -143 61 -365h-831q25 -78 71 -119q48 -41 126 -53q10 0 29.5 -4t27.5 -4q76 0 172 62h352q-52 -105 -128.5 -182.5t-177.5 -119.5t-218 -42h-9 q-156 0 -289 78t-210.5 211t-77.5 288zM307 1241l197 369h242l196 -369h-139l-177 217l-176 -217h-143zM368 664h512q-32 85 -106 130.5t-160 45.5q-56 0 -108 -21t-89 -61t-49 -94z" />
<glyph unicode="&#xeb;" d="M45 553q0 10 2 32.5t2 32.5q10 110 60.5 205t131.5 165t182 108t208 38q75 0 155 -20q118 -34 213 -115t148 -196q61 -143 61 -365h-831q25 -78 71 -119q48 -41 126 -53q10 0 29.5 -4t27.5 -4q76 0 172 62h352q-52 -105 -128.5 -182.5t-177.5 -119.5t-218 -42h-9 q-156 0 -289 78t-210.5 211t-77.5 288zM336 1302v242h229v-242h-229zM368 664h512q-32 85 -106 130.5t-160 45.5q-56 0 -108 -21t-89 -61t-49 -94zM684 1302v242h230v-242h-230z" />
<glyph unicode="&#xec;" horiz-adv-x="573" d="M-8 1610h258l196 -369h-143zM127 0v1102h319v-1102h-319z" />
<glyph unicode="&#xed;" horiz-adv-x="573" d="M127 0v1102h319v-1102h-319zM127 1241l193 369h258l-312 -369h-139z" />
<glyph unicode="&#xee;" horiz-adv-x="573" d="M-33 1241l197 369h242l196 -369h-139l-177 217l-176 -217h-143zM127 0v1102h319v-1102h-319z" />
<glyph unicode="&#xef;" horiz-adv-x="573" d="M-4 1302v242h230v-242h-230zM127 0v1102h319v-1102h-319zM344 1302v242h230v-242h-230z" />
<glyph unicode="&#xf0;" horiz-adv-x="1347" d="M94 549v8q0 116 43.5 219.5t118.5 180t167.5 119t186.5 42.5q182 0 300 -139v123h310v-988q0 -132 -14 -214t-72 -162q-74 -94 -188 -146t-242 -59h-16q-130 0 -247 40.5t-198.5 125.5t-107.5 211h361q18 -52 67 -79t109 -27q54 0 90 12q58 19 89 57.5t42.5 88.5 t11.5 112v45q-147 -123 -315 -123q-96 0 -185 42t-160 118.5t-111 178t-40 214.5zM348 1610h140l176 -218l176 218h143l-197 -369h-241zM398 549q0 -82 37 -141.5t97 -90.5t128 -31q65 0 125.5 32t98.5 94t38 145q0 86 -37 147.5t-96 92.5t-125 31q-65 0 -125.5 -32 t-98.5 -93.5t-38 -145.5z" />
<glyph unicode="&#xf1;" horiz-adv-x="1208" d="M110 0v1102h304l-4 -148q108 168 315 168h33q76 -3 146 -38.5t116 -96.5q82 -86 82 -262v-725h-324v598q0 217 -152 217h-40q-80 -6 -120 -67.5t-40 -149.5v-598h-316zM286 1290q52 234 198 234q24 0 52.5 -7t65 -18.5t60.5 -18.5q24 -6 46 -6q74 0 103 86h107 q-58 -246 -210 -245q-38 0 -118 22.5t-111 22.5q-64 0 -86 -70h-107z" />
<glyph unicode="&#xf2;" d="M45 553q0 120 47 225.5t129 183.5t188.5 121t221.5 43q70 0 98 -4q136 -24 244.5 -110t169.5 -212q61 -128 61 -268v-40q-14 -146 -95.5 -265.5t-210 -187t-276.5 -67.5q-158 0 -291 78t-209.5 211.5t-76.5 291.5zM332 1610h258l196 -369h-143zM364 549q0 -70 35 -131.5 t95 -98.5t132 -37q70 0 130 37.5t94 99t34 130.5q0 100 -64 179t-164 91h-34q-68 0 -127.5 -37.5t-95 -100t-35.5 -132.5z" />
<glyph unicode="&#xf3;" d="M45 553q0 120 47 225.5t129 183.5t188.5 121t221.5 43q70 0 98 -4q136 -24 244.5 -110t169.5 -212q61 -128 61 -268v-40q-14 -146 -95.5 -265.5t-210 -187t-276.5 -67.5q-158 0 -291 78t-209.5 211.5t-76.5 291.5zM364 549q0 -70 35 -131.5t95 -98.5t132 -37 q70 0 130 37.5t94 99t34 130.5q0 100 -64 179t-164 91h-34q-68 0 -127.5 -37.5t-95 -100t-35.5 -132.5zM467 1241l193 369h258l-312 -369h-139z" />
<glyph unicode="&#xf4;" d="M45 553q0 120 47 225.5t129 183.5t188.5 121t221.5 43q70 0 98 -4q136 -24 244.5 -110t169.5 -212q61 -128 61 -268v-40q-14 -146 -95.5 -265.5t-210 -187t-276.5 -67.5q-158 0 -291 78t-209.5 211.5t-76.5 291.5zM307 1241l197 369h242l196 -369h-139l-177 217 l-176 -217h-143zM364 549q0 -70 35 -131.5t95 -98.5t132 -37q70 0 130 37.5t94 99t34 130.5q0 100 -64 179t-164 91h-34q-68 0 -127.5 -37.5t-95 -100t-35.5 -132.5z" />
<glyph unicode="&#xf5;" d="M45 553q0 120 47 225.5t129 183.5t188.5 121t221.5 43q70 0 98 -4q136 -24 244.5 -110t169.5 -212q61 -128 61 -268v-40q-14 -146 -95.5 -265.5t-210 -187t-276.5 -67.5q-158 0 -291 78t-209.5 211.5t-76.5 291.5zM307 1290q58 234 197 234q25 0 53.5 -7t66.5 -18.5 t63 -18t46 -6.5q77 0 99 86h110q-62 -246 -209 -245q-38 0 -118.5 22.5t-110.5 22.5q-65 0 -86 -70h-111zM364 549q0 -70 35 -131.5t95 -98.5t132 -37q70 0 130 37.5t94 99t34 130.5q0 100 -64 179t-164 91h-34q-68 0 -127.5 -37.5t-95 -100t-35.5 -132.5z" />
<glyph unicode="&#xf6;" d="M45 553q0 120 47 225.5t129 183.5t188.5 121t221.5 43q70 0 98 -4q136 -24 244.5 -110t169.5 -212q61 -128 61 -268v-40q-14 -146 -95.5 -265.5t-210 -187t-276.5 -67.5q-158 0 -291 78t-209.5 211.5t-76.5 291.5zM336 1302v242h229v-242h-229zM364 549q0 -70 35 -131.5 t95 -98.5t132 -37q70 0 130 37.5t94 99t34 130.5q0 100 -64 179t-164 91h-34q-68 0 -127.5 -37.5t-95 -100t-35.5 -132.5zM684 1302v242h230v-242h-230z" />
<glyph unicode="&#xf7;" horiz-adv-x="1188" />
<glyph unicode="&#xf8;" d="M-33 33l181 188q-106 180 -107 344q0 104 44 206.5t128 186.5q161 168 397 168q167 0 320 -82l164 168l139 -135l-156 -163q60 -75 91.5 -172.5t31.5 -196.5q0 -112 -41 -216.5t-119 -184.5q-80 -84 -190 -128t-224 -44q-192 0 -344 110l-176 -184zM356 561 q0 -27 21 -107l331 349q-58 8 -98 8q-124 0 -196 -90q-58 -70 -58 -160zM492 312q78 -30 126 -30q111 0 186.5 74t75.5 180q0 86 -32 152z" />
<glyph unicode="&#xf9;" horiz-adv-x="1208" d="M106 377v725h324v-598q0 -106 30 -166q32 -60 126 -60l8 4q96 3 142 63.5t46 158.5v598h316v-1102h-300v148q-118 -168 -323 -168h-25q-166 12 -270 134q-74 89 -74 263zM307 1610h258l197 -369h-140z" />
<glyph unicode="&#xfa;" horiz-adv-x="1208" d="M106 377v725h324v-598q0 -106 30 -166q32 -60 126 -60l8 4q96 3 142 63.5t46 158.5v598h316v-1102h-300v148q-118 -168 -323 -168h-25q-166 12 -270 134q-74 89 -74 263zM442 1241l197 369h254l-311 -369h-140z" />
<glyph unicode="&#xfb;" horiz-adv-x="1208" d="M106 377v725h324v-598q0 -106 30 -166q32 -60 126 -60l8 4q96 3 142 63.5t46 158.5v598h316v-1102h-300v148q-118 -168 -323 -168h-25q-166 12 -270 134q-74 89 -74 263zM286 1241l193 369h242l197 -369h-140l-176 217l-176 -217h-140z" />
<glyph unicode="&#xfc;" horiz-adv-x="1208" d="M106 377v725h324v-598q0 -106 30 -166q32 -60 126 -60l8 4q96 3 142 63.5t46 158.5v598h316v-1102h-300v148q-118 -168 -323 -168h-25q-166 12 -270 134q-74 89 -74 263zM312 1302v242h228v-242h-228zM660 1302v242h229v-242h-229z" />
<glyph unicode="&#xfd;" horiz-adv-x="573" d="M127 0v1102h319v-1102h-319z" />
<glyph unicode="&#xfe;" horiz-adv-x="983" d="M45 328h303l-4 -8q0 -50 39 -80.5t88 -30.5q26 0 51.5 13t38.5 32q17 24 17 53q0 41 -21 61q-22 20 -88 40.5t-140.5 43t-123.5 52.5q-66 42 -102.5 110t-36.5 140q0 81 38 161t108 137.5t160 73.5q66 8 107 8q106 0 192.5 -37t140.5 -113t64 -186h-294q-18 86 -74 99 h-24q-58 0 -82 -41q-16 -24 -17 -53q0 -33 33 -65q28 -27 95.5 -45.5t144 -39.5t124.5 -55q61 -43 92 -110t31 -140q0 -81 -39.5 -159.5t-114.5 -134.5t-173 -74q-74 -8 -119 -8q-108 0 -198 40t-147 121t-69 195zM217 -299q14 -1 103.5 -19t138.5 -18q80 0 102 29 q13 12 13 41q0 36 -25 49q-42 21 -90 21q-10 0 -31.5 -2t-29.5 -2v200h98v-86q96 -4 158 -27t84 -92q12 -24 12 -61q0 -54 -29 -102q-51 -94 -221 -95q-86 0 -283 45v119z" />
<glyph unicode="&#xff;" horiz-adv-x="1093" d="M-24 1102h356l208 -639l234 639h348l-586 -1458h-323l164 426zM258 1302v242h226v-242h-226zM606 1302v242h226v-242h-226z" />
<glyph unicode="&#x152;" horiz-adv-x="729" />
<glyph unicode="&#x153;" horiz-adv-x="1118" d="M49 446q0 4 2 16.5t2 16.5h340q-1 -117 53 -167q28 -30 78 -30q32 0 66.5 14t52.5 36q17 28 17 74q0 74 -42 114q-28 25 -108 60.5t-154 71t-126 77.5q-77 62 -118.5 146.5t-41.5 168.5q0 92 44.5 181.5t125.5 154t186 90.5q64 12 135 13q82 0 161 -23q79 -24 138 -68 q82 -60 115 -149t37 -207h-328q-3 66 -43.5 103t-91.5 37q-36 0 -64.5 -18.5t-38.5 -51.5q-8 -25 -8 -41q0 -52 46.5 -89.5t157 -91.5t177.5 -94t119 -102q90 -108 90 -250q0 -102 -51 -202t-140 -169t-194 -87q-75 -8 -119 -8q-100 0 -190 29t-154 93q-131 126 -131 352z M282 -299q10 -1 102 -19t140 -18q80 0 102 29q8 15 9 41q-1 34 -21 49q-42 21 -94 21q-11 0 -30.5 -2t-26.5 -2v200h98v-86q94 -4 157 -27t85 -92q8 -32 8 -61q-1 -60 -25 -102q-58 -94 -225 -95q-82 0 -279 45v119z" />
<glyph unicode="&#x178;" horiz-adv-x="1347" d="M94 549v8q0 116 43.5 219.5t118.5 180t167.5 119t186.5 42.5q182 0 300 -139v123h310v-988q0 -132 -14 -214t-72 -162q-74 -94 -188 -146t-242 -59h-16q-130 0 -247 40.5t-198.5 125.5t-107.5 211h361q18 -52 67 -79t109 -27q54 0 90 12q58 19 89 57.5t42.5 88.5 t11.5 112v45q-147 -123 -315 -123q-96 0 -185 42t-160 118.5t-111 178t-40 214.5zM348 1610h140l176 -218l176 218h143l-197 -369h-241zM398 549q0 -82 37 -141.5t97 -90.5t128 -31q65 0 125.5 32t98.5 94t38 145q0 86 -37 147.5t-96 92.5t-125 31q-65 0 -125.5 -32 t-98.5 -93.5t-38 -145.5z" />
<glyph unicode="&#x2dc;" horiz-adv-x="729" />
<glyph unicode="&#x2000;" horiz-adv-x="987" />
<glyph unicode="&#x2001;" horiz-adv-x="1974" />
<glyph unicode="&#x2002;" horiz-adv-x="987" />
<glyph unicode="&#x2003;" horiz-adv-x="1974" />
<glyph unicode="&#x2004;" horiz-adv-x="658" />
<glyph unicode="&#x2005;" horiz-adv-x="493" />
<glyph unicode="&#x2006;" horiz-adv-x="329" />
<glyph unicode="&#x2007;" horiz-adv-x="329" />
<glyph unicode="&#x2008;" horiz-adv-x="246" />
<glyph unicode="&#x2009;" horiz-adv-x="394" />
<glyph unicode="&#x200a;" horiz-adv-x="109" />
<glyph unicode="&#x2010;" horiz-adv-x="729" d="M82 406v290h553v-290h-553z" />
<glyph unicode="&#x2011;" horiz-adv-x="729" d="M82 406v290h553v-290h-553z" />
<glyph unicode="&#x2012;" horiz-adv-x="729" d="M82 406v290h553v-290h-553z" />
<glyph unicode="&#x2013;" horiz-adv-x="1028" d="M0 426v246h1024v-246h-1024z" />
<glyph unicode="&#x2014;" horiz-adv-x="2052" d="M0 426v246h2048v-246h-2048z" />
<glyph unicode="&#x2018;" horiz-adv-x="549" d="M102 815v377q0 165 76 230t236 65h20v-168h-12q-80 0 -101.5 -37.5t-21.5 -126.5h135v-340h-332z" />
<glyph unicode="&#x2019;" horiz-adv-x="549" d="M110 790v168l9 -4q79 0 103 40t24 128h-136v336h336v-376q0 -164 -79 -230t-236 -66q-2 0 -10.5 2t-10.5 2z" />
<glyph unicode="&#x201a;" horiz-adv-x="729" />
<glyph unicode="&#x201c;" horiz-adv-x="1003" d="M102 815v377q0 164 78 229.5t238 65.5h20v-168h-12q-84 0 -105.5 -37.5t-21.5 -126.5h139v-340h-336zM578 815v377q0 164 77.5 229.5t237.5 65.5h21v-168h-13q-78 0 -100.5 -38.5t-22.5 -125.5h136v-340h-336z" />
<glyph unicode="&#x201d;" horiz-adv-x="1003" d="M110 790v168l9 -4q79 0 103 40t24 128h-136v336h336v-376q0 -164 -79 -230t-236 -66q-2 0 -10.5 2t-10.5 2zM586 790v168q3 0 5 -1t3 -3q81 0 104.5 39t26.5 129h-139v336h336v-376q0 -164 -78 -230t-238 -66q-2 0 -10 2t-10 2z" />
<glyph unicode="&#x201e;" horiz-adv-x="729" />
<glyph unicode="&#x2026;" horiz-adv-x="729" />
<glyph unicode="&#x202f;" horiz-adv-x="394" />
<glyph unicode="&#x2039;" horiz-adv-x="1712" d="M266 512v200l1176 480v-213l-893 -365l893 -368v-218z" />
<glyph unicode="&#x203a;" horiz-adv-x="573" d="M127 0v1102h319v-1102h-319z" />
<glyph unicode="&#x205f;" horiz-adv-x="493" />
<glyph unicode="&#x2122;" horiz-adv-x="729" />
<glyph unicode="&#xe000;" horiz-adv-x="1102" d="M0 0v1102h1102v-1102h-1102z" />
</font>
</defs>
</svg>
