<?xml version="1.0" encoding="utf-8"?>
<!-- Generator: Adobe Illustrator 16.0.4, SVG Export Plug-In . SVG Version: 6.00 Build 0)  -->
<svg version="1.2" baseProfile="tiny" id="TP_x5F_darkmint_1_"
	 xmlns="http://www.w3.org/2000/svg" xmlns:xlink="http://www.w3.org/1999/xlink" x="0px" y="0px" width="1002.448px"
	 height="237.441px" viewBox="0 0 1002.448 237.441" xml:space="preserve">
<path fill="#FFFFFF" d="M886.198,81.274V58.742c-0.002-0.461-0.349-0.833-0.81-0.833h-4.78c-19.643,0-29.706,3.717-35.917,13.308
	l-1.803,3.229V58.543c0-0.461-0.375-0.835-0.836-0.835h-26.587c-0.463,0-0.834,0.374-0.834,0.835v118.316
	c0,0.461,0.371,0.833,0.834,0.833h27.864c0.461,0,0.835-0.372,0.835-0.833l0.022-68.527c0-19.179,17.148-25.986,31.837-25.986
	l9.322,0.019c0.005,0,0.01,0,0.016,0c0.475-0.023,0.836-0.368,0.836-0.835C886.198,81.447,886.221,81.349,886.198,81.274z"/>
<path fill="#FFFFFF" d="M585.159,55.459c-19.065,0-33.971,9.139-39.772,14.539V58.843c0-0.461-0.375-0.835-0.835-0.835h-26.589
	c-0.462,0-0.834,0.374-0.834,0.835V224.6c0,0.462,0.372,0.837,0.834,0.837h27.828c0.461,0,0.834-0.375,0.834-0.837v-57.532
	c6.484,5.686,15.368,13.473,39.408,13.473c15.949,0,28.921-6.441,40.815-20.272c9.908-11.462,15.362-26.429,15.362-42.141
	C642.21,82.401,617.684,55.459,585.159,55.459z M579.028,82.444c19.185,0,33.651,15.341,33.651,35.684
	c0,20.195-14.794,35.424-34.411,35.424c-18.903,0-31.604-14.075-31.604-35.027v-1.051C546.665,96.848,559.973,82.444,579.028,82.444
	z"/>
<path fill="#FFFFFF" d="M434.842,55.459c-33.257,0-58.337,26.942-58.337,62.669c0,36.748,25.876,62.413,62.925,62.413
	c17.732,0,34.516-7.161,46.054-19.649c0.153-0.166,0.234-0.386,0.22-0.613c-0.012-0.226-0.115-0.438-0.287-0.584l-16.348-14.146
	c-0.33-0.283-0.822-0.269-1.13,0.037c-3.594,3.529-12.009,11.79-27.747,11.79c-18.828,0-33.29-12.711-35.165-30.908l-0.2-1.978
	h85.337c0.422,0,0.778-0.312,0.827-0.731c0.264-2.128,0.405-4.515,0.405-6.904C491.398,82.427,466.556,55.459,434.842,55.459z
	 M434.842,78.623c14.871,0,25.205,12.086,26.253,23.283l0.177,1.966h-54.988l0.279-2.04
	C408.31,89.037,420.995,78.623,434.842,78.623z"/>
<path fill="#FFFFFF" d="M382.254,176.566l-64.862-64.864l56.802-52.244c0.253-0.234,0.337-0.599,0.213-0.92
	c-0.125-0.32-0.433-0.531-0.777-0.531h-38.846c-0.212,0-0.417,0.081-0.571,0.228l-44.816,42.129V3.306
	c0-0.461-0.375-0.834-0.835-0.834h-27.858c-0.462,0-0.837,0.373-0.837,0.834v173.853c0,0.461,0.375,0.833,0.837,0.833h27.858
	c0.459,0,0.835-0.372,0.835-0.833v-55.284l54.533,55.865c0.158,0.164,0.374,0.252,0.598,0.252h37.138
	c0.337,0,0.641-0.203,0.77-0.515C382.564,177.165,382.493,176.805,382.254,176.566z"/>
<path fill="#FFFFFF" d="M88.674,58.007H55.916V24.445c0-0.461-0.373-0.835-0.834-0.835H27.222c-0.462,0-0.834,0.374-0.834,0.835
	v33.562H5.383c-0.461,0-0.836,0.374-0.836,0.835V81.61c0,0.461,0.375,0.834,0.836,0.834h21.005v50.493
	c0,33.366,13.396,47.603,44.798,47.603c3.743,0,8.716-0.37,12.979-0.967c0.412-0.059,0.719-0.412,0.719-0.827v-23.879
	c0-0.241-0.104-0.471-0.286-0.628c-0.182-0.161-0.425-0.23-0.663-0.2c-1.366,0.187-6.179,0.788-10.711,0.788
	c-10.998,0-17.309-6.583-17.309-18.066V82.444h32.759c0.461,0,0.835-0.373,0.835-0.834V58.843
	C89.509,58.381,89.136,58.007,88.674,58.007z"/>
<path fill="#FFFFFF" d="M228.426,58.007h-26.583c-0.46,0-0.835,0.374-0.835,0.835V74.05l-2.064-2.87
	c-5.869-7.572-20.044-15.721-37.296-15.721c-32.759,0-57.463,26.942-57.463,62.669c0,15.708,5.457,30.676,15.363,42.141
	c11.243,13.073,26.893,20.272,44.066,20.272c17.315,0,27.414-7.153,32.865-13.191l4.529-5.565v15.374
	c0,0.461,0.375,0.833,0.835,0.833h26.583c0.461,0,0.835-0.372,0.835-0.833V58.843C229.261,58.381,228.888,58.007,228.426,58.007z
	 M168.125,153.552c-19.618,0-34.411-15.229-34.411-35.424c0-20.342,14.465-35.684,33.645-35.684c19.057,0,32.37,14.403,32.37,35.03
	v1.051C199.729,139.477,187.028,153.552,168.125,153.552z"/>
<path fill="#FFFFFF" d="M989.07,58.007h-32.759V24.445c0-0.461-0.374-0.835-0.835-0.835h-27.859c-0.461,0-0.834,0.374-0.834,0.835
	v33.562h-21.005c-0.461,0-0.836,0.374-0.836,0.835V81.61c0,0.461,0.375,0.834,0.836,0.834h21.005v50.493
	c0,33.366,13.397,47.603,44.799,47.603c3.741,0,8.716-0.37,12.978-0.967c0.412-0.059,0.721-0.412,0.721-0.827v-23.879
	c0-0.241-0.104-0.471-0.286-0.628c-0.182-0.161-0.425-0.23-0.663-0.2c-1.366,0.187-6.18,0.788-10.711,0.788
	c-10.998,0-17.309-6.583-17.309-18.066V82.444h32.759c0.462,0,0.834-0.373,0.834-0.834V58.843
	C989.904,58.381,989.532,58.007,989.07,58.007z"/>
<path fill="#FFFFFF" d="M783.341,58.007h-26.583c-0.46,0-0.836,0.374-0.836,0.835V74.05l-2.063-2.87
	c-5.87-7.572-20.044-15.721-37.297-15.721c-32.759,0-57.462,26.942-57.462,62.669c0,15.708,5.456,30.676,15.362,42.141
	c11.243,13.073,26.893,20.272,44.065,20.272c17.316,0,27.415-7.153,32.866-13.191l4.528-5.565v15.374
	c0,0.461,0.376,0.833,0.836,0.833h26.583c0.462,0,0.835-0.372,0.835-0.833V58.843C784.176,58.381,783.803,58.007,783.341,58.007z
	 M723.039,153.552c-19.618,0-34.411-15.229-34.411-35.424c0-20.342,14.466-35.684,33.646-35.684
	c19.057,0,32.369,14.403,32.369,35.03v1.051C754.643,139.477,741.942,153.552,723.039,153.552z"/>
<g>
	<path fill="#01BF9E" d="M896.231,64.196c-0.001-0.23,0.005-0.577-0.441-0.577h-4.047c-0.111,0-0.297,0.043-0.374,0.123
		c-0.08,0.078-0.123,0.247-0.123,0.357v22.989h-17.93c-14.271,0-24.089,8.849-24.089,23.671v71.971h-29.092
		c-0.229,0-0.415,0.187-0.415,0.418v3.631c0,0.229,0.186,0.417,0.415,0.417h33.682c0.231,0,0.375-0.14,0.375-0.37v-74.893
		c0-12.868,6.984-20.399,19.692-20.399h21.908c0.003,0,0.008,0,0.012,0c0.201-0.002,0.427-0.184,0.427-0.418
		c0-0.046,0.013-0.091,0-0.132V64.196z"/>
	<path fill="#01BF9E" d="M646.608,106.53c-0.216,0.042-0.36,0.242-0.335,0.46c0.334,2.755,0.975,8.144,0.975,11.008
		c0,17.55-5.697,33.443-16.552,45.624c-13.753,15.43-27.706,21.99-45.464,21.99c-9.451,0-23.64-1.929-32.925-7.803
		c-0.125-0.078-0.283-0.058-0.405,0.02c-0.123,0.076-0.197,0.209-0.197,0.354l-0.001,52.328h-29.096
		c-0.23,0-0.416,0.187-0.416,0.417v3.823c0,0.23,0.186,0.416,0.416,0.416h33.644c0.231,0,0.418-0.186,0.418-0.416v-49.258
		l0.354,0.096c6.403,2.504,17.704,4.941,29.003,4.941c20.082,0,35.992-8.228,48.594-23.249
		c11.687-13.926,15.225-28.834,15.225-39.875c0-7.438-0.814-15.279-2.754-20.575C647.016,106.626,646.824,106.49,646.608,106.53z"/>
	<path fill="#01BF9E" d="M298.923,7.89h-4.137c-0.23,0-0.417,0.187-0.417,0.417V87.57c0,0.167,0.099,0.318,0.251,0.383
		c0.054,0.023,0.11,0.035,0.166,0.035c0.104,0,0.208-0.041,0.286-0.114l4.137-3.888c0.084-0.079,0.132-0.188,0.132-0.303V8.307
		C299.341,8.077,299.154,7.89,298.923,7.89z"/>
	<path fill="#01BF9E" d="M389.271,183.025c-0.075-0.07-0.176-0.107-0.28-0.107h-38.825c-0.168,0-0.322,0.102-0.386,0.258
		c-0.064,0.155-0.029,0.334,0.091,0.454l3.675,3.641c0.079,0.077,0.185,0.12,0.296,0.12h39.127c0.173,0,0.328-0.104,0.39-0.266
		c0.062-0.162,0.019-0.344-0.109-0.46L389.271,183.025z"/>
	<path fill="#01BF9E" d="M381.824,65.189c-0.062-0.16-0.217-0.265-0.388-0.265h-5.709c-0.105,0-0.206,0.039-0.285,0.109
		l-50.607,46.49c-0.083,0.077-0.132,0.185-0.134,0.298c-0.003,0.114,0.042,0.225,0.122,0.305l2.766,2.762
		c0.081,0.081,0.187,0.122,0.295,0.122c0.101,0,0.203-0.037,0.282-0.11l53.552-49.251C381.845,65.533,381.887,65.35,381.824,65.189z
		"/>
	<path fill="#01BF9E" d="M295.105,135.081c-0.114-0.134-0.297-0.181-0.462-0.121c-0.165,0.06-0.273,0.217-0.273,0.392l0,47.613
		h-27.734c-0.23,0-0.417,0.187-0.417,0.417v3.571c0,0.229,0.187,0.416,0.417,0.416h32.287c0.23,0,0.418-0.187,0.418-0.416v-46.747
		c0-0.099-0.035-0.195-0.1-0.271L295.105,135.081z"/>
	<path fill="#01BF9E" d="M412.957,98.847c0.002,0,0.008,0,0.014,0h4.354c0.164-0.005,0.296-0.201,0.373-0.347
		c4.476-8.532,11.625-11.804,20.37-11.804c2.55,0,5.079,0.32,7.516,0.951c0.201,0.053,0.405-0.05,0.487-0.239
		c0.081-0.188,0.014-0.41-0.161-0.519c-2.379-1.503-6.254-3.295-11.202-3.295c-0.252,0-0.504,0.003-0.755,0.014
		c-4.968,0.182-8.932,0.937-13.343,4.125c-4.458,3.226-7.293,7.747-8.053,10.583c-0.035,0.128-0.009,0.265,0.072,0.369
		C412.708,98.788,412.828,98.847,412.957,98.847z"/>
	<path fill="#01BF9E" d="M500.783,124.321c0-10.217-2.317-19.455-6.294-27.904c-0.093-0.198-0.315-0.3-0.523-0.225
		c-0.207,0.074-0.32,0.295-0.26,0.507c1.622,5.685,2.643,13.734,2.643,19.48c0,9.99-0.736,13.061-0.765,13.229h-84.66
		c-0.126,0-0.247,0.057-0.326,0.156s-0.103,0.228-0.082,0.353c0.363,2.165,1.104,4.554,2.011,6.004
		c0.086,0.137,0.212,0.432,0.463,0.432c0.004,0,0.006,0,0.012,0c0.189-0.001,0.337-0.16,0.337-0.393c0-0.058-0.013-0.34-0.035-0.39
		c-0.06-0.688-0.084-0.953-0.093-1.646h86.622c0.206,0,0.379-0.146,0.413-0.349c0.362-2.167,0.554-5.376,0.542-7.756
		L500.783,124.321z"/>
	<path fill="#01BF9E" d="M490.113,163.86c-0.172-0.146-0.427-0.126-0.584,0.042c-14.046,15.001-31.499,21.676-51.281,21.676
		c-13.707,0-27.616-3.935-38.313-11.635c-0.174-0.125-0.418-0.095-0.56,0.067c-0.142,0.161-0.139,0.41,0.014,0.563
		c10.579,10.58,21.091,15.478,41.01,15.478c19.657,0,37.49-6.405,52.719-23.081c0.153-0.168,0.121-0.434-0.054-0.582L490.113,163.86
		z"/>
	<path fill="#01BF9E" d="M94.667,159.062c-0.79,0.156-1.853,0.2-4.047,0.398c-0.215,0.02-0.38,0.199-0.38,0.416v23.805
		c-6.268,1.399-12.799,1.777-21.18,1.777c-5.304,0-10.747-0.768-14.987-1.521c-0.213-0.046-0.409,0.088-0.471,0.288
		c-0.063,0.2,0.034,0.417,0.226,0.505c7.254,3.284,14.088,4.411,22.799,4.411c5.834,0,15.477-0.597,18.323-2.169
		c0.133-0.074,0.216-0.215,0.216-0.365v-27.135c0-0.123-0.056-0.24-0.152-0.322C94.916,159.07,94.792,159.042,94.667,159.062z"/>
	<path fill="#01BF9E" d="M61.876,52.982h4.136c0.23,0,0.417-0.187,0.417-0.417v-23.12c0-0.23-0.187-0.417-0.417-0.417h-4.136
		c-0.229,0-0.417,0.187-0.417,0.417v23.12C61.458,52.796,61.646,52.982,61.876,52.982z"/>
	<path fill="#01BF9E" d="M99.168,63.422h-4.204c-0.23,0-0.417,0.187-0.417,0.417v23.635H61.381c-0.23,0-0.417,0.187-0.417,0.417
		l0.001,48.733c-0.001,5.378,1.346,9.86,4.574,11.152c0.049,0.019,0.103,0.03,0.155,0.03c0.005,0,0.01,0,0.021,0
		c0.23,0,0.208-0.188,0.208-0.418c0-0.062,0.025-0.122,0-0.177c0,0,0-1.993,0-3.047l0.001-52.215h33.244
		c0.23,0,0.417-0.187,0.417-0.418v-27.69C99.586,63.609,99.399,63.422,99.168,63.422z"/>
	<path fill="#01BF9E" d="M140.266,123.942c0-16.428,12.165-33.888,31.854-33.888c2.187,0,4.344,0.206,6.411,0.609
		c0.209,0.033,0.408-0.08,0.476-0.277c0.066-0.198-0.024-0.414-0.212-0.507c-4.706-2.317-10.193-3.235-15.47-2.587
		c-12.928,2.086-23.662,13.72-24.438,26.484c-0.231,3.835-0.042,7.516,0.559,10.942c0.035,0.202,0.21,0.345,0.411,0.345
		c0.002,0,0.007,0,0.01,0c0.203,0,0.429-0.183,0.429-0.418c0-0.047-0.01-0.094-0.025-0.137
		C140.268,124.318,140.266,124.128,140.266,123.942z"/>
	<path fill="#01BF9E" d="M238.839,63.421h-4.133c-0.229,0-0.415,0.187-0.415,0.418l-0.002,119.221H201.48
		c-0.231,0-0.417,0.186-0.417,0.418v3.724c0,0.229,0.186,0.417,0.417,0.417h37.359c0.23,0,0.416-0.188,0.416-0.417V63.839
		C239.255,63.608,239.069,63.421,238.839,63.421z"/>
	<path fill="#01BF9E" d="M194.707,175.941c-0.14-0.072-0.311-0.066-0.434,0.03c-8.484,6.61-18.587,9.214-32.027,9.214
		c-4.313,0-10.135-0.68-14.522-1.66c-0.202-0.044-0.413,0.082-0.477,0.285c-0.063,0.203,0.036,0.416,0.229,0.507
		c5.971,2.82,11.938,4.219,20.274,4.219c10.656,0,20.497-2.493,26.997-6.841c0.117-0.077,0.187-0.207,0.187-0.348v-5.034
		C194.933,176.155,194.845,176.012,194.707,175.941z"/>
	<path fill="#01BF9E" d="M995.062,159.062c-0.79,0.156-1.853,0.2-4.047,0.398c-0.216,0.02-0.381,0.199-0.381,0.416v23.805
		c-6.268,1.399-12.799,1.777-21.18,1.777c-5.305,0-10.746-0.768-14.988-1.521c-0.213-0.046-0.408,0.088-0.47,0.288
		c-0.063,0.2,0.034,0.417,0.227,0.505c7.253,3.284,14.088,4.411,22.798,4.411c5.834,0,15.478-0.597,18.322-2.169
		c0.134-0.074,0.217-0.215,0.217-0.365v-27.135c0-0.123-0.057-0.24-0.152-0.322C995.312,159.07,995.188,159.042,995.062,159.062z"/>
	<path fill="#01BF9E" d="M962.271,52.982h4.136c0.231,0,0.418-0.187,0.418-0.417v-23.12c0-0.23-0.187-0.417-0.418-0.417h-4.136
		c-0.23,0-0.417,0.187-0.417,0.417v23.12C961.854,52.796,962.041,52.982,962.271,52.982z"/>
	<path fill="#01BF9E" d="M999.564,63.422h-4.203c-0.231,0-0.419,0.187-0.419,0.417v23.635h-33.165c-0.229,0-0.416,0.187-0.416,0.417
		l0.001,48.733c-0.001,5.378,1.345,9.86,4.572,11.152c0.05,0.019,0.104,0.03,0.156,0.03c0.005,0,0.011,0,0.021,0
		c0.231,0,0.208-0.188,0.208-0.418c0-0.062,0.026-0.122,0-0.177c0,0,0-1.993,0-3.047l0.001-52.215h33.244
		c0.23,0,0.417-0.187,0.417-0.418v-27.69C999.981,63.609,999.795,63.422,999.564,63.422z"/>
	<path fill="#01BF9E" d="M695.18,123.942c0-16.428,12.166-33.888,31.855-33.888c2.187,0,4.344,0.206,6.409,0.609
		c0.209,0.033,0.409-0.08,0.476-0.277c0.067-0.198-0.023-0.414-0.212-0.507c-4.705-2.317-10.191-3.235-15.47-2.587
		c-12.928,2.086-23.662,13.72-24.437,26.484c-0.231,3.835-0.043,7.516,0.558,10.942c0.035,0.202,0.211,0.345,0.412,0.345
		c0.002,0,0.006,0,0.011,0c0.202,0,0.429-0.183,0.429-0.418c0-0.047-0.01-0.094-0.025-0.137
		C695.182,124.318,695.18,124.128,695.18,123.942z"/>
	<path fill="#01BF9E" d="M552.976,123.942c0-16.428,12.164-33.888,31.853-33.888c2.188,0,4.344,0.206,6.411,0.609
		c0.209,0.033,0.407-0.08,0.476-0.277c0.066-0.198-0.023-0.414-0.212-0.507c-4.706-2.317-10.193-3.235-15.47-2.587
		c-12.928,2.086-23.662,13.72-24.438,26.484c-0.232,3.835-0.042,7.516,0.56,10.942c0.034,0.202,0.21,0.345,0.41,0.345
		c0.003,0,0.008,0,0.011,0c0.204,0,0.43-0.183,0.43-0.418c0-0.047-0.01-0.094-0.025-0.137
		C552.977,124.318,552.976,124.128,552.976,123.942z"/>
	<path fill="#01BF9E" d="M793.754,63.421h-4.133c-0.23,0-0.416,0.187-0.416,0.418l-0.002,119.221h-32.809
		c-0.23,0-0.418,0.186-0.418,0.418v3.724c0,0.229,0.188,0.417,0.418,0.417h37.359c0.23,0,0.416-0.188,0.416-0.417V63.839
		C794.17,63.608,793.984,63.421,793.754,63.421z"/>
	<path fill="#01BF9E" d="M749.621,175.941c-0.141-0.072-0.31-0.066-0.434,0.03c-8.484,6.61-18.588,9.214-32.027,9.214
		c-4.312,0-10.135-0.68-14.521-1.66c-0.201-0.044-0.414,0.082-0.478,0.285c-0.062,0.203,0.036,0.416,0.229,0.507
		c5.972,2.82,11.938,4.219,20.274,4.219c10.657,0,20.498-2.493,26.998-6.841c0.115-0.077,0.186-0.207,0.186-0.348v-5.034
		C749.848,176.155,749.76,176.012,749.621,175.941z"/>
</g>
</svg>
